<?xml version="1.0" encoding="UTF-8"?>
<svg xmlns="http://www.w3.org/2000/svg" xmlns:xlink="http://www.w3.org/1999/xlink" viewBox="0 0 2068.67 2610.63">
  <defs>
    <style>
      .cls-1, .cls-2, .cls-3, .cls-4, .cls-5, .cls-6, .cls-7, .cls-8, .cls-9, .cls-10, .cls-11, .cls-12, .cls-13, .cls-14 {
        fill: none;
      }

      .cls-2, .cls-3, .cls-4, .cls-5, .cls-15, .cls-16, .cls-6, .cls-7, .cls-8, .cls-9, .cls-10, .cls-11, .cls-14 {
        stroke-miterlimit: 10;
      }

      .cls-2, .cls-3, .cls-4, .cls-5, .cls-7, .cls-8, .cls-11, .cls-12, .cls-14 {
        stroke: #fff;
      }

      .cls-2, .cls-17 {
        opacity: .3;
      }

      .cls-3, .cls-4, .cls-7, .cls-8 {
        stroke-width: 3px;
      }

      .cls-3, .cls-7 {
        stroke-dasharray: 0 0 15 10;
      }

      .cls-3, .cls-8, .cls-18 {
        opacity: .5;
      }

      .cls-19 {
        fill: url(#white-grid);
      }

      .cls-19, .cls-20, .cls-6 {
        opacity: .1;
      }

      .cls-5 {
        stroke-width: 6px;
      }

      .cls-20 {
        fill: url(#Grid_.5_inch_Lines);
      }

      .cls-21 {
        clip-path: url(#clippath);
      }

      .cls-22 {
        opacity: .05;
      }

      .cls-23 {
        fill: #e6e6e6;
      }

      .cls-24 {
        fill: #fff;
      }

      .cls-25, .cls-16 {
        fill: #364e7a;
      }

      .cls-26 {
        fill: #4d4d4d;
      }

      .cls-15 {
        fill: #1d2e49;
      }

      .cls-15, .cls-16, .cls-9 {
        stroke: #000;
        stroke-width: 2px;
      }

      .cls-6 {
        stroke: #d1d3d4;
        stroke-width: 5px;
      }

      .cls-27 {
        fill: url(#white-grid-2);
      }

      .cls-27, .cls-28, .cls-29 {
        opacity: .15;
      }

      .cls-28 {
        fill: url(#white-grid-3);
      }

      .cls-30 {
        clip-path: url(#clippath-3);
      }

      .cls-31 {
        clip-path: url(#clippath-2);
      }

      .cls-32 {
        clip-path: url(#clippath-5);
      }

      .cls-7, .cls-33, .cls-14 {
        opacity: .4;
      }

      .cls-34 {
        fill: url(#Grid_1cm_Lines);
      }

      .cls-8 {
        stroke-linecap: round;
      }

      .cls-10 {
        stroke: #999;
      }

      .cls-10, .cls-14 {
        stroke-width: 4px;
      }

      .cls-35 {
        opacity: .2;
      }

      .cls-12, .cls-13 {
        stroke-width: .3px;
      }

      .cls-13 {
        stroke: #231f20;
      }

      .cls-36 {
        opacity: .6;
      }

      .cls-37 {
        fill: url(#Grid_.5_inch_Lines-2);
      }

      .cls-38 {
        opacity: .7;
      }
    </style>
    <pattern id="Grid_1cm_Lines" data-name="Grid 1cm Lines" x="0" y="0" width="56.69" height="56.69" patternTransform="translate(2361.98 3045.53) scale(1.41)" patternUnits="userSpaceOnUse" viewBox="0 0 56.69 56.69">
      <g>
        <rect class="cls-1" width="56.69" height="56.69"/>
        <g>
          <line class="cls-13" x1="42.52" y1="113.64" x2="42.52" y2="56.44"/>
          <line class="cls-13" x1="14.17" y1="56.44" x2="14.17" y2="113.64"/>
        </g>
        <g>
          <line class="cls-13" x1="113.63" y1="14.17" x2="56.44" y2="14.17"/>
          <line class="cls-13" x1="56.44" y1="42.52" x2="113.63" y2="42.52"/>
        </g>
        <g>
          <line class="cls-13" x1="56.94" y1="14.17" x2="-.25" y2="14.17"/>
          <line class="cls-13" x1="-.25" y1="42.52" x2="56.94" y2="42.52"/>
          <line class="cls-13" x1="42.52" y1="56.94" x2="42.52" y2="-.25"/>
          <line class="cls-13" x1="14.17" y1="-.25" x2="14.17" y2="56.94"/>
        </g>
        <g>
          <line class="cls-13" x1=".25" y1="14.17" x2="-56.94" y2="14.17"/>
          <line class="cls-13" x1="-56.94" y1="42.52" x2=".25" y2="42.52"/>
        </g>
        <g>
          <line class="cls-13" x1="42.52" y1=".25" x2="42.52" y2="-56.94"/>
          <line class="cls-13" x1="14.17" y1="-56.94" x2="14.17" y2=".25"/>
        </g>
      </g>
    </pattern>
    <clipPath id="clippath">
      <ellipse class="cls-26" cx="1033.05" cy="1525.51" rx="406.35" ry="601.94" transform="translate(-701.91 2145.43) rotate(-75.56)"/>
    </clipPath>
    <clipPath id="clippath-2">
      <path class="cls-1" d="M563.58,1582.01c-23.45-46.69-28.69-84.91-30-95.77-.23-1.94-.38-3.33-.44-3.87-2.9-27.71-1.08-55.42,5.93-82.63,46.7-181.33,306.34-271.22,579.9-200.77,273.56,70.46,457.47,274.58,410.77,455.91-15.53,60.31-54.62,110.51-109.95,148.05-.55,.38,3.88-18.62,3.32-18.24-21.22,14.23-47.75,18.67-72.75,12.26l-719.28-163.65c-6.02-1.54-11.87-3.7-17.45-6.43-3.01-1.47-6.01-2.94-9.02-4.41-17.72-8.66-32.13-22.8-40.91-40.25-.04-.07-.07-.14-.11-.21Z"/>
    </clipPath>
    <clipPath id="clippath-3">
      <path class="cls-1" d="M1908.84,1618.01l-1239.37,32.85s309.33-28.95-21.01-492.31c-214.57-300.96,1374.1-158.19,1374.1-158.19l-113.71,617.65Z"/>
    </clipPath>
    <pattern id="Grid_.5_inch_Lines" data-name="Grid .5 inch Lines" x="0" y="0" width="72" height="72" patternTransform="translate(-7521.49 1459.87) rotate(-176.56) scale(.8 -1.13) skewX(-41.57)" patternUnits="userSpaceOnUse" viewBox="0 0 72 72">
      <g>
        <rect class="cls-1" width="72" height="72"/>
        <g>
          <line class="cls-12" x1="54" y1="71.75" x2="54" y2="144.25"/>
          <line class="cls-12" x1="18" y1="71.75" x2="18" y2="144.25"/>
        </g>
        <g>
          <line class="cls-12" x1="71.75" y1="18" x2="144.25" y2="18"/>
          <line class="cls-12" x1="71.75" y1="54" x2="144.25" y2="54"/>
        </g>
        <g>
          <line class="cls-12" x1="-.25" y1="18" x2="72.25" y2="18"/>
          <line class="cls-12" x1="54" y1="-.25" x2="54" y2="72.25"/>
          <line class="cls-12" x1="-.25" y1="54" x2="72.25" y2="54"/>
          <line class="cls-12" x1="18" y1="-.25" x2="18" y2="72.25"/>
        </g>
        <g>
          <line class="cls-12" x1="-72.25" y1="18" x2=".25" y2="18"/>
          <line class="cls-12" x1="-72.25" y1="54" x2=".25" y2="54"/>
        </g>
        <g>
          <line class="cls-12" x1="54" y1="-72.25" x2="54" y2=".25"/>
          <line class="cls-12" x1="18" y1="-72.25" x2="18" y2=".25"/>
        </g>
      </g>
    </pattern>
    <clipPath id="clippath-5">
      <path class="cls-16" d="M1831.23,1747.24l-952.9-245.42s-131.95,171.51-258.97,127.44l791.55,186.31c104.31,32.03,420.32-68.33,420.32-68.33Z"/>
    </clipPath>
    <pattern id="white-grid" x="0" y="0" width="56.69" height="56.69" patternTransform="translate(1739.15 2806.45) rotate(14.44) skewX(30)" patternUnits="userSpaceOnUse" viewBox="0 0 56.69 56.69">
      <g>
        <rect class="cls-1" width="56.69" height="56.69"/>
        <g>
          <line class="cls-12" x1="42.52" y1="113.64" x2="42.52" y2="56.44"/>
          <line class="cls-12" x1="14.17" y1="56.44" x2="14.17" y2="113.64"/>
        </g>
        <g>
          <line class="cls-12" x1="113.63" y1="14.17" x2="56.44" y2="14.17"/>
          <line class="cls-12" x1="56.44" y1="42.52" x2="113.63" y2="42.52"/>
        </g>
        <g>
          <line class="cls-12" x1="56.94" y1="14.17" x2="-.25" y2="14.17"/>
          <line class="cls-12" x1="-.25" y1="42.52" x2="56.94" y2="42.52"/>
          <line class="cls-12" x1="42.52" y1="56.94" x2="42.52" y2="-.25"/>
          <line class="cls-12" x1="14.17" y1="-.25" x2="14.17" y2="56.94"/>
        </g>
        <g>
          <line class="cls-12" x1=".25" y1="14.17" x2="-56.94" y2="14.17"/>
          <line class="cls-12" x1="-56.94" y1="42.52" x2=".25" y2="42.52"/>
        </g>
        <g>
          <line class="cls-12" x1="42.52" y1=".25" x2="42.52" y2="-56.94"/>
          <line class="cls-12" x1="14.17" y1="-56.94" x2="14.17" y2=".25"/>
        </g>
      </g>
    </pattern>
    <pattern id="white-grid-2" data-name="white-grid" patternTransform="translate(-8787.93 95.2) rotate(14.44) skewX(-45)" xlink:href="#white-grid"/>
    <pattern id="white-grid-3" data-name="white-grid" patternTransform="translate(-5324.85 -13296.05) rotate(14.44) scale(1 -1) skewX(-45)" xlink:href="#white-grid"/>
    <pattern id="Grid_.5_inch_Lines-2" data-name="Grid .5 inch Lines" patternTransform="translate(-2031.61 1798.43) rotate(14.44)" xlink:href="#Grid_.5_inch_Lines"/>
  </defs>
  <g id="Layer_2" data-name="Layer 2">
    <g>
      <path class="cls-24" d="M2002,1608.63c0,552.28-447.72,1000-1000,1000S2,2160.91,2,1608.63,449.72,608.63,1002,608.63c201.98,0,389.98,59.88,547.2,162.87,21.34,13.98,42.12,28.75,62.28,44.27,46.44,35.75,89.64,75.48,129.09,118.7,17.52,19.16,34.29,39.02,50.28,59.51,33.98,43.54,64.43,89.97,90.92,138.86,12.28,22.66,23.71,45.85,34.25,69.52,55.27,124.14,85.98,261.62,85.98,406.27Z"/>
      <path class="cls-10" d="M2002,1608.63c0,552.28-447.72,1000-1000,1000S2,2160.91,2,1608.63,449.72,608.63,1002,608.63c201.98,0,389.98,59.88,547.2,162.87,21.34,13.98,42.12,28.75,62.28,44.27,46.44,35.75,89.64,75.48,129.09,118.7,17.52,19.16,34.29,39.02,50.28,59.51,33.98,43.54,64.43,89.97,90.92,138.86,12.28,22.66,23.71,45.85,34.25,69.52,55.27,124.14,85.98,261.62,85.98,406.27Z"/>
      <path class="cls-34" d="M2002,1608.63c0,552.28-447.72,1000-1000,1000S2,2160.91,2,1608.63,449.72,608.63,1002,608.63c201.98,0,389.98,59.88,547.2,162.87,21.34,13.98,42.12,28.75,62.28,44.27,46.44,35.75,89.64,75.48,129.09,118.7,17.52,19.16,34.29,39.02,50.28,59.51,33.98,43.54,64.43,89.97,90.92,138.86,12.28,22.66,23.71,45.85,34.25,69.52,55.27,124.14,85.98,261.62,85.98,406.27Z"/>
    </g>
  </g>
  <g id="Layer_1" data-name="Layer 1">
    <g>
      <path class="cls-23" d="M1069.08,2194.73c-72.08,0-145.35-9.46-217.78-28.11-84.89-21.86-164.15-55.1-235.56-98.77-68.97-42.18-127.76-92.27-174.73-148.89-46.96-56.59-79.75-116.85-97.45-179.09-18.32-64.41-19.61-128.14-3.83-189.43,2.04-7.92,4.38-15.82,6.96-23.5,41.91-137.46,172.63-282.55,233.17-324.32l-121.89,164.53,6.68-5.7c49.23-42,109.09-74.78,177.91-97.42,69.28-22.79,144.76-34.35,224.34-34.35,71.91,0,145.4,9.54,218.43,28.35,131,33.74,249.12,94.91,341.58,176.91,44.52,39.48,81.85,82.77,110.97,128.66,29.39,46.33,49.83,94.41,60.74,142.91l1.88,8.34,2.39-208.26c18.82,41.8,27.94,85.37,28.66,136.68,.84,59.45-9.81,132.22-32.56,222.47l-.03,.13c-.62,2.69-1.28,5.42-2.04,8.35-24.62,95.58-88.78,176.57-185.57,234.21-46.63,27.77-99.58,49.29-157.37,63.96-58.43,14.83-120.63,22.35-184.87,22.35Z"/>
      <path d="M575.27,1207.11l-112.89,152.38-10.45,14.11,13.36-11.4c49.13-41.92,108.87-74.63,177.57-97.23,69.18-22.76,144.55-34.3,224.03-34.3,71.82,0,145.23,9.53,218.18,28.31,130.85,33.7,248.82,94.8,341.16,176.69,44.45,39.42,81.72,82.63,110.79,128.45,29.33,46.23,49.72,94.2,60.61,142.6l3.75,16.69,.2-17.11,2.24-195.1c17.5,40.39,26.02,82.62,26.71,132.08,.84,59.36-9.8,132.05-32.53,222.2l-.03,.13v.03s-.01,.03-.01,.03c-.6,2.62-1.28,5.41-2.02,8.29-12.4,48.14-35,92.85-67.19,132.91-31.15,38.77-70.83,72.65-117.92,100.7-46.55,27.72-99.4,49.2-157.11,63.85-58.35,14.81-120.46,22.32-184.62,22.32-72,0-145.19-9.45-217.53-28.08-84.8-21.84-163.96-55.03-235.29-98.66-68.87-42.12-127.58-92.14-174.49-148.68-23.1-27.84-43.05-57.06-59.3-86.86-16.4-30.06-29.17-60.97-37.96-91.87-18.27-64.24-19.56-127.79-3.82-188.91,2.03-7.89,4.37-15.78,6.94-23.43v-.03s.02-.03,.02-.03c9.97-32.71,25.67-67.85,46.65-104.45,18.5-32.26,40.63-64.91,65.8-97.05,22.1-28.22,45.95-55.2,68.98-78.03,16.83-16.68,32.83-30.71,46.2-40.56m8.78-8.49c-59.59,38-195.72,188.25-238.32,328-2.6,7.73-4.92,15.59-6.98,23.57-64.76,251.44,164.6,527.86,512.3,617.41,74.13,19.09,147.6,28.14,218.03,28.14,259.93,0,477.82-123.43,528.77-321.27,.72-2.78,1.4-5.56,2.04-8.35l.03-.13c47.37-187.91,38.88-284.74,1.98-363.86l-2.34,204.17c-44.18-196.37-243.2-379.48-514.01-449.23-74.68-19.23-148.31-28.38-218.68-28.38-160.66,0-304.11,47.72-402.9,132l120.07-162.06h0Z"/>
    </g>
    <g>
      <ellipse class="cls-26" cx="1033.05" cy="1525.51" rx="406.35" ry="601.94" transform="translate(-701.91 2145.43) rotate(-75.56)"/>
      <g class="cls-21">
        <g class="cls-29">
          <path d="M1787.31,1900.96s-671.15,172.81-883.75,101.45c-260.69-87.5-309.7-402.43-309.7-402.43l967.82,157.41,225.63,143.58Z"/>
        </g>
        <g class="cls-29">
          <rect x="665.4" y="1087.64" width="187.24" height="245" rx="12" ry="12" transform="translate(-419.79 403.32) rotate(-23.51)"/>
        </g>
      </g>
    </g>
    <path d="M920.08,1104.22v2c70.47,0,142.41,9.33,213.82,27.72,78.51,20.22,152,50.22,218.42,89.15,64.13,37.59,119,81.89,163.08,131.65,44.04,49.72,75.09,102.38,92.3,156.54,17.79,55.98,19.92,111.11,6.33,163.86-20.8,80.77-77,148.99-162.51,197.31-41.26,23.31-88.34,41.36-139.91,53.65-52.08,12.41-107.78,18.7-165.55,18.7-70.5,0-142.45-9.33-213.86-27.72-78.51-20.22-152-50.22-218.42-89.15-64.13-37.59-119-81.89-163.08-131.65-44.04-49.72-75.09-102.38-92.3-156.54-17.79-55.98-19.92-111.11-6.33-163.86,20.8-80.76,76.99-148.99,162.51-197.3,41.26-23.31,88.33-41.36,139.91-53.65,52.08-12.41,107.78-18.7,165.55-18.71l.05-2m-.05,0c-233.89,.01-426.66,103.24-469.91,271.16-55.97,217.33,159.63,460.72,481.57,543.64,73.19,18.85,145.54,27.78,214.36,27.78,233.89,0,426.66-103.24,469.91-271.16,55.97-217.33-159.63-460.72-481.57-543.64-73.19-18.85-145.54-27.78-214.36-27.78h0Z"/>
  </g>
  <g id="Layer_5" data-name="Layer 5">
    <g>
      <path d="M634.66,1987.72c3.09-1.9,4.65-2.93,7.79-5.07,3.46,10.76,9.97,20.94,19.64,26.94,10.9,6.77,19.38,4.31,21.8-5.33,2.72-10.85-3.66-20.36-10.16-28.38-4.1-5.73-6.13-8.61-10.1-14.41-8.63-11.12-13.17-25.77-10.27-39.42,3.41-16.07,20.55-16.77,32.6-8.87,9.56,6.27,18.62,15.23,23.45,26.14-3.23,1.86-4.84,2.85-8.04,4.91-3.35-8.18-11.05-16.88-18.61-21.22-9.58-5.49-17.24-4.56-19.29,4.82-2.2,10.07,3.99,19.43,10.21,26.94,3.96,5.59,5.98,8.38,10.05,13.93,8.81,11.05,15.3,26.05,11.67,40.14-4.45,17.31-23.42,19.21-36.62,10.52-11.1-7.31-20.04-18.63-24.13-31.63Z"/>
      <path d="M718.81,1992.1c6.97-24.85,26.38-46.48,54.7-33.56,8.15,3.72,17.43,12.64,20.51,21.53-3.39,1.98-5.12,3.02-8.59,5.17-2.81-7.49-7.64-13.23-14.97-16.69-22.46-10.61-34.66,11.84-39.86,29.15-5.55,18.46-5.68,46.63,15.44,56.51,7.81,3.66,14.82,2.7,22.15-2.13,1.51,4.26,2.26,6.35,3.78,10.4-9.06,6.22-20.39,6.01-30.02,1.25-27.24-13.46-30.27-46.19-23.14-71.61Z"/>
      <path d="M814.42,1978.24c4.21,1.75,6.33,2.61,10.57,4.29-4.26,14-8.38,28.03-12.52,42.06,11.3,4.49,22.71,8.7,34.21,12.64,4.13-14.03,8.26-28.07,12.52-42.06,4.31,1.48,6.48,2.2,10.81,3.61-10.38,34.05-20.06,68.31-30.4,102.38-4.33-1.41-6.5-2.13-10.81-3.61,4.83-15.91,9.51-31.86,14.2-47.8-11.5-3.93-22.91-8.15-34.21-12.64-4.69,15.95-9.37,31.9-14.2,47.8-4.24-1.68-6.35-2.54-10.57-4.29,10.34-34.06,20.02-68.32,30.4-102.38Z"/>
      <path d="M894.75,2006.35c17.51,4.88,35.07,9.25,52.83,13.13-1.12,3.68-1.72,5.65-2.95,9.77-14.08-3.08-28.04-6.43-41.98-10.1-3.24,10.87-6.46,21.75-9.66,32.64,11.73,3.18,23.55,6.08,35.42,8.69-1.41,4.78-2.12,7.2-3.53,12-11.88-2.61-23.69-5.51-35.42-8.69-3.75,12.74-7.49,25.48-11.3,38.21,14.37,3.78,28.77,7.23,43.29,10.37-1.23,4.12-1.83,6.09-2.95,9.77-18.2-3.95-36.2-8.4-54.14-13.4,10.34-34.06,20.02-68.32,30.4-102.38Z"/>
      <path d="M967.77,2023.45c5.58,1.03,8.44,1.54,14.25,2.53,.79,15.06,.5,30.11,.23,45.18-.33,7.41-.52,11.18-.87,18.56,.23,.03,.35,.05,.58,.09,3.99-6.83,6.03-10.32,10.07-17.17,8.79-13.85,17.59-27.74,27.28-40.99,6.2,.83,9.33,1.23,15.6,1.98-10.46,34.07-22.34,67.69-32.88,101.74-4.69-.53-7.02-.8-11.68-1.38,5.21-17.04,10.69-33.99,16.15-50.94,4.22-12.59,9.23-24.9,14.12-37.25l-.46-.06c-4.65,7.33-7.09,11.32-11.99,19.44-9.24,13.57-18.23,27.31-27.35,40.96-3.47-.5-5.19-.76-8.62-1.29-.08-15.04-.02-30.07-.04-45.11,.39-8.82,.56-13.16,.71-21.18-.11-.02-.17-.03-.28-.05-2.58,12.78-5.62,25.55-9.33,38.05-5.11,17.05-10.22,34.1-15.34,51.15-4.3-.74-6.44-1.12-10.64-1.89,10.27-34.09,20.18-68.28,30.47-102.36Z"/>
      <path d="M1084.59,2038.2c5.79,.36,8.66,.52,14.33,.76,.92,33.92-4.85,67.46-4.79,101.35-4.88,.08-7.36,.1-12.36,.07-.22-19.06,2.38-38.19,4.26-57.12,1.03-11.73,1.99-23.46,2.82-35.21-.24-.01-.36-.02-.6-.03-7.26,11.45-14.54,22.89-21.93,34.26-12.08,18.64-23.96,37.45-36.55,55.76-5.04-.4-7.57-.63-12.62-1.11,23.23-32.38,44.22-66.31,67.43-98.72Zm-36.6,59.68c14.61,1.03,29.19,1.75,43.83,2.1-1.66,4.49-2.49,6.72-4.08,11.08-14.57-.34-29.08-1.04-43.62-2.05,1.52-4.39,2.3-6.63,3.87-11.14Z"/>
    </g>
  </g>
  <g id="Layer_3" data-name="Layer 3">
    <path class="cls-16" d="M2066.45,829.92l-952.9-245.42h0c-9.53-172.04-63.53-332.49-155.05-460.67L871.26,1.65l952.9,245.42,87.23,122.18c91.52,128.18,145.53,288.63,155.05,460.67h0Z"/>
    <g>
      <path class="cls-25" d="M2066.92,832.11l-952.9-245.42h0c-110.39,137.75-248.09,251.16-404.44,333.11l-85.27,44.69,952.9,245.42,85.27-44.69c156.35-81.95,294.05-195.36,404.44-333.11h0Z"/>
      <path class="cls-9" d="M2066.92,832.11l-952.9-245.42h0c-110.39,137.75-248.09,251.16-404.44,333.11l-85.27,44.69,952.9,245.42,85.27-44.69c156.35-81.95,294.05-195.36,404.44-333.11h0Z"/>
    </g>
    <path class="cls-15" d="M563.58,1582.01c-23.45-46.69-28.69-84.91-30-95.77-.23-1.94-.38-3.33-.44-3.87-2.9-27.71-1.08-55.42,5.93-82.63,46.7-181.33,306.34-271.22,579.9-200.77,273.56,70.46,457.47,274.58,410.77,455.91-15.53,60.31-54.62,110.51-109.95,148.05-.55,.38,3.88-18.62,3.32-18.24-21.22,14.23-47.75,18.67-72.75,12.26l-719.28-163.65c-6.02-1.54-11.87-3.7-17.45-6.43-3.01-1.47-6.01-2.94-9.02-4.41-17.72-8.66-32.13-22.8-40.91-40.25-.04-.07-.07-.14-.11-.21Z"/>
    <g class="cls-31">
      <polygon class="cls-6" points="1487.7 1862.2 705.59 1661.28 538.7 1254.81 1498.61 1332.17 1487.7 1862.2"/>
    </g>
    <g class="cls-30">
      <g class="cls-33">
        <path d="M563.58,1582.01c-23.45-46.69-28.69-84.91-30-95.77-.23-1.94-.38-3.33-.44-3.87-2.9-27.71-1.08-55.42,5.93-82.63,46.7-181.33,306.34-271.22,579.9-200.77,273.56,70.46,457.47,274.58,410.77,455.91-15.53,60.31-54.62,110.51-109.95,148.05-.55,.38,3.88-18.62,3.32-18.24-21.22,14.23-47.75,18.67-72.75,12.26l-719.28-163.65c-6.02-1.54-11.87-3.7-17.45-6.43-3.01-1.47-6.01-2.94-9.02-4.41-17.72-8.66-32.13-22.8-40.91-40.25-.04-.07-.07-.14-.11-.21Z"/>
      </g>
    </g>
    <polygon class="cls-20" points="766.3 1701.59 1300.72 1638.04 1057.21 1312.45 575.43 1290.6 766.3 1701.59"/>
    <g>
      <path class="cls-25" d="M1832.69,1745.56l-952.9-245.42h0c-32.98-162.69-99.94-316.57-196.48-451.61l-58.53-81.86,952.9,245.42,58.53,81.86c96.55,135.03,163.5,288.92,196.48,451.61h0Z"/>
      <path class="cls-9" d="M1832.69,1745.56l-952.9-245.42h0c-32.98-162.69-99.94-316.57-196.48-451.61l-58.53-81.86,952.9,245.42,58.53,81.86c96.55,135.03,163.5,288.92,196.48,451.61h0Z"/>
    </g>
    <g>
      <path class="cls-25" d="M1831.23,1747.24l-952.9-245.42s-131.95,171.51-258.97,127.44l791.55,186.31c104.31,32.03,420.32-68.33,420.32-68.33Z"/>
      <g class="cls-32">
        <path class="cls-8" d="M1404.95,1816.62c111.23,13.16,377.71-61.23,377.71-61.23l-884.76-227.35s-124.57,122.81-201.69,121.54"/>
        <rect class="cls-29" x="611.38" y="1497.91" width="1308.78" height="415.22" transform="translate(286.46 -179.13) rotate(9.12)"/>
      </g>
      <path class="cls-9" d="M1831.23,1747.24l-952.9-245.42s-131.95,171.51-258.97,127.44l791.55,186.31c104.31,32.03,420.32-68.33,420.32-68.33Z"/>
    </g>
    <path id="grid" class="cls-19" d="M2038.27,807.02l-895.09-230.06s10.51-266.61-228.25-548.42c-.39-.47,895.33,230.03,895.88,230.73,240.66,306.04,227.46,547.74,227.46,547.74Z"/>
    <path id="grid-2" data-name="grid" class="cls-27" d="M1562.36,1198.78l-900.45-235.97s358.42-196.83,464.38-363.67c0,0,905.45,233.2,905.45,233.2-169.24,232.12-469.38,366.44-469.38,366.44Z"/>
    <path id="grid-3" data-name="grid" class="cls-28" d="M1570.43,1223.58l-902.41-228.36s227.53,299.35,239.71,496.62c0,0,903.52,232.7,903.51,232.7-36.06-285-240.82-500.97-240.82-500.97Z"/>
    <g class="cls-18">
      <path class="cls-24" d="M922.16,33.5l886.58,228.34,81.36,113.94c42.64,59.71,76.74,127.09,101.36,200.24,24.21,71.94,38.87,148.31,43.58,227.06l-889.51-229.1c-4.62-79.97-19.42-157.52-44-230.55-24.81-73.72-59.19-141.62-102.17-201.82l-77.2-108.13m-7.23-4.96l81.99,114.83c86.02,120.47,136.78,271.28,145.73,432.98h0s895.62,230.67,895.62,230.67h0c-8.96-161.7-59.71-312.5-145.73-432.98l-81.99-114.83L914.93,28.54h0Z"/>
    </g>
    <g class="cls-18">
      <path class="cls-24" d="M1127.6,602.58l898.92,231.52c-51.62,64.58-109.86,124.1-173.18,176.94-64.5,53.83-134.68,101.1-208.61,140.49l-80.19,42.73-896.69-230.94,74.41-39.65c74.29-39.59,144.83-87.09,209.64-141.18,64.31-53.67,123.42-114.2,175.7-179.91m-1.14-3.39h0c-105.4,132.9-236.69,242.47-385.61,321.83l-81.22,43.28,905.29,233.16,81.22-43.28c148.92-79.35,280.21-188.93,385.61-321.83h0s-905.29-233.16-905.29-233.16h0Z"/>
    </g>
    <g class="cls-18">
      <path class="cls-24" d="M672.11,997.45l894.07,230.27,55.06,75.83c45.6,62.8,84.64,130.5,116.02,201.22,30.73,69.24,54.29,141.78,70.07,215.66l-896.7-230.95c-15.86-75.3-39.77-149.23-71.07-219.77-31.55-71.1-70.8-139.17-116.65-202.31l-50.8-69.96m-7.33-4.99l55.7,76.7c91.88,126.53,155.81,270.59,187.59,422.76h0s903.19,232.62,903.19,232.62h0c-31.79-152.17-95.71-296.23-187.59-422.76l-55.7-76.7-903.19-232.62h0Z"/>
    </g>
    <g class="cls-38">
      <g class="cls-33">
        <g>
          <path class="cls-24" d="M1167.46,1251.52l264.24,70.28,69.21,137.35-265.52-69.37-67.93-138.26m-5.6-4.59l71.45,145.41,273.27,71.4-72.8-144.49-271.91-72.32h0Z"/>
          <path class="cls-24" d="M1083.45,1201.81l265.33,70.83,68.66,137.1-266.62-69.93-67.37-138m-5.58-4.6l70.86,145.15,274.36,71.97-72.23-144.24-272.99-72.88h0Z"/>
          <path class="cls-24" d="M1084.96,1204.89l74.6,44.16,66.62,135.59-75.15-44.41-66.07-135.34m-7.09-7.68l70.86,145.15,84.58,49.97-71.45-145.41-83.99-49.71h0Z"/>
          <path class="cls-24" d="M1358.12,1277.88l73.37,43.5,67.8,134.56-73.91-43.74-67.26-134.31m-7.26-7.79l72.23,144.24,83.48,49.41-72.8-144.49-82.91-49.15h0Z"/>
        </g>
        <g class="cls-18">
          <g>
            <line class="cls-4" x1="1508.61" y1="1339.15" x2="1581.78" y2="1483.38"/>
            <line class="cls-4" x1="1476.05" y1="1330.49" x2="1508.61" y2="1339.15"/>
          </g>
          <line class="cls-4" x1="1549.48" y1="1474.94" x2="1582.2" y2="1483.49"/>
        </g>
        <g class="cls-18">
          <g>
            <line class="cls-4" x1="1060.65" y1="1161.94" x2="1353.47" y2="1240.45"/>
            <line class="cls-4" x1="1069.17" y1="1179.39" x2="1060.65" y2="1161.94"/>
          </g>
          <line class="cls-4" x1="1362.06" y1="1257.56" x2="1353.36" y2="1240.22"/>
        </g>
      </g>
      <path class="cls-7" d="M1422.59,1365.81c20,39.83-24.38,56.37-99.58,36.69-75.62-19.8-153.21-68.55-172.83-108.63-19.54-39.92,25.99-55.82,101.23-35.77,74.83,19.94,151.26,68.05,171.18,107.72Z"/>
      <line class="cls-3" x1="1081.51" y1="1269.38" x2="917.96" y2="1254.48"/>
      <line class="cls-3" x1="1454.5" y1="1466.37" x2="1557.66" y2="1575.72"/>
      <path class="cls-24" d="M1204.98,1183.16c.24-.19,.56-.14,.95,.14,.83,.57,1.65,1.62,1.18,2.46-.44,.75-1.73,1.85-2.17,2.75-.44,.96-.01,1.91,1.41,2.25,1.72,.42,3.3-.46,4.02-1.6,.11-.14,.4-.09,.67,.16,.27,.25,.55,.8,.3,1.28-.5,.93-2.56,1.43-4.93,.74-2.32-.68-3.86-1.71-4.38-2.76-.91,.55-2.41,.86-4.44,.31-3.95-1.06-6.15-4.1-3.96-5.85,2.14-1.7,4.99-1.8,7.11-1.23,1.82,.49,3.03,1.45,3.38,2.3,.29-.39,.56-.72,.86-.95Zm-2.94,0c-1.39-.43-3.77,.18-5.13,1.53-1.3,1.31-.88,3.12,.78,3.59,1.75,.49,3.25-.34,4.45-1.72,1.46-1.73,1.16-3-.1-3.4Z"/>
      <path class="cls-24" d="M1572.97,1413.81c-2.21-.58-3.94-1.56-5.19-2.75-.14,.37-.32,.79-.46,1.16-.05,.18-.29,.14-.63-.11-.85-.61-1.6-1.37-1.46-2.52,.18-1.56,4.13-7.7,5.91-9.09,.23-.19,.56-.1,1.05,.3,.94,.79,1.46,1.8,.6,3.03-.31,.46-1.31,1.54-1.97,2.43,.91-.26,2.02-.28,3.1,0,3.54,.94,5.06,3.62,4.16,5.76-.76,1.84-2.69,2.43-5.11,1.8Zm-1.79-6.7c-1.34,.56-2.39,1.89-3.06,3.21,.42,.67,1.32,1.53,2.52,1.97,1.55,.56,3.12,.4,4.22-1.57,1.09-1.91-.11-3.41-1.09-3.7-.9-.28-1.69-.27-2.58,.09Z"/>
      <path class="cls-24" d="M1596.35,1579.23c1.37,1.19,.3,1.97,.08,2.99-.03,.23-.16,.26-.79-.04-1.15-.54-2.09-1.38-2.02-2.26,.05-.71,.82-1.36,.1-1.77-.88-.51-3.3,.15-4.15,1.74-1.01,1.99,.84,4.12,3.34,4.79,3.56,.94,5.67-.12,6.67-1.11,.12-.13,.49-.05,.77,.22,.22,.22,.34,.75-.06,1.18-.92,.94-3.68,1.2-6.88,.4-5.34-1.34-8.59-4.65-7.34-6.9,1.24-2.19,4.88-2.33,7.34-1.1,1.32,.66,2.18,1.2,2.96,1.86Z"/>
      <path class="cls-24" d="M895.8,1256.28c1.78,.43,3.42-.48,4.2-1.65,.12-.15,.43-.07,.69,.16,.27,.25,.6,.86,.33,1.32-.59,.95-2.73,1.44-5.18,.74-2.4-.69-3.92-1.69-4.43-2.76-.97,.54-2.54,.87-4.61,.33-4.09-1.08-6.26-4.19-3.96-5.98,2.21-1.74,5.23-1.84,7.43-1.26,1.8,.47,3.02,1.41,3.37,2.25,1.25-1.73,3.1-3.95,4.13-4.7,.29-.2,.69-.08,1.05,.28,.97,.91,1.31,1.86,.29,3.09-1.17,1.41-3.59,4.07-4.63,5.91-.55,1.01-.15,1.94,1.32,2.29Zm-9.63-6.17c-1.44,1.34-.97,3.2,.75,3.68,1.77,.49,3.5-.24,4.57-1.78,1.34-1.87,1.31-3.13,.02-3.49-1.37-.38-3.89,.21-5.35,1.59Z"/>
    </g>
    <g class="cls-36">
      <path class="cls-24" d="M1652.56,885.71c19.65,0,39.83,2.36,58.36,6.83,35.25,8.51,53.08,21.82,55.11,31.23,.3,1.41,1.23,5.71-5.74,11.14-11.67,9.09-36.45,14.52-66.28,14.52-19.82,0-40.15-2.4-58.79-6.93-34.93-8.5-52.64-21.76-54.68-31.12-.31-1.4-1.24-5.66,5.57-11.04,11.6-9.17,36.44-14.65,66.45-14.65h0m0-6c-30.27,0-57.03,5.55-70.17,15.94-21.49,16.99,1.5,40.55,51.41,52.69,19.7,4.79,40.67,7.1,60.21,7.1,30.08,0,56.73-5.48,69.97-15.79,21.88-17.05-1.27-40.79-51.65-52.94-19.6-4.73-40.41-7-59.77-7h0Z"/>
      <path class="cls-24" d="M1025.54,893.39v6c18.83,0,38.21,2.32,56.06,6.7,34.02,8.36,51.33,21.41,53.39,30.65,.3,1.35,1.22,5.48-5.17,10.65-10.89,8.82-34.37,14.08-62.8,14.08-18.99,0-38.51-2.35-56.46-6.79-33.72-8.35-50.91-21.36-52.99-30.54-.3-1.34-1.23-5.43,5.02-10.55,10.83-8.89,34.36-14.19,62.95-14.19v-6m0,0c-28.95,0-54.41,5.42-66.76,15.56-20.23,16.6,2.28,39.66,50.34,51.56,19,4.7,39.17,6.97,57.9,6.97,28.77,0,54.13-5.35,66.57-15.41,20.6-16.67-2.07-39.88-50.56-51.79-18.91-4.64-38.92-6.87-57.49-6.87h0Z"/>
      <path class="cls-24" d="M1169.67,682.68v6s0,0,0,0c18.63,0,37.76,2.22,55.34,6.43,34.43,8.24,52.01,21.4,54.15,30.79,.32,1.42,1.31,5.72-5.37,11.17-11.25,9.17-36.43,14.86-65.72,14.86-18.79,0-38.07-2.25-55.75-6.52-34.13-8.24-51.58-21.34-53.74-30.68-.32-1.4-1.31-5.67,5.21-11.06,11.18-9.24,36.42-14.98,65.87-14.98v-6m0,0c-30.15,0-56.84,5.73-69.7,16.36-20.66,17.08,2.12,40.42,50.94,52.2,18.72,4.52,38.59,6.69,57.16,6.69,29.97,0,56.55-5.65,69.51-16.21,21.04-17.15-1.9-40.65-51.17-52.44-18.63-4.46-38.33-6.59-56.74-6.59h0Z"/>
      <path class="cls-24" d="M1448.73,1003.62c19.59,0,39.75,2.41,58.29,6.96,34.77,8.54,52.35,21.74,54.35,31.04,.29,1.37,1.19,5.53-5.51,10.77-11.22,8.77-35.14,14.01-63.96,14.01-19.76,0-40.07-2.44-58.71-7.06-34.47-8.54-51.92-21.68-53.93-30.93-.29-1.35-1.19-5.48,5.35-10.66,11.15-8.85,35.13-14.13,64.13-14.13h0m0-6c-29.34,0-55.16,5.36-67.85,15.43-20.99,16.65,1.75,39.95,50.87,52.12,19.71,4.88,40.7,7.23,60.16,7.23,29.16,0,54.87-5.29,67.66-15.28,21.38-16.71-1.53-40.19-51.1-52.36-19.62-4.82-40.43-7.14-59.73-7.14h0Z"/>
      <g>
        <line class="cls-5" x1="1066.72" y1="895.6" x2="1136.71" y2="795.21"/>
        <polygon class="cls-24" points="1145.3 821.74 1132.47 801.29 1108.85 796.32 1157.2 765.83 1145.3 821.74"/>
      </g>
      <g>
        <line class="cls-5" x1="1220.35" y1="757.58" x2="1396.46" y2="961.24"/>
        <polygon class="cls-24" points="1368.63 963.03 1391.61 955.64 1402.24 933.96 1419.88 988.34 1368.63 963.03"/>
      </g>
      <g>
        <line class="cls-5" x1="1253.16" y1="751.35" x2="1563.71" y2="871.11"/>
        <polygon class="cls-24" points="1539.99 885.77 1556.79 868.44 1555.98 844.31 1597.13 883.99 1539.99 885.77"/>
      </g>
      <path class="cls-24" d="M1175.8,701.02c12.39,0,25.11,1.48,36.78,4.28,22.17,5.31,33.64,13.68,34.9,19.21,.17,.73,.61,2.65-2.92,5.53-7.22,5.9-23.68,9.56-42.95,9.56-12.46,0-25.25-1.49-36.97-4.32-22.04-5.31-33.45-13.66-34.72-19.17-.17-.72-.61-2.63,2.86-5.49,7.19-5.93,23.67-9.61,43.02-9.61h0m0-6c-20.25,0-38.18,3.84-46.83,10.98-13.93,11.49,1.4,27.2,34.27,35.12,12.58,3.03,25.91,4.49,38.38,4.49,20.16,0,38.05-3.81,46.75-10.91,14.1-11.52-1.3-27.3-34.38-35.23-12.54-3-25.79-4.44-38.19-4.44h0Z"/>
      <path class="cls-24" d="M1031.5,910.3c13.16,0,26.72,1.62,39.19,4.69,23.12,5.69,35.05,14.51,36.35,20.3,.17,.76,.63,2.79-3.02,5.75-7.27,5.89-23.83,9.56-43.23,9.56-13.25,0-26.87-1.64-39.39-4.73-22.98-5.68-34.85-14.48-36.15-20.24-.17-.76-.63-2.77,2.95-5.71,7.23-5.93,23.83-9.61,43.3-9.61h0m0-6c-20.41,0-38.38,3.82-47.1,10.97-14.32,11.73,1.59,28.02,35.56,36.42,13.4,3.31,27.62,4.91,40.83,4.91,20.32,0,38.24-3.78,47.01-10.9,14.5-11.76-1.48-28.13-35.67-36.54-13.36-3.28-27.5-4.86-40.63-4.86h0Z"/>
      <g class="cls-17">
        <path class="cls-24" d="M1815.23,879.28c-8.59,6.71-31.57,8.28-51.3,3.53-19.71-4.75-28.76-14.02-20.22-20.73,8.55-6.71,31.5-8.31,51.26-3.57,19.79,4.75,28.86,14.05,20.26,20.77Z"/>
      </g>
      <g class="cls-17">
        <path class="cls-24" d="M1893.2,924.72c-8.64,6.69-31.7,8.23-51.5,3.45s-28.83-14.06-20.24-20.75c8.6-6.69,31.64-8.26,51.46-3.49,19.85,4.78,28.93,14.09,20.28,20.79Z"/>
      </g>
      <g class="cls-17">
        <path class="cls-24" d="M1660.74,1092.28c-8.41,6.52-30.97,7.9-50.38,3.1s-28.33-13.95-19.97-20.47,30.9-7.93,50.35-3.13c19.46,4.8,28.43,13.98,20.01,20.5Z"/>
      </g>
      <g class="cls-17">
        <path class="cls-24" d="M1581.18,1117.66c-8.34,6.48-30.75,7.84-50.06,3.04-19.28-4.79-28.19-13.92-19.9-20.39s30.69-7.87,50.02-3.08,28.28,13.94,19.94,20.43Z"/>
      </g>
      <g class="cls-17">
        <path class="cls-24" d="M1454.86,1101.92c-8.24,6.46-30.47,7.83-49.64,3.06-19.15-4.77-28.02-13.86-19.83-20.32,8.2-6.47,30.41-7.86,49.61-3.09,19.22,4.77,28.12,13.88,19.87,20.35Z"/>
      </g>
      <line class="cls-2" x1="1755.98" y1="880.38" x2="1730.04" y2="891.67"/>
      <line class="cls-2" x1="1818.97" y1="916.03" x2="1768.65" y2="915.63"/>
      <line class="cls-2" x1="1553.39" y1="1060.77" x2="1593.05" y2="1073.23"/>
      <line class="cls-2" x1="1530.96" y1="1094.56" x2="1506.53" y2="1071.87"/>
      <line class="cls-2" x1="1431.41" y1="1080.51" x2="1442" y2="1067.54"/>
    </g>
    <g class="cls-38">
      <g>
        <path class="cls-24" d="M1330.97,184.58c-3.59-11.38,2.38-15.75,13.84-12.88,11.47,2.88,21.52,11.27,25.24,22.68,3.81,11.71-2.1,16.29-13.68,13.38s-21.72-11.51-25.4-23.19Zm29.99,7.53c-2.57-7.97-8.13-13.48-14.43-15.07s-8.99,1.87-6.46,9.82c2.75,8.65,8.31,14.18,14.66,15.77s9.03-1.87,6.23-10.52Zm-9.25,13.82l8.94,1.7c2.5,3.72,7.18,6.15,11.95,7.34,1.53,.38,2.78,.44,3.7,.39l3.13,5.18c-1.46,.14-3.5,0-6.2-.68-9.56-2.4-17.08-7.91-21.51-13.93Z"/>
        <path class="cls-24" d="M1380.13,200.86l-7.04-21.47,8.84,2.22,7.25,21.95c1.87,5.68,6.01,8.97,11.31,10.3,5.35,1.34,7.96-.25,6.06-5.94l-7.35-21.97,8.48,2.13,7.25,21.53c3.23,9.59-1.67,12.45-12.63,9.7s-19.04-8.88-22.17-18.44Z"/>
        <path class="cls-24" d="M1420.86,191.38l31.7,7.96,1.81,5.2-22.94-5.76,3.05,8.91,19.48,4.89,1.82,5.24-19.51-4.9,3.56,10.38,23.86,5.99,1.84,5.29-32.78-8.23-11.9-34.97Z"/>
        <path class="cls-24" d="M1464.79,202.41l16.53,4.15c10.25,2.57,19.14,7.13,21.96,14.95,2.72,7.55-4.06,8.96-14.37,6.38l-7.73-1.94,4.88,13.79-8.93-2.24-12.34-35.08Zm21.42,20.24c6.8,1.71,9.77,.62,8.36-3.34s-5.62-6.34-12.4-8.04l-6.79-1.7,4.02,11.37,6.81,1.71Zm5.49,1l22.44,23.13-9.97-2.5-17.55-18.49,5.08-2.14Z"/>
        <path class="cls-24" d="M1530.48,239.7l-24.64-26.99,9.36,2.35,9.61,10.91c2.67,3.14,5.23,6.15,8.06,9.4l.3,.08c.72-2.36,1.54-4.52,2.24-6.82l2.59-7.84,9.11,2.29-7.79,18.85,4.54,12.32-8.88-2.23-4.51-12.31Z"/>
      </g>
      <g>
        <path class="cls-24" d="M1182.33,320.09l-4.1-15.6,6.22,1.56,4.22,15.94c1.09,4.12,3.89,6.48,7.61,7.41s5.68-.23,4.58-4.35l-4.27-15.96,5.96,1.5,4.21,15.63c1.87,6.94-1.75,9.05-9.43,7.13-7.71-1.93-13.17-6.32-14.99-13.25Z"/>
        <path class="cls-24" d="M1215.43,334.41l2.77-2.21c3.12,2.4,6.88,4.43,10.54,5.35,4.07,1.02,5.86,.25,5.37-1.53-.63-2.27-3.18-3.47-6.88-5.37l-5.21-2.72c-3.95-1.96-8.26-4.87-9.27-8.58-1.09-4.02,3.05-5.86,10.14-4.08,4.26,1.07,8.61,3.28,12.02,6l-2.37,2.06c-2.75-1.96-5.37-3.36-8.87-4.24-3.3-.83-5.23-.31-4.72,1.56,.54,1.97,3.51,3.39,6.92,5.06l4.97,2.59c4.78,2.36,8.46,5.07,9.48,8.75,1.15,4.14-2.68,6.4-10.86,4.35-4.92-1.23-9.95-3.77-14.02-6.99Z"/>
        <path class="cls-24" d="M1243.7,320.91l22.28,5.59,1.08,3.78-16.12-4.04,1.82,6.48,13.68,3.43,1.08,3.81-13.69-3.43,2.12,7.53,16.73,4.2,1.09,3.83-22.97-5.76-7.11-25.41Z"/>
        <path class="cls-24" d="M1274.58,328.66l11.62,2.91c7.21,1.81,13.36,5.07,15.02,10.75,1.61,5.48-3.29,6.55-10.52,4.74l-5.43-1.36,2.89,9.99-6.26-1.57-7.32-25.47Zm14.42,14.62c4.77,1.2,6.94,.38,6.1-2.49-.85-2.91-3.74-4.58-8.5-5.78l-4.77-1.2,2.39,8.26,4.78,1.2Zm3.87,.69l14.98,16.67-6.99-1.75-11.7-13.33,3.71-1.59Z"/>
      </g>
      <g>
        <path class="cls-24" d="M1420.21,377.46c-2.72-8.44,1.35-11.76,9.41-9.74s15.23,8.17,18.01,16.62-1.19,12.11-9.3,10.07-15.33-8.31-18.12-16.95Zm21.04,5.28c-1.94-5.9-5.91-9.95-10.34-11.06s-6.23,1.49-4.32,7.38c1.97,6.07,5.98,10.23,10.43,11.34s6.22-1.58,4.23-7.66Z"/>
        <path class="cls-24" d="M1450.18,373.31l11.62,2.91c7.2,1.81,13.44,5.1,15.38,10.84,1.87,5.54-2.91,6.65-10.14,4.84l-5.42-1.36,3.37,10.11-6.26-1.57-8.54-25.78Zm14.99,14.76c4.77,1.2,6.87,.37,5.89-2.54-.99-2.95-3.93-4.63-8.69-5.82l-4.77-1.2,2.78,8.36,4.78,1.2Zm3.85,.68l15.64,16.84-6.99-1.75-12.23-13.46,3.58-1.62Z"/>
        <path class="cls-24" d="M1481.78,381.23l9.1,2.28c10.25,2.57,17.87,8.36,20.82,16.89,2.97,8.6-1.67,11.55-11.66,9.04l-9.49-2.38-8.76-25.83Zm16.26,24.28c6.67,1.67,9.47-.34,7.27-6.71s-6.92-10.01-13.55-11.68l-2.54-.64,6.27,18.39,2.55,.64Z"/>
        <path class="cls-24" d="M1514.96,389.56l22.28,5.59,1.36,3.86-16.11-4.04,2.3,6.6,13.67,3.43,1.37,3.88-13.69-3.43,2.68,7.68,16.72,4.2,1.38,3.9-22.97-5.76-9-25.89Z"/>
        <path class="cls-24" d="M1545.83,397.3l11.61,2.91c7.2,1.81,13.49,5.11,15.58,10.89,2.01,5.58-2.7,6.7-9.93,4.89l-5.42-1.36,3.63,10.18-6.26-1.57-9.21-25.94Zm15.3,14.84c4.77,1.2,6.83,.36,5.78-2.57s-4.03-4.65-8.79-5.85l-4.77-1.2,3,8.41,4.78,1.2Zm3.84,.68l16.01,16.93-6.99-1.75-12.52-13.53,3.51-1.64Z"/>
      </g>
      <g>
        <path class="cls-24" d="M1718.46,440.01l11.41,2.86c7.6,1.91,14.04,5.32,16.48,11.38s-2.34,7.08-9.86,5.19l-5.26-1.32,3.86,9.68-6.22-1.56-10.41-26.23Zm16.04,15.57c5.18,1.3,7.03,.35,5.74-2.86-1.3-3.23-4.33-4.99-9.38-6.26l-4.75-1.19,3.63,9.12,4.76,1.19Z"/>
        <path class="cls-24" d="M1750.11,447.95l11.61,2.91c7.2,1.81,13.59,5.13,15.99,10.99,2.32,5.65-2.25,6.81-9.48,5l-5.42-1.36,4.19,10.31-6.25-1.57-10.63-26.29Zm15.96,15c4.77,1.2,6.74,.33,5.53-2.63-1.23-3.01-4.25-4.71-9-5.9l-4.77-1.2,3.46,8.53,4.78,1.2Zm3.83,.68l16.78,17.11-6.98-1.75-13.14-13.68,3.35-1.68Z"/>
        <path class="cls-24" d="M1785.14,468.4c-3.55-8.64,.05-12.08,8.11-10.06s15.68,8.28,19.3,16.93c3.7,8.86,.15,12.43-7.96,10.4-8.11-2.03-15.8-8.43-19.44-17.27Zm21.03,5.27c-2.51-6.04-6.82-10.17-11.24-11.28-4.42-1.11-5.9,1.57-3.41,7.6s6.92,10.45,11.36,11.57,5.88-1.67,3.29-7.89Z"/>
        <path class="cls-24" d="M1813.55,463.87l9.09,2.28c10.25,2.57,18.24,8.45,21.95,17.17s-.5,11.83-10.48,9.33l-9.48-2.38-11.07-26.4Zm18.23,24.76c6.67,1.67,9.19-.4,6.43-6.92-2.74-6.47-7.72-10.21-14.35-11.87l-2.54-.64,7.91,18.79,2.55,.64Z"/>
        <path class="cls-24" d="M1851.99,488.08l-6.96-16.31,6.21,1.56,7.14,16.67c1.84,4.3,4.97,6.74,8.68,7.68,3.75,.94,5.35-.32,3.49-4.62l-7.19-16.68,5.96,1.49,7.07,16.34c3.14,7.26,.12,9.52-7.55,7.59-7.7-1.93-13.75-6.47-16.84-13.71Z"/>
        <path class="cls-24" d="M1882.02,492.88c-3.75-8.64,.92-12.03,10.1-9.73,4.29,1.08,8.43,3.5,11.39,5.78l-2.16,2.06c-2.3-1.74-4.74-3.09-7.44-3.76-5.77-1.45-8.16,1.18-5.57,7.11s8.23,10.73,14.18,12.22c2.85,.72,4.67,.28,5.89-.87l4.73,3.74c-1.68,1.81-4.76,2.27-9.43,1.1-8.66-2.17-17.85-8.84-21.68-17.66Z"/>
        <path class="cls-24" d="M1919.55,493.97l-10.95-2.75-1.74-3.95,28.05,7.04,1.77,3.96-10.95-2.75,10.08,22.63-6.22-1.56-10.04-22.62Z"/>
      </g>
      <path class="cls-14" d="M1308.18,218.92c-72.3-18.15-118.61,12.14-103.09,69.32"/>
      <path class="cls-14" d="M1604.77,293.36c81.7,20.5,167.37,83.89,192.25,143.39"/>
      <path class="cls-14" d="M1462.05,257.54c24.09,6.05,87.09,68.76,80.86,115.46"/>
      <line class="cls-14" x1="1191.4" y1="369.41" x2="1241.67" y2="561.44"/>
      <line class="cls-14" x1="1431.31" y1="429.58" x2="1494.04" y2="624.7"/>
      <line class="cls-14" x1="1736.02" y1="506.01" x2="1814.56" y2="705.04"/>
      <path class="cls-24" d="M1216.53,383.99l139.71,35.04,2.8,9.26-140.06-35.13-2.45-9.17m-1.4-1.38l3.04,11.38,142.34,35.7-3.48-11.49-141.91-35.59h0Z"/>
      <path class="cls-24" d="M1223.9,411.57l140.76,35.3,2.85,9.43-141.12-35.39-2.5-9.34m-1.4-1.38l3.09,11.55,143.4,35.96-3.53-11.66-142.96-35.85h0Z"/>
      <polygon class="cls-24" points="1377.59 486.13 1233.11 449.9 1229.98 438.17 1374.01 474.29 1377.59 486.13"/>
      <path class="cls-24" d="M1763.43,521.16l139.4,34.96,4.15,9.59-139.75-35.05-3.8-9.51m-1.66-1.45l4.72,11.8,142.21,35.67-5.15-11.91-141.78-35.56h0Z"/>
      <polygon class="cls-24" points="1921.26 596.2 1777.99 560.27 1773.2 548.29 1916.03 584.11 1921.26 596.2"/>
      <path class="cls-24" d="M1786.46,578.75l141.52,35.49,4.31,9.95-141.88-35.58-3.94-9.86m-1.66-1.45l4.86,12.16,144.34,36.19-5.31-12.27-143.9-36.08h0Z"/>
      <path class="cls-24" d="M1798.23,608.19l142.6,35.76,4.39,10.14-142.97-35.85-4.02-10.05m-1.66-1.45l4.93,12.34,145.43,36.46-5.39-12.45-144.98-36.35h0Z"/>
      <path class="cls-24" d="M1810.19,638.08l143.7,36.03,4.47,10.33-144.08-36.12-4.09-10.24m-1.66-1.45l5.01,12.53,146.54,36.74-5.47-12.64-146.08-36.62h0Z"/>
      <path class="cls-24" d="M1822.32,668.43l144.82,36.31,4.55,10.52-145.2-36.4-4.17-10.43m-1.66-1.45l5.09,12.72,147.67,37.02-5.56-12.84-147.2-36.9h0Z"/>
      <path class="cls-24" d="M1491.63,531.97l142.81,35.81,3.61,9.95-143.18-35.9-3.24-9.86m-1.52-1.41l3.97,12.11,145.54,36.49-4.43-12.22-145.08-36.38h0Z"/>
      <polygon class="cls-24" points="1650.42 608.94 1503.78 572.17 1499.74 559.88 1645.93 596.53 1650.42 608.94"/>
      <path class="cls-24" d="M1463.38,445.9l139.57,35.01,3.41,9.41-139.92-35.09-3.06-9.32m-1.52-1.41l3.8,11.57,142.28,35.68-4.23-11.68-141.85-35.58h0Z"/>
      <polygon class="cls-24" points="1618.26 520.21 1474.92 484.26 1471.06 472.52 1613.96 508.36 1618.26 520.21"/>
      <path class="cls-24" d="M1481.92,502.38l141.69,35.53,3.54,9.76-142.06-35.62-3.18-9.67m-1.52-1.41l3.91,11.92,144.42,36.21-4.36-12.03-143.97-36.1h0Z"/>
      <path class="cls-24" d="M1247.82,501.06l144.18,36.15,3.03,10-144.56-36.24-2.65-9.9m-1.4-1.38l3.24,12.11,146.85,36.81-3.7-12.23-146.38-36.7h0Z"/>
      <path class="cls-24" d="M1239.53,470.06l143,35.86,2.97,9.8-143.37-35.95-2.59-9.71m-1.4-1.38l3.19,11.92,145.65,36.52-3.64-12.03-145.2-36.41h0Z"/>
      <path class="cls-11" d="M1376.25,480.31c69.05,13.78,119.77,66.94,124.07,80.04"/>
      <path class="cls-11" d="M1616.56,514.39c34.17-19.1,154.37,27.19,159.49,40"/>
    </g>
    <g class="cls-35">
      <polygon class="cls-24" points="1216.1 1670.12 868.14 1582.69 913.86 1552.28 1283.85 1647.57 1216.1 1670.12"/>
      <polygon class="cls-24" points="1022.52 1663.86 820.47 1614.4 839.4 1601.81 1047.43 1653.27 1022.52 1663.86"/>
      <polygon class="cls-24" points="1294.94 1773.22 1153.12 1739.47 1178.84 1732.3 1324.04 1767.16 1294.94 1773.22"/>
      <polygon class="cls-24" points="1618.08 1771.12 1313.77 1694.66 1387.19 1674.19 1707.73 1756.74 1618.08 1771.12"/>
      <polygon class="cls-24" points="1414.7 1759.86 1236.45 1716.23 1267.25 1707.64 1450.05 1752.85 1414.7 1759.86"/>
      <polygon class="cls-24" points="987.41 1678.79 793.87 1632.1 811.02 1620.69 1010.06 1669.16 987.41 1678.79"/>
      <polygon class="cls-24" points="870.25 1672.15 769.65 1648.21 785.28 1637.81 888.65 1662.63 870.25 1672.15"/>
      <polygon class="cls-24" points="1386.92 1775.16 1296.91 1753.45 1327.59 1746.48 1419.76 1768.93 1386.92 1775.16"/>
      <polygon class="cls-24" points="974.64 1696.99 877.18 1673.8 895.76 1664.34 995.82 1688.36 974.64 1696.99"/>
      <polygon class="cls-24" points="1285.93 1750.8 1192.94 1728.37 1221.02 1720.53 1316.34 1743.74 1285.93 1750.8"/>
      <polygon class="cls-24" points="1040.27 1691.54 993.94 1680.36 1016.76 1670.79 1064.35 1682.38 1040.27 1691.54"/>
    </g>
  </g>
  <g id="Layer_4" data-name="Layer 4">
    <g class="cls-35">
      <path class="cls-24" d="M2066.45,829.92l-952.9-245.42h0c-9.53-172.04-63.53-332.49-155.05-460.67L871.26,1.65l952.9,245.42,87.23,122.18c91.52,128.18,145.53,288.63,155.05,460.67h0Z"/>
      <path class="cls-37" d="M873.67,3.31l949.89,244.65,87.02,121.88c45.49,63.71,81.87,135.58,108.14,213.63,26.13,77.64,41.82,160.11,46.65,245.16l-950.87-244.9c-4.8-85.45-20.54-168.32-46.79-246.32-26.33-78.23-62.8-150.28-108.41-214.15L873.67,3.31m-2.41-1.65l87.23,122.18c91.52,128.18,145.53,288.63,155.05,460.67h0s952.9,245.42,952.9,245.42h0c-9.53-172.04-63.53-332.49-155.05-460.67l-87.23-122.18L871.26,1.65h0Z"/>
    </g>
    <g class="cls-22">
      <path class="cls-24" d="M625.69,964.33l84.11-44.09c77.84-40.8,151.7-89.82,219.54-145.69,67.75-55.8,129.95-118.82,184.86-187.3l951.84,245.15c-54.8,68.29-116.84,131.14-184.43,186.8-67.78,55.83-141.59,104.81-219.37,145.57l-85.09,44.6-951.46-245.05Z"/>
      <path d="M1114.39,587.82l950.78,244.87c-54.66,68.03-116.51,130.64-183.87,186.12-67.76,55.81-141.53,104.77-219.28,145.52l-84.92,44.51-950.01-244.68,82.96-43.49c77.87-40.82,151.76-89.85,219.62-145.75,67.7-55.76,129.84-118.71,184.73-187.12m-.38-1.13h0c-110.39,137.75-248.09,251.16-404.44,333.11l-85.27,44.69,952.9,245.42,85.27-44.69c156.35-81.95,294.05-195.36,404.44-333.11h0s-952.9-245.42-952.9-245.42h0Z"/>
    </g>
    <g class="cls-29">
      <path class="cls-24" d="M880.22,1499.73c-16.42-80.89-41.45-160.28-74.37-235.97-32.97-75.78-74.06-148.3-122.13-215.52l-57.73-80.74,951.4,245.03,58.42,81.71c48.03,67.17,89.08,139.62,122.02,215.34,32.84,75.47,57.8,154.63,74.21,235.29l-951.83-245.14Z"/>
      <path d="M627.19,968.33l949.89,244.64,58.31,81.56c48.01,67.14,89.04,139.56,121.97,215.25,32.72,75.2,57.62,154.06,74.02,234.41l-950.75-244.87c-16.43-80.82-41.44-160.13-74.34-235.76-32.99-75.81-74.09-148.36-122.18-215.61l-56.93-79.62m-2.41-1.65l58.53,81.86c96.55,135.03,163.5,288.92,196.48,451.61h0s952.9,245.42,952.9,245.42h0c-32.98-162.69-99.94-316.57-196.48-451.61l-58.53-81.86-952.9-245.42h0Z"/>
    </g>
  </g>
</svg>