<?xml version="1.0" encoding="UTF-8"?>
<svg xmlns="http://www.w3.org/2000/svg" xmlns:xlink="http://www.w3.org/1999/xlink" viewBox="0 0 2107.64 2267.17">
  <defs>
    <style>
      .cls-1, .cls-2, .cls-3, .cls-4, .cls-5, .cls-6, .cls-7, .cls-8, .cls-9, .cls-10, .cls-11 {
        fill: none;
      }

      .cls-2 {
        stroke-linecap: round;
      }

      .cls-2, .cls-3 {
        stroke-width: 3px;
      }

      .cls-2, .cls-3, .cls-12, .cls-13, .cls-14, .cls-15, .cls-16, .cls-17, .cls-18, .cls-19, .cls-20, .cls-4, .cls-21, .cls-5, .cls-6, .cls-7, .cls-8, .cls-10, .cls-11 {
        stroke-miterlimit: 10;
      }

      .cls-2, .cls-3, .cls-12, .cls-13, .cls-14, .cls-15, .cls-17, .cls-18, .cls-19, .cls-20, .cls-21, .cls-5, .cls-7 {
        stroke: #000;
      }

      .cls-22 {
        fill: url(#linear-gradient);
      }

      .cls-23 {
        clip-path: url(#clippath);
      }

      .cls-12 {
        fill: url(#linear-gradient-2);
      }

      .cls-12, .cls-13, .cls-14, .cls-17, .cls-18, .cls-19, .cls-20, .cls-7, .cls-8 {
        stroke-width: 4px;
      }

      .cls-13 {
        fill: url(#linear-gradient-4);
      }

      .cls-14 {
        fill: url(#linear-gradient-6);
      }

      .cls-24 {
        fill: #f9d58a;
      }

      .cls-25, .cls-20 {
        fill: #f8d171;
      }

      .cls-26, .cls-15, .cls-21 {
        fill: #e6e6e6;
      }

      .cls-27 {
        fill: #f78269;
      }

      .cls-28, .cls-18 {
        fill: #f77757;
      }

      .cls-29, .cls-16, .cls-17 {
        fill: #fff;
      }

      .cls-30, .cls-19 {
        fill: #31b6a6;
      }

      .cls-31 {
        fill: #82ba5d;
      }

      .cls-32 {
        fill: #4d4d4d;
      }

      .cls-15, .cls-16, .cls-5, .cls-6 {
        stroke-width: 2px;
      }

      .cls-16, .cls-6, .cls-8 {
        stroke: #999;
      }

      .cls-4 {
        stroke-width: 5px;
      }

      .cls-4, .cls-10, .cls-11 {
        stroke: #fff;
      }

      .cls-33 {
        clip-path: url(#clippath-1);
      }

      .cls-34 {
        clip-path: url(#clippath-4);
      }

      .cls-35 {
        clip-path: url(#clippath-3);
      }

      .cls-36 {
        clip-path: url(#clippath-2);
      }

      .cls-37 {
        clip-path: url(#clippath-7);
      }

      .cls-38 {
        clip-path: url(#clippath-8);
      }

      .cls-39 {
        clip-path: url(#clippath-6);
      }

      .cls-40 {
        clip-path: url(#clippath-5);
      }

      .cls-41 {
        clip-path: url(#clippath-9);
      }

      .cls-42 {
        fill: url(#Grid_1cm_Lines);
      }

      .cls-43 {
        clip-path: url(#clippath-14);
      }

      .cls-44 {
        clip-path: url(#clippath-13);
      }

      .cls-45 {
        clip-path: url(#clippath-12);
      }

      .cls-46 {
        clip-path: url(#clippath-10);
      }

      .cls-47 {
        clip-path: url(#clippath-15);
      }

      .cls-48 {
        clip-path: url(#clippath-17);
      }

      .cls-49 {
        clip-path: url(#clippath-16);
      }

      .cls-50 {
        clip-path: url(#clippath-11);
      }

      .cls-51 {
        clip-path: url(#clippath-18);
      }

      .cls-52 {
        fill: url(#linear-gradient-3);
      }

      .cls-53 {
        fill: url(#linear-gradient-5);
      }

      .cls-54 {
        opacity: .15;
      }

      .cls-55 {
        opacity: .2;
      }

      .cls-9 {
        stroke: #231f20;
        stroke-width: .3px;
      }

      .cls-56 {
        opacity: .3;
      }

      .cls-57 {
        opacity: .4;
      }

      .cls-58 {
        opacity: .6;
      }

      .cls-59 {
        opacity: .5;
      }

      .cls-60 {
        opacity: .9;
      }

      .cls-10 {
        stroke-width: 7px;
      }

      .cls-11 {
        stroke-width: 9px;
      }

      .cls-61 {
        fill-rule: evenodd;
      }
    </style>
    <pattern id="Grid_1cm_Lines" data-name="Grid 1cm Lines" x="0" y="0" width="56.69" height="56.69" patternTransform="translate(2944.07 2931.1) scale(1.41)" patternUnits="userSpaceOnUse" viewBox="0 0 56.69 56.69">
      <g>
        <rect class="cls-1" x="0" y="0" width="56.69" height="56.69"/>
        <g>
          <line class="cls-9" x1="42.52" y1="113.63" x2="42.52" y2="56.44"/>
          <line class="cls-9" x1="14.17" y1="56.44" x2="14.17" y2="113.63"/>
        </g>
        <g>
          <line class="cls-9" x1="113.63" y1="14.17" x2="56.44" y2="14.17"/>
          <line class="cls-9" x1="56.44" y1="42.52" x2="113.63" y2="42.52"/>
        </g>
        <g>
          <line class="cls-9" x1="56.94" y1="14.17" x2="-.25" y2="14.17"/>
          <line class="cls-9" x1="-.25" y1="42.52" x2="56.94" y2="42.52"/>
          <line class="cls-9" x1="42.52" y1="56.94" x2="42.52" y2="-.25"/>
          <line class="cls-9" x1="14.17" y1="-.25" x2="14.17" y2="56.94"/>
        </g>
        <g>
          <line class="cls-9" x1=".25" y1="14.17" x2="-56.94" y2="14.17"/>
          <line class="cls-9" x1="-56.94" y1="42.52" x2=".25" y2="42.52"/>
        </g>
        <g>
          <line class="cls-9" x1="42.52" y1=".25" x2="42.52" y2="-56.94"/>
          <line class="cls-9" x1="14.17" y1="-56.94" x2="14.17" y2=".25"/>
        </g>
      </g>
    </pattern>
    <clipPath id="clippath">
      <path class="cls-16" d="M840.17,490.17h0c7.56,56,86.16,87.25,139.33,55.4h0s0,0,0,0c-27.11,49.83,24.56,108.48,91.6,103.96h0s0,0,0,0c-54.52,30.31-43.62,100.64,19.33,124.67h0s0,0,0,0c-67.32,2.67-100.12,65.84-58.12,111.97h0s-22.18-9.18-22.18-9.18c-52.13-21.57-107.55,22.87-97.82,78.45h0s-8.14-9.55-8.14-9.55c-39.81-46.69-114.39-37.44-141.58,17.56h0s0,0,0,0c-8.21-60.8-75.93-93.38-128.56-61.85l-10.77,6.45h0c26.97-49.56-11.36-109.37-67.65-105.58l-23.95,1.61h0c49.53-27.53,44.32-100.38-8.62-120.58l-10.71-4.09h0c67.32-2.67,100.12-65.84,58.12-111.97h0s0,0,0,0c62.08,25.69,129.78-13.39,120-69.27h0s0,0,0,0c40.21,47.16,124.68,42.64,149.72-8.01h0Z"/>
    </clipPath>
    <clipPath id="clippath-1">
      <path class="cls-26" d="M1345.34,1726.34c-128.9,0-536.62-184.97-614.62-268.08,23.97,160.83,269.29,442.44,614.62,268.08Z"/>
    </clipPath>
    <clipPath id="clippath-2">
      <path class="cls-25" d="M1109.18,2098.23c36.4-63.58,54.23-141.23,25.07-211.65-15.07-36.4-41.65-68.59-58.31-104.51-33.5-72.26-22-157.82,29.01-215.75,51.01-57.93,130.85-128.39,214.49-113.07l-32.18-10c-83.64-15.32-163.48,55.14-214.49,113.07-51.01,57.93-62.51,143.49-29.01,215.75,16.65,35.91,43.23,68.11,58.31,104.51,29.16,70.42,11.33,148.07-25.07,211.65l32.18,10Z"/>
    </clipPath>
    <clipPath id="clippath-3">
      <path class="cls-19" d="M694.21,1546.34c-51.91-13.29-100.87-44.36-138.04-98.36-22.16-32.17-40.77-72.74-64.56-100.77-.24-.29-.5-.59-.74-.86-5.01-5.82-10.24-11.09-15.8-15.59,9.23-.39,18.5,1.35,27.5,5.54,11.09,5.15,20.94,13.26,30.01,23.28,.57,.62,1.13,1.25,1.7,1.91,24.65,28.08,43.62,69.82,66.32,102.79,26.33,38.25,58.59,65,93.61,82.07Z"/>
    </clipPath>
    <clipPath id="clippath-4">
      <path class="cls-19" d="M1147.17,1320.75c-78.35,148.68-181.32,229.72-308.9,247.1-48.09,6.55-98.43,.72-144.06-21.52,32.78,8.39,66.74,9.71,99.63,5.23,127.58-17.38,230.55-98.42,308.9-247.1l44.43,16.29Z"/>
    </clipPath>
    <clipPath id="clippath-5">
      <path class="cls-18" d="M1414.36,1849.36c-46.96,15.46-77.34,5.4-103.35-7.31-5.6-2.73-11.01-5.59-16.33-8.35-.04-.03-.08-.04-.12-.07-23.85-14.28-45.61-36.66-60.72-65.52-15.65-29.86-24.28-63.93-28.21-97.23-8.3-70.11,3.92-138.86,33.64-189.16l37.72,.54c-29.72,50.29-41.94,119.05-33.64,189.16,3.94,33.3,12.57,67.37,28.21,97.23,17.36,33.14,43.5,57.74,71.48,71.33,9.46,4.61,19.12,7.95,28.73,9.93,14.63,3.05,29.14,2.96,42.59-.57Z"/>
    </clipPath>
    <clipPath id="clippath-6">
      <path class="cls-18" d="M1769.7,1742.64l-37.72-.54c-5.99-49.04-37.6-90.89-74.58-113.22-11.76-7.12-24.07-12.24-36.26-15,3.39-.68,6.85-1.18,10.36-1.49,22.24-2.02,46.66,5.65,68.76,20.28,1.45,.99,2.92,1.99,4.39,3.02,.07,.04,.14,.1,.22,.16h0c32.67,23.42,59.37,62.12,64.83,106.79Z"/>
    </clipPath>
    <linearGradient id="linear-gradient" x1="1290.35" y1="680.36" x2="1097.46" y2="820.94" gradientUnits="userSpaceOnUse">
      <stop offset="0" stop-color="#f77757"/>
      <stop offset=".09" stop-color="#f78059"/>
      <stop offset=".25" stop-color="#f79961"/>
      <stop offset=".44" stop-color="#f7c26c"/>
      <stop offset=".5" stop-color="#f8d171"/>
      <stop offset="1" stop-color="#31b6a6"/>
    </linearGradient>
    <clipPath id="clippath-7">
      <path class="cls-22" d="M1288.84,633.85c-11.13-5.44-24.09-10.34-41.2-13.42-1.76-.32-3.56-.62-5.42-.89-2.28-.35-4.63-.66-7.05-.94-69-7.9-125.78,19.95-147.69,32.3-65.36,36.9-169.38,133.18-153.5,247.84,3.98,28.73,15.08,55.66,30.8,79.29,15.78,23.79,36.23,44.21,58.77,59.72,21.75,14.97,45.43,25.36,68.72,29.76,7.69,1.45,14.99,2.19,22.02,2.36l1.13,.7c-65.57-4.28-129.85-34.64-175.5-71.82-.24-.18-.48-.38-.7-.56-5.52-4.53-10.78-9.16-15.71-13.84-.06-.06-.11-.1-.15-.14-17.28-16.77-31.96-36.54-42.77-57.9-9.34-18.45-15.81-38.09-18.56-58.04-15.88-114.67,88.14-210.95,153.5-247.86,21.9-12.36,78.69-40.2,147.7-32.3,12.51,1.43,23.02,3.76,32.18,6.64,35.97,9.34,68.3,26.38,93.45,39.1Z"/>
    </clipPath>
    <clipPath id="clippath-8">
      <path class="cls-17" d="M931.99,898.75c3.98,28.73,15.08,55.66,30.8,79.29,15.78,23.79,36.23,44.21,58.77,59.72,21.75,14.97,45.43,23.36,68.72,27.76,7.69,1.45,16.12,2.89,23.15,3.06h0c-62.01-4.05-133.41-35.54-175.5-69.82-.24-.18-.48-.38-.7-.56-5.52-4.53-10.78-9.16-15.71-13.84-.06-.06-.11-.1-.15-.14-17.28-16.77-31.96-36.54-42.77-57.9-9.34-18.45-15.81-38.09-18.56-58.04"/>
    </clipPath>
    <linearGradient id="linear-gradient-2" x1="1906.03" y1="214.01" x2="1528.91" y2="488.86" xlink:href="#linear-gradient"/>
    <linearGradient id="linear-gradient-3" x1="1441.49" y1="587.58" x2="1317.85" y2="677.69" xlink:href="#linear-gradient"/>
    <linearGradient id="linear-gradient-4" x1="1441.49" y1="587.58" x2="1317.85" y2="677.69" xlink:href="#linear-gradient"/>
    <clipPath id="clippath-9">
      <path class="cls-13" d="M1471.48,634.68c-37.43,24.55-77.06,34.15-112.98,29.37l-5.59-1.14c-2.81-.58-5.54-1.49-8.14-2.71l-59.74-27.56c35.59,3.95,74.28-9.46,111.81-33.84,1.31-.85,2.83-1.31,4.39-1.31h0c1.16,0,2.31,.25,3.37,.74l66.45,30.62c.92,.42,1.6,1.24,1.84,2.22h0c.35,1.38-.21,2.83-1.4,3.61Z"/>
    </clipPath>
    <clipPath id="clippath-10">
      <path class="cls-26" d="M1354.12,1118.28c12.05-22.54,29.42-115.52,29.42-258.27-29.42-26.15-314.67-174.52-629.33-268.08-101.44,75.19-119.09,123.47-165.1,199.42,222.22,89.68,395.12,174.91,765.01,326.93Z"/>
    </clipPath>
    <clipPath id="clippath-11">
      <path id="top-cap-2" data-name="top-cap" class="cls-15" d="M1674.55,719.69c-11.12-39.16-449.15-232.7-637.68-270.29,44.95-24.54,199.24-99.19,384.68-28.33,134.04,51.22,222.48,168.95,252.99,298.63Z"/>
    </clipPath>
    <clipPath id="clippath-12">
      <path class="cls-29" d="M1317.44,1055c-3.8-.84-7.49-1.59-11.06-2.31-30.26-6.09-54.96-6.25-76.51-3.69-45.56,5.4-77.09,22.86-117.62,21.68-7.03-.2-14.33-.96-22.02-2.46-23.26-4.5-46.9-14.99-68.59-30.04,16.42,3.58,31.09,4.6,44.65,4.01,58.33-2.49,96.54-34.56,167.77-20.39,.15,.03,.32,.07,.48,.1,23.48,4.74,52.48,10.92,82.89,33.1Z"/>
    </clipPath>
    <clipPath id="clippath-13">
      <path class="cls-29" d="M1394.17,1484.55l-71.84-30.8c7.42-7.94,101.7-111.68,82.59-242.99-.42-2.89-.89-5.79-1.43-8.71-4.47-24.5-21.9-98.73-82.88-144.36-.6-.45-1.19-.88-1.78-1.3-30.42-22.18-59.41-28.36-82.89-33.1-.15-.03-.32-.07-.48-.1,57.98,6.96,121.89,30.73,169.74,75.79,.11,.1,.22,.2,.34,.31,9.28,8.76,17.95,18.35,25.86,28.77,0,0,0,.01,.01,.01,30.12,40.97,40.59,86.57,43.92,104.77,1.03,5.65,1.85,11.25,2.47,16.8,.03,.21,.06,.41,.07,.61,13.85,127.15-76.45,226.51-83.72,234.28Z"/>
    </clipPath>
    <clipPath id="clippath-14">
      <path class="cls-26" d="M1462.01,1573.25c80.64-47.95,136.45-85.02,193.98-202.69-335.6-134.08-584.17-229.61-803.06-344.36-10.84,0-44.77,172.18-18.62,270.26,48.99,24.98,302.95,185.26,627.7,276.8Z"/>
    </clipPath>
    <clipPath id="clippath-15">
      <circle class="cls-18" cx="1756.34" cy="1870.75" r="148.75"/>
    </clipPath>
    <clipPath id="clippath-16">
      <circle class="cls-20" cx="1105.64" cy="2095.48" r="95.13"/>
    </clipPath>
    <clipPath id="clippath-17">
      <circle class="cls-19" cx="333.92" cy="1722" r="138.62"/>
    </clipPath>
    <linearGradient id="linear-gradient-5" x1="1977.12" y1="311.54" x2="1839.82" y2="411.61" xlink:href="#linear-gradient"/>
    <linearGradient id="linear-gradient-6" x1="1977.12" y1="311.54" x2="1839.82" y2="411.61" xlink:href="#linear-gradient"/>
    <clipPath id="clippath-18">
      <path class="cls-14" d="M1845.51,419.43c1.2-1.51,3.35-3.97,4.45-5.36,52.09-66.27,57.43-97.48,58.32-114.35,.57-10.58-.43-19.08-2.06-25.82-1.64-6.75-3.92-11.74-5.92-15.28,7.58,2.21,15.06,4.79,22.4,7.65,16.51,6.43,33.23,14.95,43.01,29.72,2.37,3.58,4.25,7.43,5.71,11.44,3.68,10.17,4.61,21.42,3.86,32.29-3.01,43.43-30.33,81-58.32,114.35l-20.95,25.5"/>
    </clipPath>
  </defs>
  <g id="Layer_3" data-name="Layer 3">
    <g>
      <path class="cls-8" d="M2105.64,1095.48c0,552.28-447.72,1000-1000,1000S105.64,1647.76,105.64,1095.48,553.36,95.48,1105.64,95.48c201.98,0,389.98,59.88,547.2,162.87,21.34,13.98,42.12,28.75,62.28,44.27,46.44,35.75,89.64,75.48,129.09,118.7,17.52,19.16,34.29,39.02,50.28,59.51,33.98,43.54,64.43,89.97,90.92,138.86,12.28,22.66,23.71,45.85,34.25,69.52,55.27,124.14,85.98,261.62,85.98,406.27Z"/>
      <path class="cls-42" d="M2105.64,1095.48c0,552.28-447.72,1000-1000,1000S105.64,1647.76,105.64,1095.48,553.36,95.48,1105.64,95.48c201.98,0,389.98,59.88,547.2,162.87,21.34,13.98,42.12,28.75,62.28,44.27,46.44,35.75,89.64,75.48,129.09,118.7,17.52,19.16,34.29,39.02,50.28,59.51,33.98,43.54,64.43,89.97,90.92,138.86,12.28,22.66,23.71,45.85,34.25,69.52,55.27,124.14,85.98,261.62,85.98,406.27Z"/>
    </g>
  </g>
  <g id="stars">
    <path class="cls-1" d="M392.21,141.11c108.75,0,196.91,88.16,196.91,196.91s-88.16,196.91-196.91,196.91"/>
    <g>
      <path class="cls-29" d="M840.17,490.17h0c7.56,56,86.16,87.25,139.33,55.4h0s0,0,0,0c-27.11,49.83,24.56,108.48,91.6,103.96h0s0,0,0,0c-54.52,30.31-43.62,100.64,19.33,124.67h0s0,0,0,0c-67.32,2.67-100.12,65.84-58.12,111.97h0s-22.18-9.18-22.18-9.18c-52.13-21.57-107.55,22.87-97.82,78.45h0s-8.14-9.55-8.14-9.55c-39.81-46.69-114.39-37.44-141.58,17.56h0s0,0,0,0c-8.21-60.8-75.93-93.38-128.56-61.85l-10.77,6.45h0c26.97-49.56-11.36-109.37-67.65-105.58l-23.95,1.61h0c49.53-27.53,44.32-100.38-8.62-120.58l-10.71-4.09h0c67.32-2.67,100.12-65.84,58.12-111.97h0s0,0,0,0c62.08,25.69,129.78-13.39,120-69.27h0s0,0,0,0c40.21,47.16,124.68,42.64,149.72-8.01h0Z"/>
      <g class="cls-23">
        <g class="cls-54">
          <circle cx="652.45" cy="586.27" r="58.85"/>
        </g>
        <g class="cls-54">
          <circle cx="767.69" cy="539.99" r="44.9"/>
        </g>
        <g class="cls-54">
          <circle cx="853.38" cy="582.89" r="31"/>
        </g>
      </g>
      <path class="cls-6" d="M840.17,490.17h0c7.56,56,86.16,87.25,139.33,55.4h0s0,0,0,0c-27.11,49.83,24.56,108.48,91.6,103.96h0s0,0,0,0c-54.52,30.31-43.62,100.64,19.33,124.67h0s0,0,0,0c-67.32,2.67-100.12,65.84-58.12,111.97h0s-22.18-9.18-22.18-9.18c-52.13-21.57-107.55,22.87-97.82,78.45h0s-8.14-9.55-8.14-9.55c-39.81-46.69-114.39-37.44-141.58,17.56h0s0,0,0,0c-8.21-60.8-75.93-93.38-128.56-61.85l-10.77,6.45h0c26.97-49.56-11.36-109.37-67.65-105.58l-23.95,1.61h0c49.53-27.53,44.32-100.38-8.62-120.58l-10.71-4.09h0c67.32-2.67,100.12-65.84,58.12-111.97h0s0,0,0,0c62.08,25.69,129.78-13.39,120-69.27h0s0,0,0,0c40.21,47.16,124.68,42.64,149.72-8.01h0Z"/>
    </g>
    <g>
      <g>
        <path class="cls-31" d="M659.38,635.12c-29.28,0-53.57-22-56.49-51.18-1.51-15.11,2.95-29.9,12.56-41.66,9.61-11.75,23.23-19.06,38.34-20.58,1.91-.19,3.84-.29,5.74-.29,29.28,0,53.57,22,56.49,51.18,3.13,31.19-19.71,59.11-50.89,62.23-1.91,.19-3.84,.29-5.74,.29Z"/>
        <path d="M659.52,519.42v4h0c13.52,0,26.52,5,36.62,14.09,10.16,9.14,16.51,21.68,17.88,35.3,1.46,14.58-2.84,28.85-12.12,40.19-9.27,11.34-22.41,18.39-36.99,19.85-1.84,.18-3.7,.28-5.54,.28-13.52,0-26.53-5-36.62-14.09-10.16-9.14-16.51-21.68-17.88-35.3-1.46-14.58,2.84-28.85,12.12-40.19,9.27-11.34,22.41-18.39,36.99-19.85,1.84-.18,3.7-.28,5.54-.28v-4m0,0c-1.96,0-3.95,.1-5.94,.3-32.34,3.24-55.93,32.08-52.69,64.42,3.04,30.34,28.62,52.98,58.48,52.98,1.96,0,3.95-.1,5.94-.3,32.34-3.24,55.93-32.08,52.69-64.42-3.04-30.34-28.62-52.98-58.48-52.98h0Z"/>
      </g>
      <g>
        <line class="cls-11" x1="633.47" y1="578.18" x2="654.27" y2="598.18"/>
        <line class="cls-11" x1="694.19" y1="554.06" x2="649.45" y2="600"/>
      </g>
    </g>
    <g>
      <g>
        <circle class="cls-31" cx="774.69" cy="531.99" r="42.9" transform="translate(78.95 1163.73) rotate(-76.72)"/>
        <path d="M774.69,491.08c22.55,0,40.9,18.35,40.9,40.9s-18.35,40.9-40.9,40.9-40.9-18.35-40.9-40.9,18.35-40.9,40.9-40.9m0-4c-24.8,0-44.9,20.1-44.9,44.9s20.1,44.9,44.9,44.9,44.9-20.1,44.9-44.9-20.1-44.9-44.9-44.9h0Z"/>
      </g>
      <g>
        <line class="cls-10" x1="754.97" y1="529.94" x2="769.24" y2="546.71"/>
        <line class="cls-10" x1="802.91" y1="516.25" x2="765.44" y2="547.72"/>
      </g>
    </g>
    <g>
      <g>
        <circle class="cls-31" cx="860.38" cy="576.89" r="29"/>
        <path d="M860.38,549.89c14.89,0,27,12.11,27,27s-12.11,27-27,27-27-12.11-27-27,12.11-27,27-27m0-4c-17.12,0-31,13.88-31,31s13.88,31,31,31,31-13.88,31-31-13.88-31-31-31h0Z"/>
      </g>
      <g>
        <line class="cls-4" x1="846.77" y1="575.48" x2="856.62" y2="587.06"/>
        <line class="cls-4" x1="879.87" y1="566.03" x2="854" y2="587.75"/>
      </g>
    </g>
  </g>
  <g id="bottom">
    <g id="bottom-slice">
      <path class="cls-26" d="M1345.34,1726.34c-128.9,0-536.62-184.97-614.62-268.08,23.97,160.83,269.29,442.44,614.62,268.08Z"/>
      <g class="cls-33">
        <path class="cls-55" d="M974.88,1807.24c-146.31,91.16-258.66,83.29-303.04,12.06-13.29,8.28-107.56-119.05-210.77-284.68,264.55-164.84,488.71-320.19,503.81-295.95-132.12,147.28-120.8,341.64,17.63,563.81"/>
      </g>
    </g>
    <g id="bottom-cap">
      <path class="cls-32" d="M1333.14,1726.9c-44.51,0-169.52-40.01-311.07-99.56-80.38-33.82-155.86-71.38-212.54-105.77-78.09-47.39-79.08-63.15-77.53-66.85,1.4-3.34,7.16-5.1,16.66-5.1,45.51,0,171.89,39.79,307.32,96.76,78.85,33.17,156.81,72.28,213.9,107.29,52.79,32.38,83.02,58.58,78.9,68.38-1.33,3.17-6.74,4.85-15.63,4.85Z"/>
      <path d="M748.66,1448.62v2c21.75,0,63.52,9.33,117.63,26.27,56.06,17.55,121.51,41.9,189.29,70.41,78.81,33.15,156.72,72.23,213.76,107.22,62.63,38.41,81.43,60.17,78.5,67.14-1.15,2.73-6.38,4.24-14.71,4.24-21.59,0-62.69-9.49-118.84-27.46-56.32-18.02-122.66-42.92-191.84-72.02-80.34-33.8-155.77-71.34-212.4-105.7-25.94-15.74-46.71-30.18-60.05-41.76-17.92-15.55-17.91-21.86-17.07-23.85,1.22-2.9,6.81-4.49,15.74-4.49v-2m0,0c-9.87,0-15.95,1.84-17.58,5.72-9.02,21.45,119.97,102.15,290.6,173.93,141.14,59.38,267.05,99.64,311.46,99.64,9.28,0,15-1.76,16.56-5.46,9.02-21.45-122.7-105.2-293.33-176.98-139.83-58.82-262.88-96.84-307.7-96.84h0Z"/>
    </g>
    <g id="bottom-cap-outline">
      <path d="M735.27,1467c20.49,19.1,56.41,43.4,104.78,70.82,51.04,28.94,112.48,59.5,177.67,88.39,66.64,29.53,131.39,54.7,187.24,72.78,54.66,17.7,97.76,27.73,128.41,29.9-68.32,32.83-136.34,49.47-202.36,49.47-53.71,0-106-10.98-155.42-32.65-44.05-19.31-84.97-46.63-121.63-81.19-32.62-30.76-61.14-66.9-82.46-104.5-18.12-31.97-30.55-63.91-36.24-93.02m-4.55-8.74c18.64,125.04,171.09,323.1,400.29,323.1,65.6,0,137.48-16.22,214.33-55.02-128.9,0-536.62-184.97-614.62-268.08h0Z"/>
    </g>
  </g>
  <g id="Layer_2" data-name="Layer 2">
    <g id="top-cap-fill">
      <path class="cls-32" d="M1667.49,721.97c-32.64,0-168.3-47.1-322.56-111.99-85.65-36.03-165.06-72.52-223.61-102.75-28.45-14.69-50.41-27.1-65.27-36.87-20.34-13.38-21.26-17.88-20.7-19.19,.29-.7,1.87-2.33,10.16-2.33,37.71,0,172.2,34.6,326.63,99.56,107.14,45.07,183.62,87.78,219.68,109.22,68.63,40.83,83.75,58.8,82.15,62.6-.27,.65-1.48,1.75-6.47,1.75Z"/>
      <path d="M1045.51,449.84c37.62,0,171.92,34.57,326.23,99.48,107.08,45.05,183.52,87.73,219.55,109.16,26.22,15.6,47.83,29.87,62.49,41.26,20.64,16.04,19.26,20.05,19.25,20.09-.13,.32-1.39,1.14-5.55,1.14-32.53,0-168.02-47.06-322.17-111.91-85.62-36.02-165.01-72.5-223.54-102.72-28.42-14.67-50.35-27.06-65.18-36.82-21.6-14.21-20.35-17.93-20.33-17.97,0-.02,.82-1.71,9.25-1.71h0m0-2c-6.44,0-10.26,.97-11.09,2.94-5.86,13.92,132.99,85.62,310.12,160.13,156.88,65.99,290.4,112.07,322.94,112.07,4.2,0,6.72-.77,7.39-2.36,5.86-13.92-125.22-98.62-302.36-173.13-152.08-63.98-287.93-99.64-327.02-99.64h0Z"/>
    </g>
    <g id="resolvers-cap">
      <path class="cls-32" d="M1655.99,1370.56c-2.77,6.57-185.01-69.2-407.54-163.09-222.53-93.89-398.67-174.33-395.9-180.9,2.77-6.57,183.42,63.21,405.94,157.1,222.53,93.89,400.27,180.33,397.49,186.9Z"/>
    </g>
  </g>
  <g id="datasources-ribbons">
    <g>
      <path class="cls-25" d="M1109.18,2098.23c36.4-63.58,54.23-141.23,25.07-211.65-15.07-36.4-41.65-68.59-58.31-104.51-33.5-72.26-22-157.82,29.01-215.75,51.01-57.93,130.85-128.39,214.49-113.07l-32.18-10c-83.64-15.32-163.48,55.14-214.49,113.07-51.01,57.93-62.51,143.49-29.01,215.75,16.65,35.91,43.23,68.11,58.31,104.51,29.16,70.42,11.33,148.07-25.07,211.65l32.18,10Z"/>
      <g class="cls-36">
        <g class="cls-56">
          <path class="cls-61" d="M1115.71,1509.88c20.45-33.82,89.76,20.71,154.95,60.13l44.75-123.7-97.58-41.18-137.15,73.06,35.02,31.68Z"/>
        </g>
      </g>
    </g>
    <g>
      <path class="cls-30" d="M694.21,1546.34c-51.91-13.29-100.87-44.36-138.04-98.36-22.16-32.17-40.77-72.74-64.56-100.77-.24-.29-.5-.59-.74-.86-5.01-5.82-10.24-11.09-15.8-15.59,9.23-.39,18.5,1.35,27.5,5.54,11.09,5.15,20.94,13.26,30.01,23.28,.57,.62,1.13,1.25,1.7,1.91,24.65,28.08,43.62,69.82,66.32,102.79,26.33,38.25,58.59,65,93.61,82.07Z"/>
      <g class="cls-35">
        <path class="cls-56" d="M633.96,1404.5c4.99,1.92,10.08,4.06,14.18,8.57,4.6,5.07,7.5,12.61,10.19,19.97,14.61,39.91,27.37,81.23,38.14,123.57-25.48,3.43-51.07,5.26-76.67,5.48-25.13,.22-51.79-1.78-72.64-21.9-15.59-15.05-26.08-38.55-35.38-61.94-14.76-37.12-27.69-75.66-40.6-114.17-6.12-18.26-13.19-38.98-10.5-59.62,32.94,75.32,118.56,78.99,173.29,100.04Z"/>
      </g>
      <path class="cls-7" d="M694.21,1546.34c-51.91-13.29-100.87-44.36-138.04-98.36-22.16-32.17-40.77-72.74-64.56-100.77-.24-.29-.5-.59-.74-.86-5.01-5.82-10.24-11.09-15.8-15.59,9.23-.39,18.5,1.35,27.5,5.54,11.09,5.15,20.94,13.26,30.01,23.28,.57,.62,1.13,1.25,1.7,1.91,24.65,28.08,43.62,69.82,66.32,102.79,26.33,38.25,58.59,65,93.61,82.07Z"/>
    </g>
    <g>
      <path class="cls-30" d="M1147.17,1320.75c-78.35,148.68-181.32,229.72-308.9,247.1-48.09,6.55-98.43,.72-144.06-21.52,32.78,8.39,66.74,9.71,99.63,5.23,127.58-17.38,230.55-98.42,308.9-247.1l44.43,16.29Z"/>
      <g class="cls-34">
        <path class="cls-57" d="M955.52,1473.71c6.19-31.42,112.9-45.42,203.58,10.12l-20.47-81.16-63.2-65.76-66.95-6.53-104.2,104.98,51.24,38.35Z"/>
      </g>
      <path class="cls-7" d="M1147.17,1320.75c-78.35,148.68-181.32,229.72-308.9,247.1-48.09,6.55-98.43,.72-144.06-21.52,32.78,8.39,66.74,9.71,99.63,5.23,127.58-17.38,230.55-98.42,308.9-247.1l44.43,16.29Z"/>
    </g>
    <path class="cls-19" d="M532.59,1359.57c-9.08-10.02-18.93-18.13-30.01-23.28-9.01-4.19-18.27-5.93-27.5-5.54-6.78,.29-13.55,1.73-20.18,4.19-27.38,10.12-52.56,37.58-67.5,73.36-23.48,56.25-24.93,127.63-13.9,191.57,11.03,63.96,33.37,122.27,55.47,179.73l-44.43-16.29c-22.11-57.46-44.44-115.78-55.47-179.73-11.03-63.94-9.59-135.32,13.9-191.57,14.57-34.93,38.9-61.9,65.53-72.57,.21-.1,.43-.18,.64-.26,36.69-15.04,82.81-5.31,123.47,40.4Z"/>
    <g>
      <path class="cls-28" d="M1414.36,1849.36c-46.96,15.46-77.34,5.4-103.35-7.31-5.6-2.73-11.01-5.59-16.33-8.35-.04-.03-.08-.04-.12-.07-23.85-14.28-45.61-36.66-60.72-65.52-15.65-29.86-24.28-63.93-28.21-97.23-8.3-70.11,3.92-138.86,33.64-189.16l37.72,.54c-29.72,50.29-41.94,119.05-33.64,189.16,3.94,33.3,12.57,67.37,28.21,97.23,17.36,33.14,43.5,57.74,71.48,71.33,9.46,4.61,19.12,7.95,28.73,9.93,14.63,3.05,29.14,2.96,42.59-.57Z"/>
      <g class="cls-40">
        <path class="cls-56" d="M1185.86,1573.25c0-32.41,59.75-58.64,133.59-58.64l-15.89-56.36-78.46-20.83-77.91,108.91,38.68,26.92Z"/>
        <path class="cls-1" d="M1240.59,1781.36c0,19.27,70.24,64.29,145.55,64.29"/>
      </g>
      <path class="cls-7" d="M1414.36,1849.36c-46.96,15.46-77.34,5.4-103.35-7.31-5.6-2.73-11.01-5.59-16.33-8.35-.04-.03-.08-.04-.12-.07-23.85-14.28-45.61-36.66-60.72-65.52-15.65-29.86-24.28-63.93-28.21-97.23-8.3-70.11,3.92-138.86,33.64-189.16l37.72,.54c-29.72,50.29-41.94,119.05-33.64,189.16,3.94,33.3,12.57,67.37,28.21,97.23,17.36,33.14,43.5,57.74,71.48,71.33,9.46,4.61,19.12,7.95,28.73,9.93,14.63,3.05,29.14,2.96,42.59-.57Z"/>
    </g>
    <path class="cls-18" d="M1700.25,1632.67c-22.1-14.64-46.51-22.31-68.76-20.28-3.51,.31-6.97,.82-10.36,1.49-7.34,1.43-14.41,3.64-21.22,6.54-41.44,17.65-73.11,60.84-95.45,108.86-16.81,36.15-30.42,76.84-56.66,101.54-9.79,9.22-21.17,15.31-33.44,18.53h0c-13.45,3.53-27.96,3.62-42.59,.57,4.93-.96,9.73-2.39,14.38-4.28,8.66-3.48,16.73-8.58,23.94-15.37,26.24-24.7,39.85-65.39,56.66-101.54,24.03-51.67,58.89-97.75,105.08-112.45,60.72-19.98,90.13-9.66,128.43,16.38Z"/>
    <g>
      <path class="cls-28" d="M1769.7,1742.64l-37.72-.54c-5.99-49.04-37.6-90.89-74.58-113.22-11.76-7.12-24.07-12.24-36.26-15,3.39-.68,6.85-1.18,10.36-1.49,22.24-2.02,46.66,5.65,68.76,20.28,1.45,.99,2.92,1.99,4.39,3.02,.07,.04,.14,.1,.22,.16h0c32.67,23.42,59.37,62.12,64.83,106.79Z"/>
      <g class="cls-39">
        <path class="cls-56" d="M1720.02,1652.19c-14.95-6-31.13-8.36-47.21-9.39-10.58-.68-21.44-.85-31.33-4.67-9.89-3.82-18.82-12.3-19.65-22.88,32.45-4.39,65.39-5.19,98.01-2.38,4.65,.4,9.52,.96,13.31,3.67,3.46,2.48,5.54,6.41,7.29,10.29,4.93,10.92,14.23,31.27,6.45,41.32-8.72-5.82-16.96-11.99-26.88-15.97Z"/>
      </g>
      <path class="cls-7" d="M1769.7,1742.64l-37.72-.54c-5.99-49.04-37.6-90.89-74.58-113.22-11.76-7.12-24.07-12.24-36.26-15,3.39-.68,6.85-1.18,10.36-1.49,22.24-2.02,46.66,5.65,68.76,20.28,1.45,.99,2.92,1.99,4.39,3.02,.07,.04,.14,.1,.22,.16h0c32.67,23.42,59.37,62.12,64.83,106.79Z"/>
    </g>
    <path d="M1263.7,1445.11c7.61,0,15.21,.68,22.61,2.02l.84,.26c-31.84,2-65.35,14.88-99.75,38.35-27.97,19.09-56.72,45.31-85.45,77.93-25.55,29.02-41.86,65.19-47.16,104.61-5.3,39.39,.76,79.32,17.52,115.47,7.83,16.9,17.94,33.14,27.7,48.85,11.1,17.85,22.59,36.32,30.54,55.51,13.46,32.5,17.43,68.26,11.79,106.27-4.82,32.5-16.92,66.69-35.05,99.07l-24.38-7.58c18.14-32.78,30.28-67.37,35.16-100.33,5.85-39.47,1.71-76.65-12.31-110.51-8.2-19.8-19.86-38.55-31.13-56.68-9.64-15.5-19.61-31.53-27.24-47.98-16.12-34.76-21.94-73.16-16.85-111.03,5.09-37.85,20.73-72.56,45.23-100.39,28.29-32.13,56.53-57.9,83.95-76.61,36.2-24.7,71.18-37.23,103.97-37.23m0-4c-74.9,0-144.73,62.74-190.92,115.2-51.01,57.93-62.51,143.49-29.01,215.75,16.65,35.91,43.23,68.11,58.31,104.51,29.16,70.42,11.33,148.07-25.07,211.65l32.18,10.01c36.4-63.58,54.23-141.23,25.07-211.65-15.07-36.4-41.65-68.59-58.31-104.51-33.5-72.26-22-157.82,29.01-215.75,46.19-52.46,116.03-115.2,190.92-115.2,7.81,0,15.67,.68,23.57,2.13l-32.18-10c-7.89-1.45-15.76-2.13-23.57-2.13h0Z"/>
  </g>
  <g id="ribbon-rquest">
    <path d="M1363.85,665.02c-.11-.01-10.85-2.07-10.94-2.1-41.37-11.75-69.03-25.3-108.87-43.38,1.86,.28,3.66,.57,5.42,.89,17.11,3.08,36.79,10.32,47.92,15.75"/>
    <g>
      <path class="cls-22" d="M1288.84,633.85c-11.13-5.44-24.09-10.34-41.2-13.42-1.76-.32-3.56-.62-5.42-.89-2.28-.35-4.63-.66-7.05-.94-69-7.9-125.78,19.95-147.69,32.3-65.36,36.9-169.38,133.18-153.5,247.84,3.98,28.73,15.08,55.66,30.8,79.29,15.78,23.79,36.23,44.21,58.77,59.72,21.75,14.97,45.43,25.36,68.72,29.76,7.69,1.45,14.99,2.19,22.02,2.36l1.13,.7c-65.57-4.28-129.85-34.64-175.5-71.82-.24-.18-.48-.38-.7-.56-5.52-4.53-10.78-9.16-15.71-13.84-.06-.06-.11-.1-.15-.14-17.28-16.77-31.96-36.54-42.77-57.9-9.34-18.45-15.81-38.09-18.56-58.04-15.88-114.67,88.14-210.95,153.5-247.86,21.9-12.36,78.69-40.2,147.7-32.3,12.51,1.43,23.02,3.76,32.18,6.64,35.97,9.34,68.3,26.38,93.45,39.1Z"/>
      <g class="cls-37">
        <g class="cls-56">
          <path d="M1085.6,1084.16c-24.65-17.8-196.02-90.27-216.28-112.95-7.85-8.79-15.18-18.7-17.37-30.29-3.58-18.95,8.44-38.83,25.81-47.21,17.37-8.37,38.6-6.28,55.75,2.54,23.37,12.03,40.31-.45,26.44,23.34-14.58,25.01,120.74,135.4,125.64,164.56Z"/>
        </g>
      </g>
    </g>
    <g>
      <path class="cls-26" d="M1116.17,1068.74c-1.28,0-2.56-.02-3.85-.06-7.25-.2-14.35-1-21.69-2.42-19.81-3.83-40.21-12.16-59.51-24.23,9.48,1.56,18.72,2.32,28.01,2.32,2.4,0,4.84-.05,7.25-.16,22.88-.98,42.97-6.54,62.41-11.91,21.46-5.94,43.66-12.08,69.78-12.08,11.58,0,23.06,1.16,35.11,3.56,0,0,.41,.09,.51,.1,19.72,3.98,46.13,9.31,73.86,27.12-.44-.09-.87-.17-1.27-.25-17.69-3.56-34.22-5.29-50.56-5.29-8.94,0-17.63,.52-26.58,1.58-19.69,2.33-36.62,6.86-53,11.24-20.17,5.39-39.21,10.48-60.47,10.48Z"/>
      <path d="M1198.58,1022.21c11.45,0,22.8,1.15,34.71,3.52h.05s.01,.01,.01,.01l.11,.02c.11,.02,.22,.05,.33,.07,17.29,3.49,39.72,8.02,63.59,21.14-14.2-2.37-27.74-3.53-41.16-3.53-9.02,0-17.79,.52-26.81,1.59-19.83,2.35-36.84,6.9-53.28,11.29-20.04,5.36-38.96,10.42-59.96,10.42-1.26,0-2.54-.02-3.8-.05-7.14-.2-14.12-.98-21.37-2.39-16.7-3.23-33.83-9.7-50.36-18.95,6.19,.67,12.33,1,18.49,1,2.43,0,4.9-.05,7.34-.16,23.11-.99,43.32-6.58,62.86-11.98,21.34-5.9,43.4-12,69.25-12.01h0m0-4c-50.11,0-84.42,21.95-132.28,23.99-2.36,.1-4.74,.16-7.17,.16-11.54,0-23.91-1.21-37.48-4.17,21.69,15.06,45.33,25.54,68.59,30.04,7.69,1.5,14.99,2.26,22.02,2.46,1.31,.04,2.61,.06,3.91,.06,38.67,0,69.63-16.52,113.71-21.74,8.27-.98,17.01-1.56,26.34-1.56,14.98,0,31.52,1.5,50.16,5.25,3.56,.71,7.25,1.47,11.06,2.31-30.42-22.18-59.41-28.36-82.89-33.1-.15-.03-.32-.07-.48-.1-12.8-2.54-24.52-3.6-35.5-3.6h0Z"/>
    </g>
    <path d="M1138.74,586.72v4c8.04,0,16.12,.46,24.02,1.36,11.42,1.3,21.7,3.42,31.43,6.48l.1,.03,.1,.03c16.64,4.32,32.51,10.32,47.26,16.78-1.88-.27-3.86-.53-6.02-.78-8.19-.94-16.58-1.41-24.93-1.41-56.15,0-102.53,21.43-125.18,34.21-39.82,22.48-80.36,58.31-108.45,95.85-17.63,23.56-30.68,47.88-38.78,72.31-9.3,28-12.07,56.17-8.26,83.72,3.92,28.25,14.49,55.49,31.42,80.95,15.68,23.63,36.37,44.66,59.83,60.8,2.82,1.94,5.67,3.8,8.55,5.59-2.69-1.06-5.37-2.17-8.06-3.31-28.53-12.16-55.96-28.64-79.32-47.67l-.05-.04-.05-.04c-.17-.13-.34-.27-.5-.4l-.09-.07c-5.44-4.46-10.65-9.05-15.48-13.63-.06-.06-.13-.12-.19-.18-16.97-16.49-31.47-36.12-41.94-56.79-9.43-18.63-15.54-37.73-18.17-56.78-3.65-26.32-.98-53.27,7.93-80.1,7.84-23.61,20.48-47.17,37.6-70.04,27.46-36.7,67.08-71.72,105.98-93.68,21.96-12.39,66.92-33.18,121.27-33.18v-4m0,0c-57.77,0-103.98,22.83-123.23,33.69-65.36,36.9-169.38,133.19-153.5,247.86,2.75,19.95,9.23,39.59,18.56,58.04,10.82,21.36,25.5,41.13,42.77,57.9,.04,.04,.1,.08,.15,.14,4.93,4.68,10.19,9.31,15.71,13.84,.22,.18,.46,.38,.7,.56,45.65,37.18,109.93,67.55,175.5,71.82l-1.13-.7c-7.03-.17-14.33-.91-22.02-2.36-23.29-4.4-46.97-14.79-68.72-29.76-22.53-15.5-42.98-35.93-58.77-59.72-15.71-23.62-26.81-50.56-30.8-79.29-15.88-114.67,88.14-210.94,153.5-247.84,19.26-10.86,65.45-33.7,123.22-33.69,7.95,0,16.12,.43,24.46,1.39,2.42,.28,4.77,.59,7.05,.94,1.86,.28,3.66,.57,5.42,.89,17.11,3.08,30.07,7.98,41.2,13.42-25.15-12.72-57.48-29.76-93.45-39.1-9.16-2.88-19.67-5.21-32.18-6.64-8.35-.96-16.52-1.39-24.47-1.39h0Z"/>
    <g>
      <path class="cls-29" d="M931.99,898.75c3.98,28.73,15.08,55.66,30.8,79.29,15.78,23.79,36.23,44.21,58.77,59.72,21.75,14.97,45.43,23.36,68.72,27.76,7.69,1.45,16.12,2.89,23.15,3.06h0c-62.01-4.05-133.41-35.54-175.5-69.82-.24-.18-.48-.38-.7-.56-5.52-4.53-10.78-9.16-15.71-13.84-.06-.06-.11-.1-.15-.14-17.28-16.77-31.96-36.54-42.77-57.9-9.34-18.45-15.81-38.09-18.56-58.04"/>
      <g class="cls-38">
        <path class="cls-30" d="M880.71,860.78c3.5,51.3,28.59,99.02,67.15,133.09,38.94,34.87,88.18,58.06,139.37,69.04-52.58-7.89-103.72-28.26-145.83-61.41-31.9-25.04-57.87-59.37-70.95-98.3-4.48-13.06-7.66-26.58-9.63-40.27l19.88-2.15h0Z"/>
        <path class="cls-24" d="M902.15,851.29c-3.02,48.55,12.47,97.46,44.82,134.35,32.44,37.62,77.82,63.58,125.92,76.18-24.72-4.71-48.88-12.96-71.51-24.51-45.65-23.06-85.26-61.37-104.38-109.57-9.91-24.28-14.38-50.63-14.85-76.85l20,.4h0Z"/>
        <path class="cls-27" d="M937.03,843.42c-18.69,73.31,11.2,136.54,69.32,182.41,18.75,15.12,39.43,28.14,60.96,39.63-68.97-26.42-139.21-74.05-159-149.67-6.95-25.4-7.82-52.29-4.76-78.33,0,0,33.47,5.96,33.47,5.96h0Z"/>
        <g class="cls-56">
          <path d="M1083.6,1084.16c-24.65-17.8-196.02-90.27-216.28-112.95-7.85-8.79-15.18-18.7-17.37-30.29-3.58-18.95,8.44-38.83,25.81-47.21,17.37-8.37,38.6-6.28,55.75,2.54,23.37,12.03,40.31-.45,26.44,23.34-14.58,25.01,120.74,135.4,125.64,164.56Z"/>
        </g>
      </g>
      <path class="cls-7" d="M931.99,898.75c3.98,28.73,15.08,55.66,30.8,79.29,15.78,23.79,36.23,44.21,58.77,59.72,21.75,14.97,45.43,23.36,68.72,27.76,7.69,1.45,16.12,2.89,23.15,3.06h0c-62.01-4.05-133.41-35.54-175.5-69.82-.24-.18-.48-.38-.7-.56-5.52-4.53-10.78-9.16-15.71-13.84-.06-.06-.11-.1-.15-.14-17.28-16.77-31.96-36.54-42.77-57.9-9.34-18.45-15.81-38.09-18.56-58.04"/>
    </g>
    <path class="cls-12" d="M1519.09,475.4c18.49-26.72,34.39-54.83,46.55-82.62,.4-.93,2.29-4.48,4.96-9.52,32.11-60.75,50.16-94.91,77.8-120.9,1.46-1.38,2.94-2.72,4.43-4.01,54.28-47.67,123.2-48.14,129.67-48.09,1.08,.01,2.16,.03,3.22,.06h.13c23.56,.82,55.08,9.99,85.45,22.82,51.73,21.85,96.99,61.22,100.12,74.28h-.01c-1.45-4.01-3.33-7.86-5.7-11.44-9.78-14.77-26.5-23.29-43.01-29.72-7.34-2.86-14.82-5.44-22.4-7.65-12.62-3.69-25.52-6.36-38.57-7.6-4.06-.39-8.14-.65-12.23-.75-49.08-1.23-97.32,19.58-134.1,52.1-.1,.09-.19,.17-.29,.26-36.61,32.48-57.87,75.78-77.51,120.64-15.55,35.51-36.86,71.65-61.76,104.79"/>
    <g>
      <path class="cls-52" d="M1471.48,634.68c-37.43,24.55-77.06,34.15-112.98,29.37l-5.59-1.14c-2.81-.58-5.54-1.49-8.14-2.71l-59.74-27.56c35.59,3.95,74.28-9.46,111.81-33.84,1.31-.85,2.83-1.31,4.39-1.31h0c1.16,0,2.31,.25,3.37,.74l66.45,30.62c.92,.42,1.6,1.24,1.84,2.22h0c.35,1.38-.21,2.83-1.4,3.61Z"/>
      <g class="cls-41">
        <path class="cls-56" d="M1423.45,673.22c1.27,1.92,2.58,3.96,4.64,5,1.68,.84,3.63,.89,5.5,.83,11.11-.33,21.89-3.66,32.34-7.44,9.72-3.51,19.61-7.65,26.72-15.16s10.71-19.25,6.02-28.46c-2.71-5.32-7.68-9.05-12.53-12.53-13.63-9.78-27.68-19.14-43-25.95-25.21-11.22-53.59-15.21-80.92-11.38-10.92,1.53-22.16,4.53-30.31,11.95-6.07,5.52-14.96,22.87-6.31,30.03,3.48,2.88,13.23,1.59,17.68,2.27,6.38,.98,12.68,2.51,18.81,4.53,24.77,8.16,46.93,24.5,61.37,46.3Z"/>
      </g>
      <path class="cls-7" d="M1471.48,634.68c-37.43,24.55-77.06,34.15-112.98,29.37l-5.59-1.14c-2.81-.58-5.54-1.49-8.14-2.71l-59.74-27.56c35.59,3.95,74.28-9.46,111.81-33.84,1.31-.85,2.83-1.31,4.39-1.31h0c1.16,0,2.31,.25,3.37,.74l66.45,30.62c.92,.42,1.6,1.24,1.84,2.22h0c.35,1.38-.21,2.83-1.4,3.61Z"/>
    </g>
  </g>
  <g id="top-middle">
    <g id="schema-slice">
      <path class="cls-26" d="M1354.12,1118.28c12.05-22.54,29.42-115.52,29.42-258.27-29.42-26.15-314.67-174.52-629.33-268.08-101.44,75.19-119.09,123.47-165.1,199.42,222.22,89.68,395.12,174.91,765.01,326.93Z"/>
      <g class="cls-46">
        <path class="cls-55" d="M868.3,573.31c-119.8-123.95-230.7-143.59-291.04-85.27-10.88-11.26-133.24,89.37-273.57,225,216.62,224.13,396.36,429.25,416.9,409.4-92.42-174.95-34.25-360.75,153.98-542.66"/>
      </g>
    </g>
    <g id="schema-outline">
      <path d="M754.8,595.23c170.14,50.69,322.14,114.27,419.81,158.74,116.32,52.97,190.4,94.69,205.94,107.42-.11,134.37-15.95,226.79-27.88,253.04-196.4-80.75-336.1-142.17-459.41-196.38-105.97-46.59-197.64-86.89-299.75-128.16,6.32-10.5,12.1-20.44,17.7-30.08,17.02-29.3,31.72-54.6,53-80.76,23.04-28.33,51.85-54.99,90.59-83.82m-.58-3.3c-101.44,75.19-119.09,123.47-165.1,199.42,222.22,89.68,395.12,174.91,765.01,326.93,12.05-22.54,29.42-115.52,29.42-258.27-29.42-26.15-314.67-174.52-629.33-268.08h0Z"/>
    </g>
    <g id="top-slice">
      <path id="top-cap" class="cls-26" d="M1674.55,719.69c-11.12-39.16-449.15-232.7-637.68-270.29,44.95-24.54,199.24-99.19,384.68-28.33,134.04,51.22,222.48,168.95,252.99,298.63Z"/>
      <g class="cls-50">
        <path class="cls-55" d="M1459.64,340.4c-37.91-168.16-122.44-242.59-204.31-224.13-3.44-15.28-160.29,7.09-350.67,50,68.54,304.08,115.47,572.74,143.33,566.46,11.99-197.49,158.27-325.98,413.63-383.54"/>
      </g>
      <path id="top-cap-3" data-name="top-cap" class="cls-5" d="M1674.55,719.69c-11.12-39.16-449.15-232.7-637.68-270.29,44.95-24.54,199.24-99.19,384.68-28.33,134.04,51.22,222.48,168.95,252.99,298.63Z"/>
    </g>
    <g id="top-cap-outline">
      <path class="cls-3" d="M1674.55,719.69c-11.12-39.16-449.15-232.7-637.68-270.29,44.95-24.54,199.24-99.19,384.68-28.33,134.04,51.22,222.48,168.95,252.99,298.63Z"/>
    </g>
  </g>
  <g id="Layer_20" data-name="Layer 20">
    <g class="cls-59">
      <g>
        <path d="M1116.55,446.01c1.44-.74,2.16-1.11,3.6-1.86,1.39,1.94,3.53,3.58,6.19,4.32,2.95,.82,4.92,.15,5.47-1.36,.7-1.93-.84-2.92-2.99-4.44-1.21-.87-1.81-1.31-3.01-2.17-2.34-1.54-4.48-3.83-3.32-6.9,1.26-3.32,5.87-5.11,11.04-3.95,3.11,.7,5.66,2.4,7.1,4.63-1.28,.77-1.91,1.15-3.19,1.91-1.29-1.6-2.8-2.69-5.35-3.28-2.4-.56-4.37-.03-4.95,1.54-.62,1.65,1.19,2.73,3.21,4.05,1.15,.82,1.72,1.23,2.87,2.07,2.84,1.88,4.52,4.16,3.38,7.33-1.28,3.56-5.81,5.5-11.75,3.81-3.57-1.02-6.53-3.1-8.29-5.69Z"/>
        <path d="M1148.42,433.55c6.47,1.55,9.7,2.35,16.15,4-.47,1.39-.7,2.09-1.17,3.48-4.66-1.23-6.99-1.84-11.66-3.02-.8,2.31-1.21,3.46-2.01,5.77,3.96,1.06,5.94,1.6,9.89,2.7-.47,1.39-.7,2.08-1.17,3.47-3.95-1.14-5.93-1.69-9.89-2.79-.93,2.67-1.39,4-2.32,6.67,4.83,1.43,7.25,2.15,12.06,3.64-.47,1.39-.7,2.09-1.17,3.49-6.61-2.09-9.92-3.11-16.56-5.1,3.15-8.92,4.72-13.38,7.87-22.31Z"/>
        <path d="M1170.79,439.15c3.35,.88,5.03,1.32,8.38,2.23,5.19,1.4,8.64,4.35,6.9,9.88-1.68,5.32-6.46,6.45-11.66,4.85-1.56-.48-2.34-.72-3.9-1.19-1.22,3.74-1.83,5.61-3.05,9.35-1.8-.59-2.69-.88-4.49-1.46,3.13-9.47,4.7-14.2,7.83-23.67Zm4.27,13.39c3.43,1.02,5.74,.18,6.62-2.58,.89-2.81-.65-4.32-4.08-5.28-1.37-.38-2.06-.57-3.43-.95-1.02,3.11-1.53,4.67-2.54,7.78,1.38,.41,2.06,.61,3.44,1.02Zm2.94,.56c1.42,6.24,2.14,9.42,3.56,15.89-2-.68-3-1.02-5-1.69-1.05-5.11-1.57-7.62-2.63-12.59,1.63-.64,2.44-.96,4.06-1.61Z"/>
        <path d="M1191.61,444.83c1.89,.53,2.83,.8,4.72,1.35-.17,5.47-.25,8.23-.42,13.79-.07,3.14-.29,5.85-.33,9.02,.06,.02,.09,.03,.15,.05,1.71-2.6,3.06-4.94,4.71-7.6,2.94-4.72,4.41-7.1,7.34-11.9,1.81,.54,2.71,.81,4.52,1.36-5.06,7.87-10.21,15.69-15.44,23.46-2.11-.75-3.16-1.13-5.27-1.87,0-11.27,.01-16.8,.03-27.65Z"/>
        <path d="M1217.26,452.42c6.35,1.96,9.51,2.97,15.83,5.02-.46,1.65-.69,2.47-1.15,4.12-4.56-1.53-6.85-2.28-11.43-3.76-.79,2.74-1.19,4.12-1.98,6.86,3.88,1.32,5.82,1.98,9.69,3.33-.46,1.64-.69,2.46-1.15,4.1-3.87-1.39-5.81-2.07-9.69-3.43-.91,3.17-1.37,4.76-2.29,7.93,4.74,1.74,7.1,2.62,11.82,4.41l-1.15,4.12c-6.47-2.52-9.72-3.75-16.23-6.17,3.1-10.62,4.65-15.93,7.74-26.55Z"/>
        <path d="M1239.17,459.44c3.29,1.09,4.93,1.64,8.2,2.76,5.08,1.73,8.46,5.25,6.74,11.74-1.65,6.24-6.34,7.53-11.43,5.6-1.53-.58-2.29-.87-3.82-1.44-1.2,4.41-1.8,6.61-3.01,11.02-1.76-.7-2.64-1.05-4.4-1.75,2.57-9.31,5.14-18.63,7.71-27.94Zm4.16,15.89c3.36,1.24,5.62,.28,6.49-2.97,.88-3.3-.63-5.1-3.99-6.28-1.34-.47-2.02-.7-3.36-1.17-1,3.67-1.5,5.5-2.5,9.17,1.35,.49,2.02,.74,3.36,1.24Zm2.87,.69c1.38,7.37,2.07,11.12,3.45,18.73-1.95-.81-2.93-1.22-4.89-2.02-1.02-6.01-1.53-8.98-2.55-14.85,1.59-.74,2.39-1.11,3.98-1.86Z"/>
      </g>
    </g>
    <g class="cls-59">
      <g>
        <path d="M1068.78,1702.07c1.52-1.14,2.27-1.69,3.78-2.79,1.27,2.48,3.31,4.53,5.91,5.42,2.89,1,4.88,.15,5.55-1.83,.85-2.53-.61-3.86-2.64-5.87-1.14-1.15-1.71-1.72-2.86-2.84-2.24-2-4.24-4.98-2.85-9.16,1.51-4.53,6.26-6.96,11.37-5.21,3.07,1.05,5.54,3.39,6.84,6.36-1.33,.94-2,1.41-3.34,2.37-1.18-2.15-2.62-3.63-5.15-4.47-2.38-.8-4.39-.09-5.09,2.01-.74,2.21,1,3.64,2.94,5.4,1.09,1.09,1.64,1.65,2.72,2.77,2.7,2.53,4.17,5.61,2.77,9.74-1.57,4.64-6.14,6.94-11.95,4.98-3.5-1.18-6.36-3.62-7.98-6.88Z"/>
        <path d="M1101.75,1685.66c6.41,2.38,9.6,3.61,15.97,5.86-.53,1.59-.82,2.42-1.39,4.11-4.61-1.58-6.92-2.44-11.54-4.15-.99,2.9-1.5,4.39-2.54,7.39,3.89,1.48,5.84,2.21,9.74,3.57-.62,1.77-.93,2.66-1.55,4.43-3.9-1.36-5.83-2.11-9.71-3.61-1.2,3.47-1.8,5.21-2.94,8.55,4.69,1.87,7.04,2.8,11.81,4.37-.58,1.68-.86,2.51-1.39,4.1-6.56-2.1-9.75-3.46-16.17-6.06,3.2-9.53,6.51-19.02,9.72-28.55Z"/>
        <path d="M1123.85,1693.63c3.29,1.13,4.92,1.7,8.16,2.86,5.02,1.79,8.31,4.9,6.23,11.23-1.99,6.08-6.92,7.63-12.08,5.95-1.55-.5-2.32-.75-3.87-1.24-1.57,4.55-2.36,6.83-3.73,10.87-1.81-.54-2.71-.8-4.52-1.31,3.22-9.47,6.59-18.88,9.8-28.35Zm3.27,15.75c3.38,1.12,5.78,.05,6.85-3.16,1.09-3.26-.35-4.96-3.69-6.11-1.33-.46-2-.69-3.35-1.15-1.22,3.58-1.89,5.5-3.21,9.31,1.36,.44,2.04,.66,3.39,1.11Zm2.92,.59c.94,7.36,1.41,11.24,2.73,17.73-2.01-.65-3.02-.97-5.04-1.6-.94-5.22-1.29-8.2-1.93-14.09,1.71-.82,2.56-1.24,4.25-2.05Z"/>
        <path d="M1143.99,1700.85c1.81,.67,2.72,1.01,4.53,1.69-.3,5.49-.55,8.75-.93,14.99-.2,3.53-.51,6.55-.62,9.86,.06,.02,.09,.03,.15,.05,1.78-2.75,3.21-5.37,4.94-8.33,3.08-5.24,4.6-8,7.53-12.35,1.76,.68,2.64,1.02,4.42,1.71-5.51,7.94-10.31,16.32-15.81,24.26-2.12-.7-3.18-1.05-5.31-1.74,.14-10.05,.7-20.09,1.1-30.13Z"/>
        <path d="M1168.92,1710.34c6.3,2.35,9.5,3.42,15.86,5.65-.45,1.36-.68,2.08-1.14,3.55-4.61-1.55-6.92-2.31-11.51-3.92-.81,2.61-1.22,4.01-2.04,6.81,3.9,1.28,5.86,1.88,9.77,3.1-.47,1.58-.71,2.38-1.19,3.96-3.92-1.16-5.88-1.73-9.79-2.95-.95,3.24-1.43,4.88-2.36,7.9,4.78,1.37,7.19,1.99,11.98,3.27-.46,1.47-.69,2.18-1.14,3.54-6.59-1.67-9.9-2.45-16.46-4.41,3.11-9.49,4.89-16.99,8-26.49Z"/>
        <path d="M1190.91,1718.16c3.31,1.18,4.96,1.78,8.24,3.04,5.09,1.94,8.47,5.07,6.78,10.36-1.62,5.08-6.31,5.96-11.44,4.28-1.54-.5-2.31-.75-3.85-1.23-1.22,3.92-1.83,5.89-2.97,9.33-1.79-.49-2.68-.73-4.47-1.2,2.96-8.93,4.75-15.65,7.71-24.58Zm4.24,13.99c3.38,1.15,5.65,.41,6.51-2.29,.87-2.75-.64-4.37-4.01-5.62-1.35-.5-2.03-.74-3.38-1.23-.98,3.07-1.5,4.73-2.51,8.01,1.36,.44,2.04,.67,3.39,1.13Zm2.89,.67c1.38,6.46,2.04,9.75,3.56,15.53-1.96-.73-2.94-1.07-4.91-1.72-1.13-4.55-1.63-7.11-2.66-12.26,1.61-.64,2.41-.96,4.01-1.56Z"/>
      </g>
    </g>
  </g>
  <g id="parsed">
    <g>
      <path class="cls-29" d="M1317.44,1055c-3.8-.84-7.49-1.59-11.06-2.31-30.26-6.09-54.96-6.25-76.51-3.69-45.56,5.4-77.09,22.86-117.62,21.68-7.03-.2-14.33-.96-22.02-2.46-23.26-4.5-46.9-14.99-68.59-30.04,16.42,3.58,31.09,4.6,44.65,4.01,58.33-2.49,96.54-34.56,167.77-20.39,.15,.03,.32,.07,.48,.1,23.48,4.74,52.48,10.92,82.89,33.1Z"/>
      <g class="cls-45">
        <path class="cls-30" d="M1295.16,1037.26c-3.8-.4,23.89,14.87,20.37,14.21-61.27-11.51-68.55-18.31-90.09-17.07-45.56,2.6-88.53,18.72-129.06,18.15,0,0-1.29-.06-8.98-.78-23.26-2.17-43.9,2.56-68.13-8.28,16.42,1.72,31.09,2.22,44.65,1.93,58.93-1.21,89.09-29.43,159.73-22.66,.15,.01-.15-.01,0,0,23.48,2.28,41.08,3.81,71.5,14.5Z"/>
        <path class="cls-24" d="M1309.73,1048.48c-3.78-.9,2.55,4.08-1,3.26-30.13-6.9-52.82-6.05-80.64-10.35-45.82-7.09-100.44,14.53-132.38,16.04l-17.45-.35c-23.74-.48-41.45-6.44-62.36-16.8,16.33,3.88,20.58,6.97,34.28,8.38,58.97,6.1,107.16-30.29,193.79-13.53,.15,.03,0,0,0,0,23.38,5.36,38.4,10.52,65.75,13.35Z"/>
        <path class="cls-28" d="M1309.73,1048.48c-3.71-1.17-2.07,31.71-5.55,30.65-29.56-9.04-57.76-25.53-79.62-23.81-37.6,2.96-93.92,17.03-125.88,16.25,0,0-3.76-4.57-21.14-6.17-23.65-2.17-37.89-9.17-58.01-21,16.01,5.04,25,7.42,38.69,8.93,80.37,8.85,125.19-27.2,201.74-9.12,13.9,3.28,52.31,8.32,52.31,8.32,36.78,8.54-12.38-8.26-2.54-4.06Z"/>
      </g>
    </g>
    <path d="M1198.58,1022.21c11.45,0,22.8,1.15,34.71,3.52h.05s.01,.01,.01,.01l.11,.02c.11,.02,.22,.05,.33,.07,17.29,3.49,39.72,8.02,63.59,21.14-14.2-2.37-27.74-3.53-41.16-3.53-9.02,0-17.79,.52-26.81,1.59-19.83,2.35-36.84,6.9-53.28,11.29-20.04,5.36-38.96,10.42-59.96,10.42-1.26,0-2.54-.02-3.8-.05-7.14-.2-14.12-.98-21.37-2.39-16.7-3.23-33.83-9.7-50.36-18.95,6.19,.67,12.33,1,18.49,1,2.43,0,4.9-.05,7.34-.16,23.11-.99,43.32-6.58,62.86-11.98,21.34-5.9,43.4-12,69.25-12.01h0m0-4c-50.11,0-84.42,21.95-132.28,23.99-2.36,.1-4.74,.16-7.17,.16-11.54,0-23.91-1.21-37.48-4.17,21.69,15.06,45.33,25.54,68.59,30.04,7.69,1.5,14.99,2.26,22.02,2.46,1.31,.04,2.61,.06,3.91,.06,38.67,0,69.63-16.52,113.71-21.74,8.27-.98,17.01-1.56,26.34-1.56,14.98,0,31.52,1.5,50.16,5.25,3.56,.71,7.25,1.47,11.06,2.31-30.42-22.18-59.41-28.36-82.89-33.1-.15-.03-.32-.07-.48-.1-12.8-2.54-24.52-3.6-35.5-3.6h0Z"/>
    <g>
      <path class="cls-29" d="M1394.17,1484.55l-71.84-30.8c7.42-7.94,101.7-111.68,82.59-242.99-.42-2.89-.89-5.79-1.43-8.71-4.47-24.5-21.9-98.73-82.88-144.36-.6-.45-1.19-.88-1.78-1.3-30.42-22.18-59.41-28.36-82.89-33.1-.15-.03-.32-.07-.48-.1,57.98,6.96,121.89,30.73,169.74,75.79,.11,.1,.22,.2,.34,.31,9.28,8.76,17.95,18.35,25.86,28.77,0,0,0,.01,.01,.01,30.12,40.97,40.59,86.57,43.92,104.77,1.03,5.65,1.85,11.25,2.47,16.8,.03,.21,.06,.41,.07,.61,13.85,127.15-76.45,226.51-83.72,234.28Z"/>
      <g class="cls-44">
        <path class="cls-28" d="M1399.21,1481.81l-34.86-11.38c7.52-8.53,102.91-119.92,77.12-254.93-.57-2.98-1.19-5.95-1.88-8.95-5.77-25.15-27.37-101.18-93.84-145.73-.66-.44-1.29-.86-1.93-1.27-33.14-21.63-64.08-26.76-89.14-30.65-.16-.02-.34-.06-.51-.08,61.67,4.69,88.21,9.44,140.76,53.99,.12,.1-.12-.11,0,0,10.2,8.66,19.79,18.22,28.61,28.65,0,0-.01,0,0,0,33.62,41.08,46.63,87.79,50.93,106.47,1.33,5.8,2.43,11.56,3.33,17.27,.04,.22-.02-.22,0,0,20.05,130.92-71.23,238.25-78.59,246.6Z"/>
        <path class="cls-24" d="M1365.14,1487.74l-29.08-12.8c7.57-8.22,103.72-115.61,84.23-251.56-.43-3-.91-5.99-1.45-9.02-4.56-25.37-22.34-102.21-84.53-149.45-.61-.46-1.21-.91-1.81-1.35-31.02-22.97-60.59-29.36-84.54-34.27-.16-.03-.33-.07-.48-.1,59.14,7.21,84.48,13.05,133.28,59.7,.11,.1-.11-.12,0,0,9.47,9.07,19.32,19.02,27.39,29.8,0,0-.01,0,0,0,30.72,42.42,38.4,89.62,41.79,108.47,1.05,5.85,1.88,11.65,2.52,17.39,.03,.22-.01-.22,0,0,14.13,131.63-79.9,235.14-87.31,243.18Z"/>
        <path class="cls-30" d="M1346.77,1466.12l-29.44-12.36c7.42-7.94,101.7-111.68,82.59-242.99-.42-2.89-.89-5.79-1.43-8.71-4.47-24.5-21.9-98.73-82.88-144.36-.6-.45-1.19-.88-1.78-1.3-30.42-22.18-59.41-28.36-82.89-33.1-.15-.03-.32-.07-.48-.1,57.98,6.96,82.83,12.6,130.68,57.67,.11,.1-.11-.11,0,0,9.28,8.76,17.96,18.37,25.87,28.78,0,0-.01,0,0,0,30.12,40.97,37.59,86.57,40.92,104.77,1.03,5.65,1.85,11.25,2.47,16.8,.03,.21-.01-.21,0,0,13.85,127.15-76.38,227.13-83.65,234.9Z"/>
        <path d="M1309.23,1045.17c4.51,1.68,8.97,3.45,13.34,5.32,30.66,13.06,57.54,30.36,79.9,51.42l.05,.05,.06,.05s.09,.08,.14,.12l.04,.04,.04,.04c9.23,8.72,17.77,18.22,25.39,28.24,.2,.27,.4,.55,.61,.81h0c26.3,35.78,37.69,75.39,42.62,102.32,.98,5.33,1.79,10.89,2.43,16.53v.04s0,.04,0,.04v.07c.02,.1,.04,.19,.04,.28v.08s.01,.08,.01,.08c3.12,28.65,1.06,58.18-6.13,87.78-5.83,24.01-15.04,48.19-27.38,71.85-19.11,36.64-40.55,61.91-47.27,69.43l-64.08-27.47c8.98-10.26,29.58-35.65,48.09-71.94,12.85-25.19,22.23-50.92,27.89-76.47,7-31.63,8.3-63.15,3.85-93.69-.42-2.88-.91-5.86-1.45-8.85-5.32-29.14-24.19-101.78-84.43-146.85-.62-.46-1.23-.91-1.81-1.32-4.01-2.93-8.01-5.58-11.96-8m-73.76-21.97c.15,.03,.32,.07,.48,.1,23.48,4.74,52.48,10.92,82.89,33.1,.59,.42,1.17,.85,1.78,1.3,60.98,45.63,78.41,119.85,82.88,144.36,.53,2.92,1.01,5.82,1.43,8.71,19.11,131.32-75.16,235.05-82.59,242.99l71.84,30.8c7.27-7.77,97.57-107.13,83.72-234.28-.01-.21-.04-.41-.07-.61-.63-5.55-1.44-11.16-2.47-16.8-3.33-18.2-13.2-62.99-43.33-103.96-.01,0-.61-.83-.61-.83-7.91-10.41-16.58-20-25.86-28.77-.11-.11-.22-.21-.34-.31-47.85-45.07-111.76-68.83-169.74-75.79h0Z"/>
      </g>
    </g>
  </g>
  <g id="resolvers">
    <g id="resolvers-slice">
      <path class="cls-26" d="M1462.01,1573.25c80.64-47.95,136.45-85.02,193.98-202.69-335.6-134.08-584.17-229.61-803.06-344.36-10.84,0-44.77,172.18-18.62,270.26,48.99,24.98,302.95,185.26,627.7,276.8Z"/>
      <g class="cls-43">
        <path class="cls-55" d="M974.06,1539.65c-168.53,36.23-273.62-18.71-293.84-112.78-15.31,3.29-65.75-171.07-112.78-389.85,304.74-65.51,567.86-137.67,574.74-105.65-172.5,101.73-222.4,312.94-159.32,606.39"/>
      </g>
    </g>
    <g id="resolvers-outline">
      <path d="M853.18,1029.72c194.27,101.69,414.36,189.33,692.8,300.22,34.23,13.63,69.59,27.71,105.89,42.21-26.25,53.11-53.72,92.49-86.28,123.74-30.88,29.64-64.01,50.33-104,74.13-118.01-33.35-240.56-79.79-364.27-138.05-102.15-48.1-180.06-92.31-226.61-118.73-15.23-8.64-26.46-15.01-33.83-18.84-14.1-54.29-9.01-126.47-4.69-164.85,2.83-25.14,6.89-49.88,11.42-69.66,4.41-19.26,7.88-27.65,9.57-30.18m-.25-3.52c-10.84,0-44.77,172.18-18.62,270.26,48.99,24.98,302.95,185.26,627.7,276.8,80.64-47.95,136.45-85.02,193.98-202.69-335.6-134.08-584.17-229.61-803.06-344.36h0Z"/>
    </g>
  </g>
  <g id="data-sources">
    <g>
      <circle class="cls-28" cx="1756.34" cy="1870.75" r="148.75"/>
      <g class="cls-47">
        <g class="cls-55">
          <path d="M1903.73,2029.94c-106.58,24.74-213.03-41.6-237.77-148.18-24.74-106.58,41.6-213.03,148.18-237.77l-274.77-134.47-196.42,331.61,172.59,338.86,271.96,47.19,116.23-197.24Z"/>
        </g>
      </g>
      <circle class="cls-7" cx="1756.34" cy="1870.75" r="148.75"/>
    </g>
    <g>
      <circle class="cls-25" cx="1105.64" cy="2095.48" r="95.13"/>
      <g class="cls-49">
        <g class="cls-55">
          <path d="M1137.17,2186.99c-52.89,0-95.77-42.88-95.77-95.77s42.88-95.77,95.77-95.77l-114.69-93.35-128.74,134.68,44.23,178.43,122.91,51.95,76.29-80.17Z"/>
        </g>
      </g>
      <circle class="cls-7" cx="1105.64" cy="2095.48" r="95.13"/>
    </g>
    <g>
      <circle class="cls-30" cx="333.92" cy="1722" r="138.62"/>
      <g class="cls-48">
        <g class="cls-55">
          <path d="M394.45,1848.11c-75.67,11.64-146.45-40.26-158.09-115.93-11.64-75.67,40.26-146.45,115.93-158.09l-184.62-108.31L13.13,1686.8l102.55,245.53,187.27,47.26,91.49-131.49Z"/>
        </g>
        <path class="cls-21" d="M165.85,1570.38l168.08,13-168.08-13Z"/>
      </g>
      <circle class="cls-7" cx="333.92" cy="1722" r="138.62"/>
    </g>
  </g>
  <g id="blackouts">
    <rect class="cls-32" x="1437.04" y="1239.32" width="9.96" height="83.31" transform="translate(-277.59 2154.6) rotate(-68.55)"/>
  </g>
  <g id="labels">
    <g>
      <path d="M898,1141.04c9.05,3.85,13.58,5.78,22.63,9.63,13.61,5.72,21.84,18.16,16.07,32.74-5.59,14.14-21.95,16.9-34.48,10.65-5.15-2.59-7.72-3.89-12.85-6.51-4.39,10.36-8.78,20.72-13.16,31.08-3.55-2.03-5.33-3.05-8.88-5.1,10.22-24.17,20.45-48.33,30.67-72.5Zm6.23,44.6c10.99,5.39,19.13,3.39,23.31-6.45,4.28-10.07-.33-16.4-11.53-21.32-4.74-2.08-7.12-3.13-11.86-5.21-3.85,9.09-7.7,18.18-11.55,27.26,4.65,2.29,6.98,3.44,11.63,5.72Zm6.53,3.33c1.59,17.11,2.95,34.24,4.2,51.39-4.01-2.2-6.01-3.31-10.01-5.53-1.04-14.78-2.18-29.55-3.43-44.32,3.69-.59,5.54-.9,9.25-1.54Z"/>
      <path d="M965.9,1169.92c14.95,6.35,29.89,12.7,44.84,19.05-1.54,3.61-2.31,5.42-3.85,9.03-11.81-5.13-23.62-10.27-35.43-15.42-4.29,10.07-6.43,15.1-10.72,25.17,9.85,4.62,19.72,9.22,29.59,13.8-1.53,3.59-2.3,5.39-3.83,8.99-9.83-4.67-19.66-9.36-29.47-14.07-4.15,9.74-8.29,19.48-12.44,29.22,11.8,6.16,23.64,12.23,35.52,18.23-1.54,3.62-2.31,5.42-3.85,9.04-14.84-7.62-29.6-15.42-44.29-23.33,11.31-26.57,22.62-53.14,33.92-79.7Z"/>
      <path d="M995.62,1269.48c3.43-1.92,5.15-2.89,8.59-4.85,2.7,8.97,8.25,16.77,16.26,20.65,9.73,4.72,17.81,1.7,21.2-6.26,3.95-9.29-.48-14.52-6.1-21.53-3.2-4.12-4.8-6.18-8.01-10.29-7.1-7.98-10.63-18.88-6.06-28.95,5.53-12.21,20.85-18.12,33.34-12.44,8.72,3.96,15.16,11.57,17.73,20.24-3.17,2.04-4.75,3.06-7.9,5.09-2.58-7.11-6.8-12.51-14.3-15.74-8.38-3.61-15.99-1.34-19.26,6.34-3.49,8.2,1.91,14.2,6.81,19.86,3.11,3.97,4.66,5.96,7.76,9.96,7.72,8.41,10.22,20.02,5.94,30.51-5.73,14.05-22.69,19.04-35.71,12.74-10.05-4.87-17.2-14.55-20.27-25.32Z"/>
      <path d="M1072.62,1266.71c7.23-17.02,24.88-42.84,47.08-33.46,23.17,9.79,15.22,41.54,8.31,57.86-6.82,16.09-24.4,45.09-47.5,34.44-22.12-10.2-15.21-41.6-7.89-58.84Zm45.81,20.24c4.77-11.25,12.69-36.52-2.99-43.65-15.6-7.09-28.67,16.85-33.28,27.67-4.71,11.07-13.19,37.75,2.62,44.53,15.9,6.82,28.97-17.49,33.66-28.56Z"/>
      <path d="M1166.97,1255.19c3.67,1.55,5.5,2.33,9.17,3.88-11.33,26.76-22.66,53.52-33.98,80.29,11.93,5.11,23.9,10.14,35.91,15.08-1.65,3.89-2.47,5.84-4.11,9.74-15.09-6.19-30.11-12.55-45.08-19.02,12.7-29.99,25.4-59.97,38.1-89.96Z"/>
      <path d="M1223.11,1278.94c3.98,1.68,5.97,2.52,9.95,4.2-2.93,17.72-5.84,35.44-8.74,53.16-1.79,10.74-3.77,21.46-5.38,32.23,.18,.07,.27,.11,.45,.18,6.62-8.73,13.01-17.65,19.4-26.55,10.61-14.39,21.23-28.77,31.85-43.15,3.8,1.61,5.7,2.41,9.51,4.01-20.22,26.43-40.39,52.9-60.53,79.38-4.39-1.71-6.59-2.56-10.97-4.29,4.77-33.07,9.6-66.13,14.47-99.19Z"/>
      <path d="M1297.4,1310.32c14.96,6.31,29.92,12.63,44.89,18.93-1.55,3.69-2.32,5.53-3.87,9.21-11.9-4.92-23.8-9.85-35.7-14.8-3.82,9.08-7.63,18.16-11.45,27.24,10.12,4.01,20.25,8,30.38,11.98-1.55,3.7-2.33,5.55-3.89,9.25-10.16-3.91-20.32-7.84-30.46-11.79-4.43,10.54-8.86,21.08-13.3,31.62,12.48,4.62,24.99,9.16,37.53,13.6-1.55,3.68-2.32,5.52-3.87,9.2-15.76-5.45-31.46-11.09-47.11-16.85,12.28-29.2,24.56-58.4,36.84-87.6Z"/>
      <path d="M1362.08,1337.6c9.07,3.82,13.6,5.73,22.67,9.55,13.8,5.77,22.38,18.28,15.98,33.2-5.98,13.94-21.83,20.08-35.88,14.17-5.41-1.98-8.12-2.98-13.52-4.98-4.91,11.69-9.82,23.38-14.73,35.07-3.88-1.29-5.82-1.94-9.69-3.25,11.73-27.92,23.45-55.84,35.18-83.75Zm4.99,47.91c9.49,4.12,20.13,.71,24.27-8.83,4.2-9.67-2.17-18.46-11.5-21.57-4.79-1.97-7.19-2.96-11.98-4.93-4.31,10.25-8.61,20.51-12.92,30.76,4.85,1.84,7.28,2.75,12.13,4.58Zm6.8,2.7c1.51,16.7,3.11,33.4,4.97,50.07-4.36-1.37-6.54-2.06-10.9-3.45-1.36-14.62-2.63-29.25-3.8-43.89,3.9-1.1,5.85-1.65,9.73-2.73Z"/>
      <path d="M1396.22,1432.2c3.45-2.03,5.18-3.04,8.62-5.04,3.26,7.69,9.5,13.86,18.01,16.47,10.35,3.18,18.39,.14,21.23-6.6,3.32-7.86-1.55-12.03-7.68-17.84-3.5-3.42-5.24-5.15-8.71-8.64-7.4-6.51-11.74-16.38-7.47-25.82,5.42-11.98,20.73-15.99,32.46-10.62,8.7,3.97,15.44,10.94,18.52,18.43-2.97,1.6-4.46,2.41-7.44,4.06-3-6.14-7.45-11.03-15-14.12-8.44-3.45-15.88-1.54-18.8,5.38-3.11,7.39,2.59,12.69,7.83,17.55,3.35,3.42,5.02,5.11,8.4,8.46,7.45,6.21,12.64,15.72,8.2,25.19-6.29,13.42-22.19,16.33-35.6,12.94-9.1-2.3-19.31-10.76-22.58-19.81Z"/>
    </g>
    <g class="cls-60">
      <g>
        <path d="M219.48,1662.94c5.09-1.45,7.65-2.13,12.77-3.38,13.86-3.42,24.73,6.29,24.19,20.37-.55,14.5-9.11,26.9-23.87,30.24-5.26,1.16-7.87,1.79-13.09,3.16v-50.38Zm12.3,42.07c11.6-2.24,17.5-13.13,17.72-23.91,.2-9.97-6.52-19.73-17.72-16.1-2.28,.56-3.42,.84-5.69,1.44v39.9c2.27-.55,3.41-.82,5.69-1.33Z"/>
        <path d="M280.44,1651.31c3.09-.31,4.64-.44,7.73-.68,6.01,17.13,11.95,34.29,17.83,51.46-2.91,0-4.36,.03-7.26,.09-3.01-9.57-6.05-19.13-9.11-28.68-1.85-5.67-3.63-11.24-5.24-17.11-.13,.01-.19,.02-.32,.03-1.69,6.16-3.38,11.99-5.23,17.93-3.09,9.92-6.17,19.83-9.24,29.75-2.76,.3-4.14,.46-6.9,.82,5.9-17.88,11.82-35.75,17.75-53.61Zm-8.36,31.53c9.67-1.07,14.53-1.43,24.24-1.82v5.41c-9.71,.36-14.57,.71-24.24,1.76v-5.35Z"/>
        <path d="M329.32,1655.65c-7-.31-10.5-.38-17.51-.34,0-2.27,0-3.41,0-5.68,14.01,.11,27.79,.83,41.73,2.18,0,2.31,0,3.47,0,5.79-6.97-.81-10.46-1.12-17.45-1.57,0,15.77,0,31.54,0,47.32-2.71-.23-4.06-.33-6.77-.51,0-15.73,0-31.45,0-47.18Z"/>
        <path d="M376.97,1655.27c3.06,.56,4.58,.86,7.63,1.49,5.9,19.53,11.72,39.09,17.45,58.67-2.83-.81-4.25-1.19-7.09-1.94-2.96-10.83-5.94-21.65-8.94-32.46-1.82-6.44-3.57-12.74-5.16-19.32-.13-.03-.19-.04-.32-.06-1.67,5.94-3.34,11.54-5.17,17.2-3.05,9.46-6.11,18.92-9.18,28.38-2.75-.48-4.13-.7-6.88-1.13,5.89-16.94,11.78-33.88,17.65-50.82Zm-8.29,30.49c9.62,1.65,14.4,2.65,23.91,4.99v5.64c-9.51-2.36-14.3-3.37-23.91-5.04v-5.58Z"/>
      </g>
    </g>
    <g class="cls-60">
      <g>
        <path d="M1047.68,2061.2c3.23-.92,4.86-1.35,8.11-2.15,9.9-2.42,15.36,2.62,15.36,12.94s-5.46,17.06-15.16,19.2c-3.34,.74-5,1.14-8.31,2v-31.99Zm7.81,26.72c7.48-1.69,11.25-6.97,11.25-15.18s-3.77-12.05-11.25-10.22c-1.45,.35-2.17,.54-3.61,.91v25.34c1.44-.35,2.16-.52,3.61-.85Z"/>
        <path d="M1086.38,2053.81c1.96-.2,2.94-.28,4.91-.43,3.81,10.88,7.58,21.77,11.32,32.68-1.85,0-2.77,.02-4.61,.06-2.32-7.34-3.47-10.99-5.79-18.21-1.18-3.6-2.3-7.14-3.33-10.86-.08,0-.12,.01-.2,.02-1.07,3.91-2.15,7.62-3.32,11.38-2.35,7.55-3.52,11.33-5.87,18.89-1.75,.19-2.63,.29-4.38,.52,3.75-11.35,7.5-22.7,11.27-34.04Zm-5.31,20.02c6.14-.68,9.22-.91,15.39-1.15v3.43c-6.17,.23-9.25,.45-15.39,1.12v-3.4Z"/>
        <path d="M1117.42,2056.57c-4.44-.2-6.67-.24-11.12-.22v-3.61c10.62-.09,15.94,.19,26.5,1.38v3.67c-4.42-.51-6.64-.71-11.08-1,0,10.01,0,20.03,0,30.04-1.72-.15-2.58-.21-4.3-.32,0-9.99,0-19.97,0-29.96Z"/>
        <path d="M1147.68,2056.33c1.94,.36,2.91,.55,4.84,.95,3.76,12.4,7.45,24.82,11.08,37.25-1.8-.51-2.7-.76-4.5-1.23-2.26-8.31-3.4-12.43-5.67-20.61-1.16-4.09-2.27-8.09-3.28-12.27-.08-.02-.12-.02-.2-.04-1.06,3.77-2.12,7.33-3.28,10.92-2.33,7.21-3.49,10.81-5.83,18.02-1.75-.3-2.62-.45-4.37-.71,3.74-10.76,7.48-21.51,11.21-32.27Zm-5.26,19.36c6.11,1.05,9.15,1.68,15.18,3.17v3.58c-6.04-1.5-9.08-2.14-15.18-3.2v-3.54Z"/>
      </g>
    </g>
    <g class="cls-60">
      <g>
        <path d="M1674.88,1817.78c4.65-2.54,6.99-3.76,11.71-6.12,12.77-6.39,25.5,.69,28.09,14.54,2.66,14.27-2.96,28.25-16.62,34.76-4.87,2.29-7.29,3.48-12.07,5.96-3.7-16.38-7.4-32.76-11.1-49.14Zm21.27,38.33c10.82-4.74,14.18-16.66,12.01-27.22-2.01-9.77-10.71-17.8-20.83-11.8-2.1,1.04-3.15,1.57-5.23,2.66,2.93,12.97,5.86,25.95,8.8,38.92,2.09-1.04,3.14-1.55,5.25-2.55Z"/>
        <path d="M1731.78,1792.99c2.95-.98,4.43-1.45,7.39-2.37,9.64,15.39,19.21,30.81,28.73,46.27-2.83,.65-4.25,.99-7.06,1.69-5.05-8.67-10.12-17.32-15.21-25.96-3.06-5.12-6.01-10.16-8.88-15.54-.12,.04-.18,.06-.31,.1-.29,6.38-.66,12.44-1.15,18.64-.82,10.35-1.64,20.7-2.46,31.06-2.63,.9-3.94,1.36-6.55,2.32,1.82-18.74,3.65-37.47,5.5-56.21Zm-1.21,32.6c9.2-3.17,13.85-4.6,23.24-7.11,.48,2.11,.71,3.16,1.19,5.27-9.39,2.49-14.05,3.91-23.26,7.06-.47-2.09-.71-3.13-1.18-5.22Z"/>
        <path d="M1780.41,1786.45c-6.9,1.24-10.33,1.94-17.15,3.53-.5-2.22-.75-3.33-1.25-5.54,13.69-2.98,27.29-5.32,41.19-7.07,.51,2.26,.77,3.39,1.28,5.64-6.97,.75-10.45,1.21-17.37,2.31,3.48,15.38,6.95,30.77,10.43,46.15-2.69,.37-4.03,.57-6.72,1-3.47-15.34-6.93-30.68-10.4-46.02Z"/>
        <path d="M1826.8,1775.58c3.1-.13,4.66-.17,7.77-.23,10.06,17.75,20.04,35.54,29.95,53.38-2.94-.16-4.4-.23-7.34-.33-5.27-9.91-10.56-19.81-15.87-29.7-3.2-5.88-6.29-11.64-9.29-17.71-.13,0-.19,0-.32,0-.32,6.16-.71,11.99-1.25,17.92-.89,9.9-1.79,19.81-2.69,29.71-2.79,.14-4.18,.22-6.96,.42,2.01-17.82,4.02-35.64,6.02-53.46Zm-1.37,31.57c9.74-.51,14.63-.59,24.43-.41,.5,2.2,.75,3.3,1.24,5.5-9.8-.2-14.69-.13-24.44,.35-.49-2.18-.74-3.26-1.23-5.44Z"/>
      </g>
    </g>
    <g>
      <path d="M835.27,786.35c4.21-2.26,6.31-3.38,10.51-5.63,3.72,8.88,13.8,17.47,22.57,20.49,8.87,3.06,21.78,2.87,26.16-7.2,4.14-9.54-1.96-14.98-9.69-22.1-4.41-4.19-6.62-6.28-11.04-10.45-8.95-7.35-15.31-18.78-10.19-30.13,6.87-15.22,27.03-19.48,40.74-13.64,9.6,4.09,19.41,10.22,23.9,21.23-3.75,2.1-5.63,3.15-9.38,5.25-3.87-7.4-9.61-13.07-19.26-16.4-10.79-3.73-20.15-1.2-23.6,6.95-3.68,8.7,3.65,14.82,10.32,20.61,4.27,4.07,6.4,6.11,10.66,10.2,9.48,7.64,15.58,19.45,10.31,31.43-7.21,16.38-28.53,19.92-43.8,14.29-11.88-4.37-22.76-13.01-28.19-24.88Z"/>
      <path d="M934.29,782.31c9.91-23.39,35.58-41.23,61.26-31.62,8.34,3.12,17.61,11.92,20.56,20.72-3.93,1.89-5.89,2.83-9.82,4.72-2.66-6.81-7.38-12.28-15.07-15.22-20.06-7.67-37.23,8.36-44.55,25.61-7.21,16.98-6.8,40.36,13.46,47.88,8.4,3.12,16.39,2.07,24.82-2.07,1.5,3.86,2.25,5.78,3.74,9.65-10.54,5.63-23,6.23-34.01,2.22-25.72-9.36-29.93-39.38-20.4-61.89Z"/>
      <path d="M1039.66,769.67c4.75,1.87,7.12,2.82,11.86,4.71-5.34,12.62-10.67,25.23-16.01,37.85,12.64,5.05,25.25,10.17,37.83,15.37,5.34-12.62,10.67-25.23,16.01-37.85,4.72,1.95,7.07,2.93,11.78,4.9-12.78,30.21-25.56,60.41-38.33,90.62-4.71-1.97-7.07-2.95-11.78-4.9,6-14.18,12-28.37,18-42.55-12.58-5.2-25.19-10.32-37.83-15.37-6,14.18-12,28.37-18,42.55-4.74-1.89-7.11-2.83-11.86-4.71,12.78-30.21,25.56-60.41,38.33-90.62Z"/>
      <path d="M1127.81,805.93c18.66,8.03,37.26,16.19,55.81,24.49-1.66,3.92-2.49,5.88-4.15,9.81-14.69-6.62-29.44-13.11-44.22-19.51-3.99,9.44-7.99,18.88-11.98,28.32,12.49,5.4,24.95,10.88,37.38,16.44-1.66,3.92-2.49,5.88-4.15,9.81-12.42-5.56-24.88-11.04-37.38-16.44-4.64,10.96-9.27,21.92-13.91,32.88,15.24,6.6,30.45,13.3,45.59,20.13-1.66,3.92-2.49,5.88-4.15,9.81-19-8.52-38.05-16.88-57.18-25.11,12.78-30.21,25.56-60.41,38.33-90.62Z"/>
      <path d="M1204.4,839.86c5.57,2.55,8.35,3.83,13.91,6.41-1.28,14.84-2.56,29.68-3.84,44.52-.74,6.67-1.11,10.01-1.85,16.68,.22,.1,.33,.15,.54,.26,4.16-5.06,6.24-7.6,10.4-12.66,9.66-10.9,19.32-21.8,28.98-32.69,5.53,2.64,8.29,3.97,13.81,6.63-12.78,30.21-25.56,60.41-38.33,90.62-4.33-2.09-6.49-3.13-10.83-5.21,6.39-15.1,12.78-30.21,19.17-45.31,4.67-10.61,10.13-20.85,15.45-31.14-.16-.08-.24-.12-.41-.19-5,6.11-7.49,9.17-12.49,15.29-9.28,9.86-18.55,19.72-27.83,29.59-3.26-1.54-4.89-2.3-8.15-3.83,.86-13.83,1.71-27.65,2.56-41.48,.92-8.03,1.38-12.05,2.3-20.08-.11-.05-.16-.08-.27-.13-3.43,11.12-7.23,22.16-11.65,32.93-6.39,15.1-12.78,30.21-19.17,45.31-4.25-1.97-6.38-2.94-10.64-4.89,12.78-30.21,25.56-60.41,38.33-90.62Z"/>
      <path d="M1310.01,890.49c5.16,2.58,7.73,3.88,12.88,6.49-2.91,35.26-5.85,70.51-8.79,105.77-4.8-2.49-7.2-3.73-12.01-6.2,2.1-19.43,4.19-38.85,6.27-58.28,1.23-11.68,2.61-23.3,4.2-34.93-.21-.11-.32-.16-.54-.27-7.12,8.81-14.31,17.52-21.64,26.15-12.29,14.29-24.57,28.58-36.85,42.88-4.63-2.29-6.95-3.42-11.59-5.69,22.68-25.31,45.38-50.61,68.08-75.9Zm-36.71,46.77c13.49,6.71,26.95,13.49,40.38,20.34-1.59,3.76-2.38,5.64-3.97,9.39-13.43-6.85-26.88-13.62-40.38-20.34,1.59-3.76,2.38-5.64,3.97-9.39Z"/>
    </g>
  </g>
  <g id="Layer_19" data-name="Layer 19">
    <path class="cls-7" d="M1785.86,210.32c32.99,.89,57.71,10.89,69.85,15.94,5.47,2.27,10.69,4.46,15.6,6.88"/>
    <path class="cls-7" d="M1519.09,475.4c18.49-26.72,34.39-54.83,46.55-82.62,.4-.93,2.29-4.48,4.96-9.52,32.11-60.75,50.16-94.91,77.8-120.9,1.46-1.38,2.94-2.72,4.43-4.01,54.28-47.67,123.2-48.14,129.67-48.09,1.08,.01,2.16,.03,3.22,.06h.13c23.56,.82,55.08,9.99,85.45,22.82,51.73,21.85,95.9,54.68,100.12,74.28h-.01c-1.45-4.01-3.33-7.86-5.7-11.44-9.78-14.77-26.5-23.29-43.01-29.72-7.34-2.86-14.82-5.44-22.4-7.65-12.62-3.69-25.52-6.36-38.57-7.6-4.06-.39-8.14-.65-12.23-.75-49.08-1.23-97.32,19.58-134.1,52.1-.1,.09-.19,.17-.29,.26-36.61,32.48-57.87,75.78-77.51,120.64-15.55,35.51-36.86,71.65-61.76,104.79"/>
    <g>
      <path class="cls-53" d="M1845.51,419.43c1.2-1.51,3.35-3.97,4.45-5.36,52.09-66.27,57.43-97.48,58.32-114.35,.57-10.58-.43-19.08-2.06-25.82-1.64-6.75-3.92-11.74-5.92-15.28,7.58,2.21,15.06,4.79,22.4,7.65,16.51,6.43,33.23,14.95,43.01,29.72,2.37,3.58,4.25,7.43,5.71,11.44,3.68,10.17,4.61,21.42,3.86,32.29-3.01,43.43-30.33,81-58.32,114.35l-20.95,25.5"/>
      <g class="cls-51">
        <path class="cls-55" d="M1956.63,288.52c23.78,1.7,44.26,16.64,63.29,31,8.09,.03,10.15-11.16,9.52-19.23-1.58-20.42-3.85-42.35-17.23-57.85-11.3-13.09-29-19.3-46.27-20.1s-34.37,3.23-51.08,7.67c-12.23,3.25-25.07,7.14-33.61,16.49-8.01,8.77-10.99,21.43-9.37,33.19,7.23,52.79,51.98,6.48,84.75,8.83Z"/>
      </g>
      <path class="cls-7" d="M1845.51,419.43c1.2-1.51,3.35-3.97,4.45-5.36,52.09-66.27,57.43-97.48,58.32-114.35,.57-10.58-.43-19.08-2.06-25.82-1.64-6.75-3.92-11.74-5.92-15.28,7.58,2.21,15.06,4.79,22.4,7.65,16.51,6.43,33.23,14.95,43.01,29.72,2.37,3.58,4.25,7.43,5.71,11.44,3.68,10.17,4.61,21.42,3.86,32.29-3.01,43.43-30.33,81-58.32,114.35l-20.95,25.5"/>
    </g>
    <g>
      <path d="M1594.78,383.13l4.84-7.28c3-4.52,6.93-6.97,11.8-3.74,4.68,3.11,4.47,8.03,1.48,12.55l-2.25,3.39,8.51,5.65-2.59,3.9-21.79-14.47Zm14.75-.12c1.98-2.98,1.8-5.44-.65-7.07-2.5-1.66-4.45-.62-6.43,2.37l-1.98,2.99,7.08,4.7,1.98-2.99Zm1.38-2.65l16.38,1.08-2.89,4.35-13.04-1.08-.46-4.35Z"/>
      <path d="M1607.98,362.86l8.81-14.27,3.33,2.05-6.37,10.31,5.69,3.51,5.39-8.73,3.33,2.05-5.39,8.73,6.58,4.06,6.58-10.65,3.33,2.06-9.02,14.61-22.26-13.74Z"/>
      <path d="M1630.31,351.22c-7.27-4.59-9.11-10.74-5.87-15.87,3.24-5.13,9.58-6.12,16.85-1.53,7.41,4.68,9.31,10.87,6.08,16-3.24,5.13-9.64,6.08-17.05,1.4Zm8.42-13.35c-5.07-3.2-9.1-3.18-10.88-.36-1.78,2.82-.07,6.46,5.01,9.66,5.49,3.46,9.49,3.42,11.26,.61,1.78-2.82,.09-6.44-5.39-9.91Zm6.94,13.62l2.18-4.28c2.51,.7,4.55-.63,5.88-2.74,.43-.68,.63-1.38,.72-1.95l3.44,1.2c-.11,.94-.46,2.06-1.22,3.25-2.67,4.22-6.88,5.43-11,4.52Z"/>
      <path d="M1646.6,331.57l-13.21-9.33,2.7-3.82,13.49,9.53c3.46,2.45,5.96,2.08,7.57-.2,1.62-2.29,1.16-4.82-2.3-7.26l-13.49-9.53,2.59-3.67,13.21,9.33c5.83,4.12,6.61,8.77,3.3,13.46-3.32,4.71-8.02,5.6-13.85,1.48Z"/>
      <path d="M1649.32,300.33l10.91-12.74,2.97,2.55-7.89,9.2,5.08,4.35,6.68-7.8,2.97,2.55-6.68,7.79,5.87,5.03,8.15-9.51,2.97,2.55-11.17,13.04-19.86-17.02Z"/>
      <path d="M1681.08,298.7l-.23-4.18c2.67-.07,5.36-.97,7.35-2.85,2.21-2.09,2.46-4.17,1.21-5.5-1.6-1.69-3.33-.92-5.92,.05l-3.69,1.33c-2.73,1.11-6.19,1.58-8.82-1.21-2.86-3.03-2.34-7.93,1.54-11.6,2.33-2.2,5.39-3.37,8.37-3.33l.3,3.78c-2.27,.19-4.14,.84-6.06,2.65-1.8,1.7-2.25,3.67-.93,5.07,1.4,1.48,3.43,.59,5.78-.38l3.52-1.27c3.3-1.35,6.38-1.53,8.97,1.22,2.92,3.09,2.75,8.12-1.7,12.32-2.67,2.53-6.17,3.9-9.69,3.9Z"/>
      <path d="M1692.77,263.16l-6.54,5.01-2.38-3.1,16.77-12.86,2.38,3.1-6.54,5.01,13.53,17.65-3.69,2.83-13.53-17.65Z"/>
    </g>
    <g class="cls-58">
      <g>
        <path class="cls-2" d="M1601.36,415.11c0,11.73,.56,22.26-20.84,37.06"/>
        <polygon points="1585.33 457.67 1577.28 445.52 1575.23 455.62 1585.33 457.67"/>
      </g>
    </g>
  </g>
</svg>