<?xml version="1.0" encoding="utf-8"?>
<!-- Generator: Adobe Illustrator 27.6.0, SVG Export Plug-In . SVG Version: 6.00 Build 0)  -->
<svg version="1.1" id="Layer_1" xmlns="http://www.w3.org/2000/svg" xmlns:xlink="http://www.w3.org/1999/xlink" x="0px" y="0px"
	 viewBox="0 0 1920 1080" style="enable-background:new 0 0 1920 1080;" xml:space="preserve">
<style type="text/css">
	.st0{fill:#FFF0E6;}
</style>
<g id="hubble">
	<g>
		<path class="st0" d="M1065.9,299.3c-0.1-0.3-0.2-0.6-0.3-0.9c-1.9-1.5-3.8-3-5-4c-93.1,77.3-187.6,151.7-282,226.5
			c1.5,1.4,3.2,2.9,4.8,4.5c13.2,14.1,27,27.7,36,45.2c8.5,16.6,17,33.3,25.2,50c4.2,8.5,8.2,17.1,9,26.8c0,0.6,0.5,1.1,0.7,1.6
			c0.9,2.5,2.3,5,2.6,7.5c0.3,2.7,1.7,3.2,3.7,2.7c1.3-0.3,2.4-1.2,3.6-1.8c5.7-3.1,11.2-6.4,17-9.3c4.8-2.4,9.4-2,13.6,1.8
			c7.3,6.4,14.8,12.6,22.2,18.9c8.3,7.2,16.5,14.4,24.3,21.2c115.3-69.8,230.2-139.5,345-209c-0.6-1.1-1.7-2.8-2.5-4.6
			c-3-6.1-2.8-6.8,3.1-10.1c8.1-4.6,16.1-9.3,24.3-13.9c3.3-1.8,6.8-3.3,10.5-5.1c-0.3-0.9-0.8-2.5-1.3-4c-1.3-4.2-1.9-4.4-5.4-1.6
			c-5.2,4.1-10.3,8.2-15.7,12.1c-4.9,3.5-10.4,6-17.6,5.3c10.1-10.4,21.3-18.2,32.9-25.4c-12.1-48.9-37.2-90.6-70.9-127.5
			c-2.2,2-3.8,3.8-5.7,5.1c-3.9,2.8-8.2,2.2-13.4-1.6c-4-2.9-4.8-4.8-3.1-10c1.1-3.5,2.8-6.9,4.4-10.7c-7.7-6.1-15.7-12.5-23.7-18.8
			c-4.9-3.9-5.1-3.9-10.5,0c1.3,2.2,2.6,4.5,4,7c-4.6,0.7-7.7-1-9.6-4.8c-1.2-2.4-1.1-4.5,0.9-6.5c4.8-4.7,12.1-5.5,17.3-1.3
			c12.7,10.2,25.1,20.6,38,31.2c2.1-1.9,4.4-4,6.7-6.1c10.1-9.8,20-19.8,30.3-29.4c22.3-20.8,44.9-41.4,67.3-62.1
			c10-9.3,18.6-19.8,23.8-32.6c4.2-10.4,5.4-20.9,1.3-31.6c-1.9-5-4.1-9-11.2-8.6c-11.7,0.7-23.2,1.4-33.1,8.4
			c-8.3,5.9-16.7,11.9-24.1,18.9c-14.3,13.7-27.9,28.2-41.9,42.2c-21.3,21.2-42.8,42.2-64.2,63.2c0.5,0.7,0.9,1.3,1.5,2.2
			c-1.3,0.1-2.2,0.5-3,0.2c-1.5-0.5-3.5-1-4.2-2.2c-0.5-0.9,0.5-3.1,1.5-4.1c10.3-10.5,20.7-20.9,31.2-31.1
			c18.6-18.1,37.4-35.9,55.8-54.1c13.6-13.4,26.7-27.2,42.2-38.6c10.2-7.5,21.5-10.9,34-9.8c2.8,0.2,5.5,1.3,8.9,2.1
			c0.3-0.2,1.4-1,2.6-1.9c-1.6-0.8-2.8-1.4-3.9-2c1.8-3.3,4.4-4.5,6.9-3.2c3.1,1.5,3.5,4.7,1.2,9.8c5.6,7.1,7,15.4,6.5,24.2
			c-0.7,12.3-6,22.7-12.9,32.4c-15.4,21.5-34,40.1-53.9,57.3c-21,18.1-41.6,36.5-60.5,56.8c-1.4,1.5-3.3,2.6-5.1,4
			c2,1.8,3.1,2.6,4,3.5c1,0.9,2,1.9,2.9,2.9c30.9,34.7,54,73.6,64.6,119.3c1.1,4.8,2,9.7,5.8,13.4c1.2,1.1,2.1,3.1,2.1,4.6
			c0,4.6,1.6,8.5,3.5,12.5c2.4,5-1.5,11.8-7.5,14.5c-5,2.3-9.9,0.4-12.8-5c-0.8-1.5-1.4-3.1-2.3-5.2c-6,4.3-11.9,8.4-17.7,12.5
			c0.4,1.1,0.6,1.7,0.9,2.2c1.7,3.3,1.5,6.2-1.6,8.5c-5.8,4.3-11.5,8.8-17.6,12.5c-66,40.7-132.1,81.4-198.3,121.9
			c-4.4,2.7-8.4,5-6.4,11.1c0.1,0.3,0,0.8,0,1.1c-0.5,6.1-4.6,9.2-10.5,7.9c-2.5-0.6-5.2-1.1-7.5-2.2c-2-0.9-3.4-0.7-5.1,0.4
			c-17.6,10.9-35.2,21.8-52.7,32.7c-0.8,0.5-1.5,1.1-2,1.6c1.5,3.1,3.1,5.8,4.2,8.7c1.5,4.2-0.8,7.2-5.3,7.2c-1.5,0-3-0.5-4.4-0.5
			c-1.1,0-2.3,0.2-3.4,0.7c-4.3,1.7-8.5,3.5-12.8,5.3c-0.2-0.4-0.4-0.8-0.5-1.2c3.3-2.3,6.7-4.6,10.1-6.9c-1-1.3-2.1-2.6-3.2-4
			c-8.2,4.8-16.4,9.6-24.9,14.6c1.7,1.4,2.8,2.6,4.1,3.5c5.1,3.1,6.6,7.9,5.5,13.1c-0.8,3.7,1.4,8.6-2.2,10.9
			c-5.7,3.5-2.1,6.7-0.7,10.2c0.1,0.2,0.2,0.5,0.3,0.7c18,34,36,67.9,54.1,101.8c5.2,9.9,10.6,19.7,15.9,29.4c2-0.2,3.8-0.5,5.5-0.6
			c26.7-1.4,51.3,24.1,49.3,51.2c-1.7,23.9-20.4,40.6-43.1,38.4c-19.4-1.9-33.4-12-41.4-29.5c-7.8-17.2-5.6-33.6,6.4-48.3
			c2.2-2.7,5.5-4.6,8.6-7.1c-23.5-44.1-47.4-89.2-71.4-134.3c-1.2,0.6-2,1-2.7,1.4c-85.2,49.4-170.5,98.8-255.8,148.2
			c-22.4,13-44.9,25.9-67.3,38.9c-3.7,2.2-7.3,4.5-11.1,6.7c-3.3,1.8-6.8,1-9.4-1.9c-0.5-0.6-1.3-1.2-2-1.3c-5.1-1-7.8-4-9.5-8.9
			c-4-11.6-8.3-23.2-12.7-34.7c-0.8-2.1-2-4.6-3.8-5.7c-5.4-3.2-11.1-6-16.9-8.7c-3.8-1.7-5.8-4.1-5.6-8.3c0.1-1.7,0.2-3.5,0.4-5.4
			c-5.3-1.2-6.5-5.1-6.3-9.9c0.1-2.4,0.4-4.7,0.2-7.1c-0.1-1.2-0.7-2.7-1.6-3.5c-6.3-5.4-13.1-10.4-19.2-16
			c-13.6-12.4-22.6-28-30.1-44.6c-2.4-5.2-4.8-10.3-7.3-15.7c-8,4.4-15.4,9.2-25.3,7.3c6.9-5.2,13.9-10.5,21-15.9
			c-0.3-0.7-0.8-1.7-1.4-2.9c-7.9,4.8-14.7,11.7-25.5,9.6c5.4-8.8,15-11.3,22.4-17.2c-0.6-1.6-1.4-3.3-2-5
			c-4.8-12.2-10-24.2-14.2-36.5c-2.6-7.8-4.9-16.2,1.4-23.8c0.2-0.2,0.2-0.7,0.2-1.1c-0.3-3.1,1.6-4.7,4-6.1
			c30.6-18,61.3-35.9,91.7-54.2c56.1-33.7,111.9-67.7,168-101.4c8-4.8,16.5-8.8,24.8-13c1-0.5,2.7-0.6,3.6,0
			c6.7,3.8,13.3,7.7,19.7,11.9c2.9,1.9,5.3,4.4,7.5,6.2c9.8-8.1,19.2-15.9,28.6-23.6c-2.6-5-5-10.1-7.8-14.9
			c-31.4-54.3-62.9-108.6-94.2-163c-7-12.2-13.5-24.7-20.2-37c-0.5-0.9-1.8-1.5-2.8-1.8c-5.1-1.4-8.9-6.5-9-12.5
			c-0.1-5.3,2.3-8.3,8-10.2c0.9-0.3,1.8-0.7,2.7-1c-3.2-8.9-4.9-17.8-4.4-27c0.2-5.1,1.3-10.1,2.4-15c0.2-0.9,2.7-2.4,3.3-2
			c3.2,1.6,6.3,3.4,9.1,5.6c16.2,13,29.9,28.4,38.7,47.3c3,6.4,6.9,13.1,4.3,21.2c-1.4,4.3-2,5.5-6.8,5c-9.3-0.9-18-3.8-26.1-8.4
			c-0.3,0-0.6,0-0.9,0.1c0.1,0.2,0.2,0.5,0.3,0.7c2,3.4,4.1,6.8,6.1,10.2c35.6,61,71.1,122,106.7,183c3.7,6.4,6.4,6.9,12.1,2.4
			c54-42.8,108-85.7,162.1-128.4c23.3-18.4,46.8-36.4,70.3-54.7c-0.6-0.5-1.6-1.3-2.6-2.2c4.6-3.9,4.8-4.1,9.8-0.7
			c14.8,9.9,26.7,22.8,37,37.1c1.1,1.5,1.6,3.4,2.5,5.1c18.7-10,36.9-20.9,56.8-29.1c0.1,0.9,0.2,1.5,0.1,1.6
			c-26.9,17-53.8,34-80.9,51.1c0.2,0.6,1.1,2.1,1.3,3.6c0.2,1.8,0.1,3.7-0.3,5.4c-0.1,0.4-2.8,0.6-2.9,0.5c-1.2-4.3-4-6.8-7.8-9.3
			c-3.4-2.2-6.2-2.2-9.3-1c-3.7,1.4-5.7,4.3-6.9,8.5c6.9-3.4,13-3.7,18.3-1.1c4.1,2,4.3,2.9,2,6.7c-0.2,0.3-0.1,0.8-0.2,1.1
			c-2.3,6.2-7.7,9.6-14.3,9c-4.2-0.4-7.1-3-8.1-7.1c-0.2-0.7-0.2-1.5-0.6-2c-1.5-1.6-3.1-3-4.2-4c-29.5,20.9-61.8,38.4-92.2,58.9
			c22.8,24.3,36.7,42.1,36.8,48.3c-1.9-1.5-3.5-2.3-4.5-3.6c-11.9-14.5-23.7-29.1-35.7-43.7c-2.2-2.7-4.2-6.5-8.6-5
			c-6.7,2.2-13.2,4.8-19.7,7.2c13,19.1,25.7,37.8,38.5,56.4c-0.5,0.4-1.1,0.8-1.6,1.2c-16.7-15.5-27.1-35.7-40.1-54.7
			c-0.2,1.5-0.6,2.8-0.4,3.9c0.4,2.1,0.6,4.6,1.8,6.2c1.8,2.4,5,3.9,6.6,6.4c9,14.3,17.7,28.8,26.6,43.2c0.8,1.3,1.9,2.6,3.2,3.2
			c5.3,2.2,10.6,4.3,16.1,6.1c1.2,0.4,3.4,0.1,4.2-0.7c3.9-4.5,9.2-6,14.6-6.4c2.6-0.2,6.2,1,7.9,3c3.7,4.2,6.7,9.2,9.7,14.1
			c2.3,3.8,3.2,8.7,8.4,10.2c0.5,0.1,0.7,1.3,1,2.1c-0.8,0.2-1.6,0.8-2.3,0.7c-1.9-0.3-3.9-0.8-5.8-1.4
			c-17.2-6.3-34.1-13.3-51.5-18.8c-23.8-7.6-48-14.2-72.1-21c-9-2.5-18.1-4.5-27.1-6.9c-1.3-0.3-2.3-1.5-3.6-2.5
			c-6.7,5.4-13.5,10.9-20.5,16.6c10.6,2.6,11.1,2.8,15,7.7c2,2.5,3.9,5.1,5.9,7.7c2.5,3.2,5,6.4,7.5,9.6c4-4.9,4.3-6.8,1.7-11.5
			c-2.9-5.2-6-10.4-8.8-15.6c-2-3.8-1.2-5.1,2.7-5.5c0.4-2,0.8-3.9,1.3-6.4c2.4,2,3.9,4.3,6,5c21.8,6.9,43.8,13.5,65.6,20.4
			c24,7.5,48.1,15,71.1,25.3c1.5,0.7,2.9,1.6,4.4,2.4c-0.1,0.4-0.2,0.7-0.4,1.1c-2.2-0.5-4.5-0.7-6.6-1.4
			c-7.5-2.7-14.9-5.5-22.3-8.2c-0.9-0.3-1.9-0.5-3.5-0.9c2.5,4.5,4.6,8.3,6.7,12.1c1,1.9,2.2,1.9,4,1.2c3.7-1.3,7.5-2.3,12-3.6
			c-1.6,2.5-2.5,4.3-3.8,5.7c-1.4,1.5-3.2,2.8-5,3.9c-5,3.1-9.3,2-11.8-3.2c-2.4-4.9-4.6-9.9-6.3-15.1c-0.8-2.5-2-3.6-4.2-4.3
			c-32-9-63.9-18-95.9-27c-2.1-0.6-4.2-1.1-6.8-1.8c2.8,4.9,5.4,9,7.7,13.3c3.3,6.2,2.1,11.1-3.4,15.5c-2.8,2.2-5.5,2.2-8-0.3
			c-2-2-3.8-4.2-5.9-6.5c-1.1,4-3.9,5.2-7.2,4.8c-4.4-0.6-8.9-1.1-13.1-2.5c-4.8-1.6-8.7-1.4-12.9,1.7c-5,3.7-8.9,2.9-13.1-1.8
			c-5.2,4.2-10.5,8.3-15.8,12.5c-1.8,1.4-3.8,2.6-5.5,0.3c-1.5-2.1,0-3.7,1.7-5c17.5-14,35-28.1,52.6-41.9
			c47.3-37.2,94.6-74.4,142-111.5c25.3-19.8,50.6-39.5,76.1-59.2c2.2-1.7,1.2-3.4,0.8-5.2c-0.2-0.7-0.8-1.3-1-1.7
			c2,0.5,3.8,0.9,5.6,1.4C1065,299.2,1065.4,299.2,1065.9,299.3z M1066.4,299.5c0.2,0.3,0.3,0.6,0.5,1c0.3,0.2,0.6,0.4,0.9,0.6
			s0.6,0.4,0.8,0.7c0.3,0.1,0.6,0.3,0.9,0.4c-0.1-0.2-0.3-0.5-0.4-0.8c-0.3-0.3-0.5-0.5-0.8-0.8c-0.3-0.2-0.6-0.5-0.8-0.7
			C1067.1,299.8,1066.8,299.7,1066.4,299.5z M516.4,707.3c3.5,5.6,6.8,11.2,10.2,17c7.5-4.5,14.9-8.9,22.4-13.4
			c-10.2-19.1-23.3-36.2-36.1-53.3c19.2,12.3,28.6,32.4,40.8,50.7c16.1-9.7,32.1-19.3,48.2-29c-13.3-22.1-29.8-41.6-46.3-61.6
			c-30.4,18.7-60.4,37.3-90.9,56.1c23,14.9,33.5,38.2,46.7,60.1c4.2-2.6,8.5-5.3,13.5-8.4c-6.2-9-12.2-17.7-18.5-26.3
			c-6-8.3-12.7-16.3-16.2-26.2c0.2-0.2,0.4-0.4,0.6-0.6C502.5,681.7,508.8,695,516.4,707.3z M719.1,649.4
			c-11.5-21.4-26.9-40.1-42.1-58.9c-6.9-8.5-13.2-17.5-19.9-26.2c-1.3-1.8-3-3.3-4.7-5.2c-13.4,8.1-26.7,16.1-39.8,24
			c21.4,15.8,35.1,37.9,49.6,59.6c9.3-5.4,18.7-10.8,28-16.2c0.3,0.6,0.7,1.1,1,1.7c-9,5.8-18,11.7-27.2,17.7
			c13.9,23.5,27.9,46.9,36.5,73.2c0.4-0.2,1.5-0.8,2.6-1.4c11.3-6.6,22.5-13.2,33.9-19.7c1.7-1,3.7-1.4,5.5-2.1
			c0.8,2.8-1.5,3.8-3.1,4.9c-9.2,6.2-18.4,12.4-27.8,18.3c-50.8,31.8-101.6,63.5-152.4,95.3c-1.3,0.8-2.5,1.6-3.8,2.4
			c-5.1,3.2-5.1,3.2-3.8,9.1c0.5,2.2,0.5,4.4,0.8,6.6c-0.4,0.1-0.8,0.2-1.2,0.3c-1.4-2.5-2.8-5.1-4.3-7.5c-0.9-1.4-2-2.7-3.1-4
			c-0.4-0.5-0.9-0.9-1.1-1.5c-7.4-23.6-18.3-45.6-29.7-67.4c-0.6-1.1-1.2-2.1-1.8-3.1c-0.3,0.1-0.6,0.2-0.9,0.3
			c0.4,1.4,0.7,2.8,1.2,4.2c7.2,20,14.5,40,21.7,59.9c0.5,1.4,0.9,2.8,1.1,4.3c0.1,0.7-0.6,1.5-0.9,2.2c-0.7-0.4-1.7-0.6-2-1.2
			c-1.1-2.1-2-4.2-2.8-6.5c-10.3-27.6-20.9-55.2-34.5-81.3c-3.6-6.9-8.1-13.4-12.5-19.9c-3.8-5.8-7.9-11.4-11.5-17.7
			c4.6,3.3,9.2,6.5,13.7,9.8c-1.9-6.6-18-21.3-25.9-23.4c0,3.4-0.8,6.9,0.1,9.8c3.1,9.7,6.7,19.3,10.3,28.8
			c2.2,5.7,4.8,11.2,7.3,16.9c3.3-1.1,6.5-2.2,9.7-3.3c0.3,0.4,0.6,0.8,0.9,1.2c-1.7,1.9-3.1,4.2-5.1,5.6c-3.3,2.3-3.3,4.5-0.7,7.4
			c1.7-0.4,3.5-1.2,5.3-1.2c1.2-0.1,3.1,0.4,3.5,1.2s-0.2,2.6-1,3.5c-1.2,1.5-2.8,2.7-4.3,4.1c9.6,20.9,17.8,42.5,34.2,59.3
			c5.2,5.3,10.9,10.2,16.5,15.2c1.5,1.3,3.2,2.4,5,3.1c2,0.8,1.9,1.7,2.1,3.7c0.6,5.5-0.5,11.3,3.5,16.3c1.5,1.9,1.7,5.1,1.9,7.8
			c0.3,3.9,1.7,6.3,5.9,7.4c5,1.3,9.8,3.5,14.7,5.3c1.9,3,4.4,5.8,5.7,9c4.7,11.5,9,23.2,13.6,34.7c0.9,2.3,1.8,5.1,6,4.9
			c-0.6-3.2-1.1-6.3-1.8-9.4c-1.9-8.6-3.9-17.2-5.9-25.8c-0.7-3-1.5-5.9-2.1-8.9c-1.3-5.8-4.8-7.5-10.3-5.2c-1.3,0.5-3,0-4.6,0
			c-0.1-1.7-0.3-3.5-0.5-6c0,0-0.9-0.6-1.8-1.2c7.2,1.8,11.7-3.5,16.8-6.7c93.5-58.8,187-117.6,280.5-176.4c7.3-4.6,15-8.8,22.2-13
			c-1.3-4.5-2.7-9-4-13.7c-0.9,0.6-1.8,1.3-2.9,1.9c-6.8,3.5-13.6,6.7-21.5,6.8c-3.7,0-6.2-1.9-6-5.2c0.6-7.8-3.5-13.9-6.6-20.1
			c-11-21.6-22.4-43.1-33.8-64.5c-8-15-19.6-27.3-30.7-39.9c-5.4-6.1-11-11.9-16.8-17.6c-3.1-3-6.8-5.3-10.1-8.1
			c-2.7-2.3-5.2-4.9-7.6-7.2c-28.1,20.3-59,37-89,56c4.7,5.9,9.4,11.7,14,17.5c12.9,16.2,26.4,31.9,38.5,48.6
			c14.5,20.2,24.9,42.7,33.9,65.8c0.7,1.7,1.3,3.5,1.5,5.3c0.1,0.6-1.3,1.3-2,1.9C734.7,680.4,727.3,664.7,719.1,649.4z M890,721.4
			c-18.8,10.5-37.4,21.3-56.4,31.4c-78.3,41.8-156.7,83.4-235.1,125.2c-3.1,1.6-6.1,3.4-9.3,5.2c0.7,2.4,1.4,4.6,2.1,7.1
			c68.3-35,134.9-72.5,204-105.3c0.3,0.5,0.6,0.9,0.9,1.4c-0.9,0.8-1.7,1.8-2.8,2.3c-14,8.1-27.8,16.5-42,24.1
			c-51.3,27.4-102.7,54.5-154.1,81.7c-1.4,0.8-2.8,1.4-4.5,2.2c2,8.9,3.9,17.8,5.8,26.3c116-67.4,231.9-134.7,347.9-202.2
			c-19.2-16.2-38.7-32.6-58-48.9c-102.3,66.8-205.6,131-308.9,195.5c2.4,2.9,4.7,5.7,7.3,8.8c50.9-26.9,102-54,153.2-80.9
			c51-26.7,101.5-54.1,153.4-78.9c0.3,0.5,0.6,1,0.9,1.6C893,719.2,891.6,720.4,890,721.4z M1063.3,304.9
			C995.5,359,928.4,412.8,860.9,466.7c29.8,7.9,58.9,15.6,88.1,23.3c-6-8.7-11.8-17.4-17.9-26c-4.5-6.4-9.2-12.7-13.8-19
			c-0.2-0.3-0.4-0.8-0.7-0.9c-6.3-1.4-3.8-6.6-4.1-10.3c-0.3-4.2,1.3-8.6,5.3-10.4c7.7-3.5,15.5-6.6,23.5-9.1c2.5-0.8,5.7,1,8.6,1.6
			c0,0.4,0,0.9,0,1.3c1.4-0.8,2.7-1.6,4.1-2.4c25.6-15.2,51.1-30.5,76.7-45.7c3.2-1.9,6.7-3.3,9.9-5.2c1.2-0.7,1.8-2.7,2.9-2.9
			c5.2-0.7,5.3-5.9,8.3-8.7c5.4-5,11.3-6.3,18.2-4.4c1.5,0.4,3.4,0.2,4.7-0.5c6-3.2,11.9-6.7,18.4-10.4
			C1082.9,325.8,1072.9,315.2,1063.3,304.9z M530,729.9c12.6,23.8,25.7,47.2,33,73.5c25.8-15.8,52.1-31.9,78.3-48
			c-0.5-7.1-29.8-61-37.3-72.1c-15.7,9.8-31.3,19.6-47.4,29.7c14,22.7,27.7,45.3,35.4,70.9c-0.4,0.2-0.8,0.5-1.1,0.7
			c-1.6-2.4-3.3-4.6-4.7-7.1c-7.4-13.8-14.5-27.8-22-41.5c-3.7-6.8-7.8-13.2-11.9-20.1C544.6,720.7,537.3,725.3,530,729.9z
			 M1010.8,878.6c-11.7,7.7-16.1,23.1-10.8,38.1c5.7,16.2,17,26.8,34.3,29c22.2,2.9,38.8-13.5,37.2-35.8
			c-1.6-21.5-21.3-39.3-43.5-38.7c1.6,3,3.1,5.8,4.5,8.6c3.1,6.1,5.9,12.3,9.2,18.3c1.3,2.4,3.2,4.7,5.3,6.5
			c4.2,3.4,4.8,10.1,0.9,15.3c-3.1,4.3-8.3,4.9-12.8,1.6c-5-3.7-7.2-9.8-5.7-16.2c0.2-0.9,0.2-2-0.2-2.8
			c-5.1-8.8-10.3-17.6-15.6-26.5C1012.6,876.9,1011.8,877.9,1010.8,878.6z M609.3,679.9c6.3,12,12.8,23.9,18.8,36
			s11.7,24.3,17.6,36.8c6.6-4,13.8-8.4,20.8-12.7c-6.6-27.1-19.1-51.1-34.2-74.5C624.5,670.4,617,675.1,609.3,679.9z M638.2,661.9
			c14,23.9,26.9,48,32.3,75.7c9.6-5.8,19.2-11.7,28.2-17.2c-1.6-2.1-3.4-3.7-4.2-5.6c-9-22.6-20.9-43.7-34-64.2
			c-0.4-0.6-0.9-1.2-1.4-1.9C652.2,653.2,645.2,657.5,638.2,661.9z M586,599.3c9,9.3,18.4,18.1,26.7,27.9
			c8.4,9.8,15.7,20.5,23.9,31.2c6.6-4,13.6-8.2,21.2-12.8c-7.5-10.9-14.6-21.7-22.2-32.2c-7.5-10.4-15.6-20.3-26.8-28
			C601.3,589.9,593.4,594.8,586,599.3z M630.4,662.1c-5.1-7.1-9.7-14.3-15.1-20.7c-10.3-12.3-21.2-24.1-31.8-36.2
			c-2-2.3-3.8-2.4-6.3-0.7c-5.6,3.7-11.4,7-17.5,10.8c18.2,18.5,34,38.4,47.3,60.9C614.9,671.4,622.4,666.9,630.4,662.1z M685,249.6
			c6.1,16.6,21.7,28.5,37.8,28.9c0.5,0,1,0,2.5-0.1c-1.2-4.5-1.8-8.9-3.5-12.9c-5.7-13.4-14.8-24.5-24.3-35.2
			c-4.8-5.5-9.8-10.7-14.8-16.1c-0.5,0.4-0.9,0.8-1.4,1.2C680.8,227,680.9,238.5,685,249.6z M547.5,813.1c4.4-2.7,8.3-5,12.1-7.5
			c0.7-0.5,1.1-2.3,0.8-3.1c-8.9-24.1-19-47.8-31.9-70.1c-0.2-0.3-0.5-0.5-1-1c-4.3,2.6-8.6,5.2-13.4,8.1
			C527.2,763.2,539.1,787.1,547.5,813.1z M888.7,663.7c2.8,1.9,5.2,3.2,7.3,5c18.5,15.9,36.9,32,55.4,47.9c0.2,0.1,0.5,0.1,0.9,0.2
			c0.5-3.4,1.1-6.7,1.6-9.8c-23.8-15.1-44.3-34.3-66.3-52.7C888,658.2,888.4,661.4,888.7,663.7z M766.4,416.3
			c-0.9-6.6-57.6-103.9-62.2-106.8C724.2,345.6,745,381.1,766.4,416.3z M1008,514.3c-3.8-6.3-6.4-12.4-11.6-16.5
			c-1-0.8-3.3-0.5-4.8-0.1c-4.4,1.1-8.8,2.5-13.2,3.7C987.6,505.4,997.2,509.6,1008,514.3z M826.5,502.5c6.6,1,13.2,2.1,20.1,3.1
			c-0.9-8.7-3-10.7-11-10.7c-3,0-5.9,0-9.1,0C826.5,497.7,826.5,500,826.5,502.5z M1312.6,463.2c1.7,2.2,3.6,3.4,6.4,2
			c2.9-1.4,4.7-4.7,4-7.6c-0.5-2.2-1.2-4.3-1.8-6.5c-3.7,2.7-7.5,5.5-11.6,8.6C1310.7,461,1311.7,462.1,1312.6,463.2z M1231.4,293.7
			c-1.1,2.3-2.3,4.2-3,6.3c-0.5,1.4-1,3.8-0.3,4.5c1.8,1.8,4.2,3.3,7,1.5c2.2-1.4,4.2-3,6.7-4.6
			C1238.2,298.7,1234.9,296.3,1231.4,293.7z M679.3,258.8c-1.6,0.4-4.1,2.5-4,3.4c0.5,2.3,1.6,5.2,3.5,6.4c3.3,2.1,4.8-1.5,7.2-4
			C682.6,263.4,684.2,257.5,679.3,258.8z M1059.4,365.9c-1.3,0.4-2,3.1-3,4.7c1.7,0.7,3.4,2.1,4.9,1.9c3.8-0.4,6.2-3,8.7-7.5
			C1065.9,365.2,1062.5,365,1059.4,365.9z M1099.3,333.4c-4.1-4.7-8-9.3-12.1-13.7c-3.9-4.3-8-8.5-12-12.8c-0.3,0.2-0.5,0.5-0.8,0.7
			c7.2,9,14.4,18,21.9,27.4C1096.8,334.9,1097.9,334.2,1099.3,333.4z M1038.8,907.9c-0.9-0.4-2.4-0.6-3-0.1
			c-0.7,0.5-0.9,1.9-0.8,2.9c0.3,3,3.6,6.4,6.3,6.4c0.8,0,2-1,2.5-1.9c0.8-1.4,1.1-3,1.6-4.2
			C1042.8,909.7,1040.9,908.7,1038.8,907.9z M689.4,285.3c3.4-5.2,2.2-10.4-0.2-15.3c-1.7,2-3.6,4.1-5.7,6.5
			C685.3,279.2,687.4,282.4,689.4,285.3z M984.4,673.2c-2.8,1.7-5.3,3.2-7.8,4.8c1.8,4,4.2,4.9,11.1,3.9
			C986.6,678.9,985.6,676.2,984.4,673.2z M823.8,497.1c-3.4,2.7-6.6,5.2-9.8,7.8c0.3,0.6,0.6,1.1,0.9,1.7c3.3-1.2,6.7-2.3,10.2-3.6
			C824.7,501,824.3,499.2,823.8,497.1z M799.5,463.3c1,7,3.8,11.8,7,11.7C804.1,471.1,802,467.6,799.5,463.3z M1072.1,305.5
			c0.1-0.2,0.2-0.3,0.2-0.5c0-0.1-0.1-0.2-0.2-0.2c-0.1,0.2-0.2,0.3-0.3,0.5C1071.9,305.3,1072,305.4,1072.1,305.5z M1070.8,303.7
			c-0.1-0.1-0.2-0.3-0.3-0.4c-0.1,0.1-0.2,0.2-0.2,0.3s0.1,0.2,0.2,0.3C1070.6,303.8,1070.7,303.7,1070.8,303.7z"/>
		<path class="st0" d="M1271,459.4c-1.1,0.8-2.2,1.8-3.3,2.4c-7,4-13.9,8.2-21.1,11.9c-76.2,39.2-152.5,78.4-228.8,117.4
			c-29.8,15.3-59.7,30.4-89.5,45.5c-2,1-4.2,2.1-5.5-0.5s0.9-3.7,2.9-4.7c7.8-3.9,15.5-7.9,23.2-11.9c1-0.5,2.1-1.1,3.1-1.7
			c-0.1-0.3-0.3-0.6-0.4-0.8c-1.2,0.5-2.5,1.1-3.7,1.6c-6.9,2.8-14.2,3.2-17-2.5c-3.9-7.9-7.3-16-10.6-24.2
			c-1.3-3.4-0.7-7.2,2.2-9.7c7.8-6.7,16-12.8,25.8-16.1c5.5-1.8,10.5-0.6,14.1,4c3.2,4.1,6.2,8.4,9,12.8c2.6,4,4.9,8.1,7.1,12.2
			c0.6,1,0.9,3.1,0.3,3.7c-2.1,2.2-4.5,4.1-7,5.8c-3.6,2.4-7.5,4.4-11.2,6.7c-0.8,0.5-1.4,1.5-2.1,2.2c2.1-0.2,3.6-1,5.1-1.8
			c73.4-37.4,146.8-74.8,220.3-112c26.3-13.3,52.8-26.2,79.3-39.2c2.2-1.1,4.7-1.8,7-2.7C1270.5,458.6,1270.8,459,1271,459.4z
			 M933.1,606.7c0,0,0.1,0.1,0.1,0.3c0.2,0.3,0.4,0.7,0.6,1c4.4,6.5,5.9,6.9,12.1,3.5c-3.7-1.3-8.2-2.8-12.7-4.4
			C933.1,606.9,933.1,606.8,933.1,606.7z M975.5,595.9c-6-7.6-11.4-14.8-17.1-21.8c-1.9-2.3-4.7-3.2-7.4-1.8
			c-8.3,4.3-16.7,8.8-24.8,13.5c-2.4,1.4-2.5,3.6-0.1,5.8c2.8,2.8,5.3,5.9,7.8,9c3.7,4.4,8.1,5.8,13.6,4.2c3.4-1,7.4-3,10.3-2.1
			c5.2,1.6,7.5-2,10.9-3.7c0.2-0.1,0.3-0.7,0.4-1.1L969,598C971,597.4,972.8,596.8,975.5,595.9z"/>
		<path class="st0" d="M1195.4,384c-4.9,1.9-10,3.3-14.7,5.7c-29,14.5-57.9,29.3-86.9,44c-26.8,13.6-52.4,29.1-77.5,45.6
			c-2.1,1.4-4.2,2.8-6.5,3.6c-1.3,0.5-3,0-5.2,0c36.1-24.1,74-42.8,111-63c20.7-11.3,41-23,61.6-34.5c3.7-2,7.6-3.7,11.5-5.4
			c3.4-1.4,6.7-1.2,9.2,1.7c7,8,13.9,16.2,20.9,24.3c0.7,0.8,1.3,1.7,2,2.6c0.3-0.1,0.6-0.2,1-0.3c-0.2-1.3,0-2.7-0.6-3.7
			c-6.2-10.6-13.6-20.3-23.2-28c-3.7-3-8.5-2.7-12.5-1c-10.8,4.5-21.7,8.8-31.8,14.6c-45.1,25.9-89.9,52.4-134.9,78.5
			c-5.6,3.2-11.4,6.1-17,9.2c-1,0.5-1.9,1.6-2.2,2.7c-0.1,0.5,1.2,1.5,1.9,2.2c0.3,0.3,0.8,0.5,1.2,0.9c4.4,4.8,4.8,4.8,10.2,1.9
			c58-31.7,115.9-63.3,173.9-95c2.7-1.5,5.4-3,8.1-4.6c0.4-0.2,0.8-0.5,1.2-0.8C1195.8,384.9,1195.6,384.4,1195.4,384z"/>
		<path class="st0" d="M1173.2,289c6.3-3,12.4-6,18.5-8.9c-0.1-0.5-0.3-1.1-0.4-1.6c-2.1,0.1-4.3-0.1-6.2,0.6
			c-5.6,2.1-11,4.5-16.5,6.8c-0.6,0.3-1.3,0.8-1.9,0.7c-4.1-0.3-5.3,2.6-6.4,5.6c-1.2,3.1-0.1,5.5,2.5,7.4c2.3,1.7,4.4,3.6,6.9,5.6
			c0.7-5.1-7.3-7.1-3.8-12.8c0.7,0.3,1.2,0.5,1.7,0.8c41.6,30.4,70.3,70.3,87.7,118.5c4,11.1,8.3,22,12.4,33.1
			c0.7,1.8,1.6,3.6,2.4,5.5c3.3-6.1-17.8-64.5-32.4-89.5C1221.2,332.7,1200.4,308.3,1173.2,289z"/>
		<path class="st0" d="M1024.6,509.8c2.7-0.8,5.7-1.2,8-2.6c33.1-20.4,68-37.4,102.7-54.9c20.2-10.2,40-21.2,60-31.9
			c2.9-1.6,5.7-3.7,8.5-5.5c-0.2-0.5-0.4-1.1-0.6-1.6c-1.4,0.2-3,0.1-4.2,0.6c-9.9,4.4-19.9,8.5-29.4,13.6
			c-42.6,22.4-85.1,45.1-127.6,67.8c-3.6,1.9-7.3,3.9-10.5,6.4c-2.8,2.1-5,5-7.5,7.6C1024.2,509.4,1024.4,509.6,1024.6,509.8z"/>
		<path class="st0" d="M905.1,566.5c4.2,3.7,8.1,7.8,11.5,12.1c3.5,4.4,1.9,9.1-3.2,12.1c-12,7.2-24,14.4-36,21.8
			c-3.2,2-6.3,2.9-9.8,0.8c-2.4-1.5-4.5-1-6.5,0.7c-1.1,0.9-2.1,1.7-3.2,2.5c-4.1,2.8-8,1.8-9.5-2.9c-1.7-5.1-2.9-10.3-3.7-15.5
			c-0.6-3.5,0.1-7.1,3.6-9.1c12.6-7.2,25.1-14.6,37.8-21.6c3.5-1.9,7.7-2.6,11.8-3.9C900.4,564.5,903.3,564.9,905.1,566.5z
			 M904.9,572.9c-3.2-3.7-6.9-4.7-11.3-2.8c-5.9,2.5-11.8,5.1-17.6,8c-7.5,3.8-15,7.8-22.4,11.8c-4.5,2.4-4.7,3.2-2.9,8
			c1.6,4.3,3.5,8.5,5.4,13.2c1.5-0.8,2.8-1.3,4-2.1c3.2-2.1,6.5-2.6,10.3-1.5c1.5,0.4,3.7-0.1,5.2-1c11-6.8,21.8-13.9,32.7-20.8
			c1.8-1.1,3.6-2.2,5.8-3.5C910.8,578.9,907.6,576.1,904.9,572.9z"/>
		<path class="st0" d="M1348.6,136c-1.7,1.2-3.7,2.2-5.2,3.6c-14,13.5-28,27-41.9,40.6c-23.2,22.8-46.4,45.6-69.6,68.4
			c-1.7,1.7-4.6,3.6-2,6.1c2.3,2.2,4.3-0.3,5.9-2c35.2-35.3,70.3-70.7,105.5-106c2.9-3,5.5-6.3,8.2-9.4
			C1349.3,136.9,1348.9,136.4,1348.6,136z"/>
		<path class="st0" d="M1364,134.6c-4.4,3.9-8.9,7.6-13.1,11.8c-25.2,25.3-50.4,50.7-75.5,76.1c-8.7,8.8-17.1,17.8-25.7,26.6
			c-3.2,3.3-6.8,6.2-9.9,9.6c-0.8,0.9-0.4,2.8-0.6,4.2c1.3-0.2,3.1,0.1,3.8-0.6c17.3-17.5,34.7-35.1,51.8-52.8
			c21.3-22,42.5-44.1,63.7-66.3c2.3-2.4,4.3-5.2,6.4-7.8C1364.6,135.1,1364.3,134.9,1364,134.6z"/>
		<path class="st0" d="M1224.6,465c-1.8,9.2-11.2,17.4-21,18.7c-9.4,1.2-15.7-3.8-16.5-13.3c-0.1-1.6,0.1-3.2,0.3-4.8
			c1.8-15.6,20.4-24.1,33.1-14.9c2.1,1.5,3.6,4,5.2,5.8c-0.1,0-0.7,0.1-1.1,0.1C1224.6,459.6,1225.1,462.4,1224.6,465z
			 M1211.6,474.4c5-3.6,8.3-8.4,8.3-14.4c-3.9,1-7.6,2-11.3,2.7c-7.1,1.3-10.8,6-11.4,15.4C1202.8,480,1207.3,477.5,1211.6,474.4z
			 M1203.9,455.2c-7.7,2.6-11.6,8.8-10.7,17.6c2-5.5,3.7-11.2,9.2-14.3c5.5-3.1,11.2-3.8,17.8,0.1
			C1217.7,454.7,1209.2,453.4,1203.9,455.2z"/>
		<path class="st0" d="M954.5,514.9c-0.8,0.2-1.6,0.4-2.4,0.8c-14.6,6.8-28,15.5-40.6,25.5c-2.5,2-4.4,4.8-2.7,8.2s5,3.6,8.5,2.8
			c-0.6-1.6-1.2-3.2-2-5.2C928.5,536.6,943.8,528.6,954.5,514.9z"/>
		<path class="st0" d="M1248,281c1.6-1,2.8-1.6,3.9-2.4c-0.9-1-1.5-2.5-2.7-3.1c-10.1-5.6-20.3-10.9-30.4-16.5
			c-2.1-1.2-3.8-3.3-5.8-4.6c-1.1-0.7-2.7-0.7-4.1-1c0.3,1.4,0.1,3.3,0.9,4.2c7,7.4,15.3,13.1,24.4,17.6
			C1238.6,277.5,1243.3,279.1,1248,281z"/>
		<path class="st0" d="M960.7,557.9c6.5,0.8,16.5-4.6,18.7-10.1c0.3-0.8,0.4-2.2-0.1-2.8c-0.4-0.5-1.9-0.6-2.6-0.3
			C970.2,547.6,964.3,551.3,960.7,557.9z"/>
		<path class="st0" d="M868.7,618.5c4.9,6.5,9.7,12.8,14.4,19.1C887,628.7,880.7,620.1,868.7,618.5z"/>
		<path class="st0" d="M1170.2,305.2c0.1,0.2,0.3,0.4,0.4,0.6c0.2-0.2,0.4-0.4,0.5-0.6c0-0.1-0.3-0.3-0.4-0.5
			C1170.5,304.9,1170.3,305.1,1170.2,305.2z"/>
		<path class="st0" d="M1023.9,509.2c-0.2,0.3-0.4,0.7-0.7,1c0.5-0.1,0.9-0.3,1.3-0.5C1024.4,509.6,1024.2,509.4,1023.9,509.2z"/>
		<path class="st0" d="M731.4,630.8c0.5-1.9,1.8-4.1,3.5-5.2c17.1-10.7,34.2-21.3,51.5-31.7c3.7-2.2,7.8-3.9,11.9-5.3
			c4.3-1.4,8.9,0.5,10.2,4.6c1,3.2,2.8,5.7,4.4,8.4c6,10.3,11.8,20.8,17.4,31.3c2.8,5.3,5.1,10.8,7.5,16.2c0.5,1.2,0.8,3.3,0.1,4.2
			c-2.3,3.1-4.7,6.2-7.6,8.7c-18.8,15.9-40.5,27.1-62.2,38.2c-3.3,1.7-6.5,0.8-8.7-2c-2.6-3.3-5.1-6.8-7.1-10.5
			c-6.8-12.2-13.4-24.4-20.2-36.6c-4.5-8.2-4.2-10.6,2.5-16.5C733.2,633.3,731.2,631.8,731.4,630.8z M777.5,619.7
			c-7.2,3.6-15.1,5.7-22.2,9.3c-6.4,3.2-12.3,7.4-18.3,11.3c-2,1.3-2,3.3-0.8,5.3c8.8,15.5,17.6,30.9,26.4,46.4
			c1.2,2.1,2.5,3.1,5.1,1.6c20.5-12.3,41.1-24.4,61.5-36.8c5.9-3.6,5.8-3.9,2.3-9.7c-6.5-11-13.2-22-19.6-33.1
			c-2-3.4-3.4-7.1-5-10.5C797.2,608.8,787.5,614.7,777.5,619.7z M806.2,597.6c-4.4-4.4-8.9-2.6-13.2-0.1
			c-14.8,8.7-29.5,17.5-44.2,26.3c-3.3,2-6.7,3.8-9.9,5.9c-1,0.6-1.8,1.7-2.6,2.5c0.2,0.3,0.4,0.5,0.6,0.8c2-1,4-2.2,6.1-2.9
			c11.4-3.5,21.1-10.2,31.7-15.2c10.2-4.9,20.5-9.3,30.8-14c1-0.5,1.9-1.3,3.3-2.3C807.3,598,806.6,598,806.2,597.6z"/>
		<path class="st0" d="M853.5,673.5c-4.1,2.1-8.4,4-12.3,6.4c-41.1,24.9-82.3,49.6-123.2,74.8c-45.2,27.8-90,56.1-135,84.1
			c-4.3,2.7-8.9,5-13.4,7.4c-2.3,1.2-3.8,2.8-2.2,5.3c1.5,2.3,3.5,1.6,5.5,0.3c24-15.1,48-30.3,72-45.3
			c62.9-39.1,125.9-78.2,188.8-117.3c6-3.7,11.7-8,17.5-12.1c1.1-0.8,2-1.7,3-2.6C853.9,674.1,853.7,673.8,853.5,673.5z"/>
		<path class="st0" d="M750.6,707.1c-1.1,0.5-2.2,1-3.3,1.6c-30.5,19.3-61.1,38.4-91.5,57.9c-32,20.6-63.8,41.6-95.8,62.4
			c-2.5,1.6-5.6,3-3.9,6.9c1.1,2.5,4,2.2,8.1-0.5c52.5-35.1,105-70.1,157.5-105.2c9.4-6.3,18.4-13.2,27.6-19.9
			c0.8-0.6,1.7-1,2.5-1.4C751.4,708.2,751,707.7,750.6,707.1z"/>
		<path class="st0" d="M490.9,672.2c-0.4-0.6-0.9-1.2-1.3-1.7c-0.2,0.1-0.4,0.2-0.6,0.4c0.4,0.7,0.9,1.3,1.3,2
			C490.5,672.6,490.7,672.4,490.9,672.2z"/>
		<path class="st0" d="M956.3,577.1c1,7.4,4.9,13.3,9.5,19c0.8,0.9,2.2,1.2,3.4,1.8l-0.1,0.1c-0.4-2.5-0.3-5.2-1.3-7.4
			c-2.4-5.6-5.9-10.5-10.9-14.2C956.8,576.7,956.5,576.9,956.3,577.1z"/>
		<path class="st0" d="M957,576.4c-0.4-0.6-0.8-1.2-1.2-1.7c-0.2,0.1-0.4,0.2-0.6,0.3c0.4,0.7,0.8,1.4,1.2,2.1
			C956.5,576.9,956.8,576.7,957,576.4z"/>
	</g>
</g>
</svg>
