<?xml version="1.0" encoding="UTF-8"?>
<svg xmlns="http://www.w3.org/2000/svg" xmlns:xlink="http://www.w3.org/1999/xlink" viewBox="0 0 2299.61 2180.89">
  <defs>
    <style>
      .cls-1, .cls-2, .cls-3, .cls-4, .cls-5, .cls-6, .cls-7, .cls-8, .cls-9, .cls-10 {
        fill: none;
      }

      .cls-2, .cls-3, .cls-11, .cls-12, .cls-13, .cls-14, .cls-4, .cls-5, .cls-6, .cls-7, .cls-9, .cls-10 {
        stroke-miterlimit: 10;
      }

      .cls-2, .cls-3, .cls-11, .cls-12, .cls-13, .cls-14, .cls-4, .cls-5, .cls-7, .cls-9, .cls-10 {
        stroke: #000;
      }

      .cls-2, .cls-4, .cls-10 {
        stroke-width: 3px;
      }

      .cls-15, .cls-16, .cls-3, .cls-11 {
        fill-rule: evenodd;
      }

      .cls-15, .cls-17 {
        opacity: .2;
      }

      .cls-18 {
        clip-path: url(#clippath);
      }

      .cls-16, .cls-14 {
        fill: url(#linear-gradient);
      }

      .cls-19, .cls-13 {
        fill: #f8d171;
      }

      .cls-20 {
        fill: #e6e6e6;
      }

      .cls-21 {
        fill: #f77757;
      }

      .cls-22 {
        fill: #fff;
      }

      .cls-23 {
        fill: #31b6a6;
      }

      .cls-24 {
        fill: #ccc;
      }

      .cls-3, .cls-11, .cls-13, .cls-14, .cls-5, .cls-6 {
        stroke-width: 4px;
      }

      .cls-11 {
        fill: url(#linear-gradient-2);
      }

      .cls-12 {
        fill: #b3b3b3;
        stroke-width: 2px;
      }

      .cls-14 {
        clip-rule: evenodd;
      }

      .cls-25 {
        clip-path: url(#clippath-1);
      }

      .cls-26 {
        clip-path: url(#clippath-4);
      }

      .cls-27 {
        clip-path: url(#clippath-3);
      }

      .cls-28 {
        clip-path: url(#clippath-2);
      }

      .cls-29 {
        fill: url(#Grid_1cm_Lines);
      }

      .cls-4 {
        stroke-dasharray: 0 0 14.54 23.27;
      }

      .cls-6 {
        stroke: #999;
      }

      .cls-30, .cls-9 {
        opacity: .15;
      }

      .cls-8 {
        stroke: #231f20;
        stroke-width: .3px;
      }

      .cls-31 {
        opacity: .9;
      }

      .cls-32 {
        opacity: .8;
      }

      .cls-33, .cls-10 {
        opacity: .7;
      }

      .cls-10 {
        stroke-dasharray: 0 0 15 24;
      }
    </style>
    <linearGradient id="linear-gradient" x1="2129.13" y1="803.97" x2="2352.2" y2="803.97" gradientTransform="translate(659.03 -967.57) rotate(32.66)" gradientUnits="userSpaceOnUse">
      <stop offset="0" stop-color="#f77757"/>
      <stop offset=".09" stop-color="#f78059"/>
      <stop offset=".25" stop-color="#f79961"/>
      <stop offset=".44" stop-color="#f7c26c"/>
      <stop offset=".5" stop-color="#f8d171"/>
      <stop offset="1" stop-color="#31b6a6"/>
    </linearGradient>
    <clipPath id="clippath">
      <path class="cls-14" d="M2242.84,920.37l-.3,.47c-8.4,12.96-19.99,24.58-31.94,34.17-56.74,45.55-130.17,69.83-202.88,67.06l-13.39-127.36c72.71,2.77,146.14-21.51,202.88-67.06,5.47-4.39,10.87-9.21,15.92-14.39,3.29,2.88,6.52,5.83,9.68,8.84,14.62,13.92,28.54,30.32,31.87,50.24,2.65,15.89-1.77,31.17-10,45.05-.6,1.01-1.22,2-1.84,2.99Z"/>
    </clipPath>
    <pattern id="Grid_1cm_Lines" data-name="Grid 1cm Lines" x="0" y="0" width="56.69" height="56.69" patternTransform="translate(2639.39 2695.54) scale(1.41)" patternUnits="userSpaceOnUse" viewBox="0 0 56.69 56.69">
      <g>
        <rect class="cls-1" x="0" y="0" width="56.69" height="56.69"/>
        <g>
          <line class="cls-8" x1="42.52" y1="113.63" x2="42.52" y2="56.44"/>
          <line class="cls-8" x1="14.17" y1="56.44" x2="14.17" y2="113.63"/>
        </g>
        <g>
          <line class="cls-8" x1="113.63" y1="14.17" x2="56.44" y2="14.17"/>
          <line class="cls-8" x1="56.44" y1="42.52" x2="113.63" y2="42.52"/>
        </g>
        <g>
          <line class="cls-8" x1="56.94" y1="14.17" x2="-.25" y2="14.17"/>
          <line class="cls-8" x1="-.25" y1="42.52" x2="56.94" y2="42.52"/>
          <line class="cls-8" x1="42.52" y1="56.94" x2="42.52" y2="-.25"/>
          <line class="cls-8" x1="14.17" y1="-.25" x2="14.17" y2="56.94"/>
        </g>
        <g>
          <line class="cls-8" x1=".25" y1="14.17" x2="-56.94" y2="14.17"/>
          <line class="cls-8" x1="-56.94" y1="42.52" x2=".25" y2="42.52"/>
        </g>
        <g>
          <line class="cls-8" x1="42.52" y1=".25" x2="42.52" y2="-56.94"/>
          <line class="cls-8" x1="14.17" y1="-56.94" x2="14.17" y2=".25"/>
        </g>
      </g>
    </pattern>
    <clipPath id="clippath-1">
      <circle class="cls-23" cx="1086.88" cy="2053.25" r="63.95"/>
    </clipPath>
    <clipPath id="clippath-2">
      <circle class="cls-21" cx="1897.37" cy="1420.78" r="99.35"/>
    </clipPath>
    <clipPath id="clippath-3">
      <circle class="cls-13" cx="752.02" cy="544.31" r="92.61"/>
    </clipPath>
    <clipPath id="clippath-4">
      <circle class="cls-20" cx="1199.66" cy="1178.89" r="497.03"/>
    </clipPath>
    <linearGradient id="linear-gradient-2" x1="1821.76" y1="866" x2="2231.64" y2="661.06" gradientTransform="translate(458.59 -726.89) rotate(23.27)" xlink:href="#linear-gradient"/>
  </defs>
  <g id="Layer_4" data-name="Layer 4">
    <g>
      <path class="cls-16" d="M2242.84,920.37l-.3,.47c-8.4,12.96-19.99,24.58-31.94,34.17-56.74,45.55-130.17,69.83-202.88,67.06l-13.39-127.36c72.71,2.77,146.14-21.51,202.88-67.06,5.47-4.39,10.87-9.21,15.92-14.39,3.29,2.88,6.52,5.83,9.68,8.84,14.62,13.92,28.54,30.32,31.87,50.24,2.65,15.89-1.77,31.17-10,45.05-.6,1.01-1.22,2-1.84,2.99Z"/>
      <g class="cls-18">
        <path class="cls-15" d="M2125.85,826.55c-1.11-.67-2.27-1.4-2.84-2.57-1.32-2.71,1.24-5.64,3.58-7.54,23.06-18.81,49.25-35.08,78.54-40.37,29.28-5.29,62.11,2.1,81.86,24.36,25.41,28.65,11.98,110.59-35.52,106.06-18.41-1.76-35.12-22.37-48.74-32.93-23.94-18.56-51.02-31.45-76.87-47Z"/>
      </g>
      <path class="cls-3" d="M2242.84,920.37l-.3,.47c-8.4,12.96-19.99,24.58-31.94,34.17-56.74,45.55-130.17,69.83-202.88,67.06l-13.39-127.36c72.71,2.77,146.14-21.51,202.88-67.06,5.47-4.39,10.87-9.21,15.92-14.39,3.29,2.88,6.52,5.83,9.68,8.84,14.62,13.92,28.54,30.32,31.87,50.24,2.65,15.89-1.77,31.17-10,45.05-.6,1.01-1.22,2-1.84,2.99Z"/>
    </g>
  </g>
  <g id="Layer_1" data-name="Layer 1">
    <g>
      <path class="cls-22" d="M1199.66,2178.39c-134.93,0-265.83-26.43-389.05-78.55-119.02-50.34-225.91-122.41-317.7-214.2-91.79-91.79-163.86-198.68-214.2-317.7-52.12-123.22-78.55-254.12-78.55-389.05s26.43-265.83,78.55-389.05c50.34-119.02,122.41-225.91,214.2-317.7,91.79-91.79,198.68-163.86,317.7-214.2,123.22-52.12,254.12-78.55,389.05-78.55,195.23,0,384.35,56.29,546.93,162.79,21.25,13.92,42.19,28.81,62.25,44.25,46.27,35.62,89.68,75.53,129.03,118.64,17.37,19,34.28,39.01,50.25,59.48,34.02,43.59,64.59,90.29,90.88,138.79,12.25,22.6,23.77,45.98,34.23,69.49,57.02,128.08,85.94,264.7,85.94,406.07s-26.43,265.83-78.55,389.05c-50.34,119.02-122.41,225.91-214.2,317.7s-198.68,163.86-317.7,214.2c-123.22,52.12-254.12,78.55-389.05,78.55Z"/>
      <path d="M1199.66,179.89c195.13,0,384.16,56.26,546.65,162.71,21.24,13.91,42.17,28.79,62.22,44.23,46.25,35.6,89.64,75.5,128.96,118.58,17.36,18.99,34.26,38.99,50.23,59.45,34,43.57,64.56,90.24,90.83,138.72,12.24,22.59,23.76,45.96,34.22,69.45,27.86,62.58,49.28,128.28,63.65,195.25,14.76,68.77,22.24,139.63,22.24,210.62s-6.83,135.52-20.3,201.33c-13.13,64.14-32.71,127.23-58.21,187.52-25.04,59.19-56.03,116.29-92.11,169.69-35.74,52.9-76.78,102.64-121.99,147.85-45.21,45.21-94.95,86.25-147.85,121.99-53.41,36.08-110.5,67.07-169.69,92.11-60.29,25.5-123.38,45.09-187.52,58.21-65.81,13.47-133.55,20.3-201.33,20.3s-135.52-6.83-201.33-20.3c-64.14-13.13-127.23-32.71-187.52-58.21-59.19-25.04-116.29-56.03-169.69-92.11-52.9-35.74-102.64-76.78-147.85-121.99-45.21-45.21-86.25-94.95-121.99-147.85-36.08-53.41-67.07-110.5-92.11-169.69-25.5-60.29-45.09-123.38-58.21-187.52-13.47-65.81-20.3-133.55-20.3-201.33s6.83-135.52,20.3-201.33c13.13-64.14,32.71-127.23,58.21-187.52,25.04-59.19,56.03-116.29,92.11-169.69,35.74-52.9,76.78-102.64,121.99-147.85,45.21-45.21,94.95-86.25,147.85-121.99,53.41-36.08,110.5-67.07,169.69-92.11,60.29-25.5,123.38-45.09,187.52-58.21,65.81-13.47,133.55-20.3,201.33-20.3m0-1c-552.28,0-1000,447.72-1000,1000s447.72,1000,1000,1000,1000-447.72,1000-1000c0-144.65-30.71-282.13-85.98-406.27-10.54-23.67-21.97-46.86-34.25-69.52-26.49-48.89-56.94-95.32-90.92-138.86-15.99-20.49-32.76-40.35-50.28-59.51-39.45-43.22-82.65-82.95-129.09-118.7-20.16-15.52-40.94-30.29-62.28-44.27-157.22-102.99-345.22-162.87-547.2-162.87h0Z"/>
    </g>
    <g class="cls-33">
      <path class="cls-6" d="M2199.66,1178.89c0,552.28-447.72,1000-1000,1000S199.66,1731.17,199.66,1178.89,647.38,178.89,1199.66,178.89c201.98,0,389.98,59.88,547.2,162.87,21.34,13.98,42.12,28.75,62.28,44.27,46.44,35.75,89.64,75.48,129.09,118.7,17.52,19.16,34.29,39.02,50.28,59.51,33.98,43.54,64.43,89.97,90.92,138.86,12.28,22.66,23.71,45.85,34.25,69.52,55.27,124.14,85.98,261.62,85.98,406.27Z"/>
      <path class="cls-29" d="M2199.66,1178.89c0,552.28-447.72,1000-1000,1000S199.66,1731.17,199.66,1178.89,647.38,178.89,1199.66,178.89c201.98,0,389.98,59.88,547.2,162.87,21.34,13.98,42.12,28.75,62.28,44.27,46.44,35.75,89.64,75.48,129.09,118.7,17.52,19.16,34.29,39.02,50.28,59.51,33.98,43.54,64.43,89.97,90.92,138.86,12.28,22.66,23.71,45.85,34.25,69.52,55.27,124.14,85.98,261.62,85.98,406.27Z"/>
    </g>
  </g>
  <g id="Layer_9" data-name="Layer 9">
    <g>
      <circle class="cls-23" cx="1086.88" cy="2053.25" r="63.95"/>
      <g class="cls-25">
        <g class="cls-17">
          <path d="M1045.85,2042.55c-3.03,30.66,8.38,62.02,28.76,85.11,4.06,4.6,8.79,9.82,7.99,15.91-1.18,9.12-12.92,11.82-22.1,12.3-15.79,.84-32.98,1.29-45.78-8-7.18-5.21-12.08-12.93-16.45-20.65-7.21-12.75-13.56-26.37-15.05-40.94-2.4-23.49,8.28-46.81,23.75-64.64,15.47-17.84,35.43-31.09,55.12-44.11,3.53-2.33,20.04-15.11,22.75-5.92,1.04,3.51-14.36,15.01-17.2,18.45-12.2,14.82-19.91,33.38-21.8,52.49Z"/>
        </g>
        <path d="M1086.85,1989.29v4h0c5.33,0,10.67,.72,15.86,2.14,31.88,8.73,50.72,41.77,42,73.65-7.11,25.99-30.88,44.14-57.79,44.14-5.33,0-10.67-.72-15.86-2.14-31.88-8.73-50.72-41.77-42-73.65,7.11-25.99,30.88-44.14,57.79-44.14v-4m0,0c-28.1,0-53.87,18.67-61.64,47.08-9.32,34.07,10.73,69.24,44.8,78.56,5.65,1.55,11.33,2.28,16.92,2.28,28.1,0,53.87-18.67,61.64-47.08,9.32-34.07-10.73-69.24-44.8-78.56-5.65-1.55-11.33-2.29-16.92-2.28h0Z"/>
      </g>
    </g>
    <g class="cls-31">
      <g>
        <path d="M1038.03,2041.79c2.07,1.19,3.11,1.77,5.22,2.88,6.41,3.38,8.96,8.85,7.02,15.97-1.96,7.15-6.72,9.76-12.96,6.3-2.15-1.19-3.21-1.81-5.32-3.08,2.42-8.82,3.62-13.24,6.04-22.06Zm-.41,22.63c4.82,2.67,8.19,.53,9.74-5.13,1.54-5.63-.11-9.81-4.95-12.39-.94-.5-1.4-.75-2.33-1.26-1.91,6.99-2.87,10.48-4.78,17.47,.92,.53,1.39,.79,2.32,1.31Z"/>
        <path d="M1063.49,2053.57c1.32,.47,1.99,.7,3.32,1.15,.58,10.12,.88,15.18,1.47,25.29-1.26-.38-1.89-.58-3.15-.98-.18-5.61-.27-8.42-.45-14.03-.1-2.8-.18-5.56-.16-8.44-.06-.02-.08-.03-.14-.05-1.45,2.38-2.85,4.61-4.33,6.83-2.96,4.47-4.44,6.68-7.38,11.06-1.17-.49-1.75-.74-2.9-1.25,5.44-7.68,8.18-11.59,13.71-19.57Zm-7.24,12.07c4.1,1.65,6.18,2.39,10.38,3.75-.26,.95-.39,1.42-.65,2.37-4.2-1.36-6.28-2.12-10.38-3.77,.26-.94,.38-1.41,.64-2.34Z"/>
        <path d="M1084.18,2062.06c-3.12-.65-4.67-1.01-7.75-1.81,.27-1,.41-1.49,.68-2.49,7.35,1.9,11.1,2.63,18.65,3.63-.28,1.01-.42,1.52-.69,2.53-3.16-.43-4.74-.68-7.87-1.27-2.27,8.29-3.4,12.43-5.67,20.72-1.21-.25-1.81-.38-3.01-.66,2.26-8.26,3.39-12.39,5.65-20.66Z"/>
        <path d="M1106.5,2062.44c1.41,.09,2.12,.13,3.54,.19,.67,9.62,.99,14.43,1.64,24.02-1.33-.01-1.99-.03-3.31-.07-.21-5.37-.31-8.06-.53-13.43-.12-2.68-.22-5.32-.21-8.11-.06,0-.09,0-.15,0-1.52,2.7-3.01,5.25-4.57,7.81-3.13,5.14-4.69,7.69-7.81,12.74-1.25-.15-1.88-.23-3.13-.4,5.78-8.94,8.69-13.49,14.53-22.74Zm-7.65,13.68c4.4,.45,6.62,.59,11.06,.73-.27,.99-.41,1.48-.68,2.47-4.44-.15-6.65-.3-11.05-.75,.27-.98,.4-1.47,.67-2.44Z"/>
      </g>
    </g>
    <g>
      <circle class="cls-21" cx="1897.37" cy="1420.78" r="99.35"/>
      <g class="cls-28">
        <g class="cls-17">
          <path d="M1835.79,1446.99c22.21,37.78,61.59,64.28,104.38,73.75,8.52,1.89,18.33,3.93,22.52,11.59,6.28,11.48-4.95,24.41-15.1,32.66-17.45,14.19-36.84,29.11-59.33,29.15-12.62,.02-24.72-4.74-36.21-9.96-18.97-8.61-37.68-18.95-51.6-34.45-22.44-24.99-29.7-60.75-26.86-94.21,2.84-33.47,14.68-65.42,26.41-96.9,2.1-5.64,10.38-34.16,21.2-25.87,4.13,3.17-3.94,29.28-4.31,35.62-1.61,27.27,5.08,55.06,18.92,78.61Z"/>
        </g>
        <path d="M1897.36,1325.4c19.14,0,37.67,5.7,53.59,16.49,16.27,11.03,28.57,26.61,35.57,45.06,9.03,23.81,8.25,49.72-2.2,72.95-10.45,23.23-29.32,40.99-53.13,50.03-10.89,4.13-22.27,6.23-33.81,6.23-19.15,0-37.68-5.7-53.6-16.49-16.27-11.03-28.58-26.61-35.58-45.07-18.65-49.16,6.17-104.33,55.33-122.98,10.89-4.13,22.26-6.23,33.81-6.23h0m0-4c-11.71,0-23.63,2.09-35.22,6.49-51.3,19.46-77.11,76.83-57.65,128.14,15.06,39.71,52.82,64.14,92.91,64.14,11.71,0,23.63-2.09,35.22-6.49,51.3-19.46,77.11-76.83,57.65-128.14-15.06-39.71-52.82-64.14-92.91-64.14h0Z"/>
        <ellipse class="cls-12" cx="1550.12" cy="876.29" rx="193.05" ry="306.77" transform="translate(295.68 2140.08) rotate(-74.69)"/>
      </g>
    </g>
    <g class="cls-31">
      <g>
        <path d="M1827.05,1445.86c4.36-.47,6.54-.74,10.87-1.37,12.69-1.76,22.88,4.64,27.69,16.11,4.37,10.43,.15,22.58-12.43,23.37-4.48,.56-6.72,.79-11.23,1.17-4.97-13.09-9.94-26.19-14.9-39.28Zm23.88,34.03c10.04-1.25,12.73-8.08,8.91-18.16-3.8-10.02-10.77-14.45-20.75-13.03-1.93,.27-2.89,.4-4.83,.64,3.93,10.37,7.87,20.74,11.8,31.11,1.95-.21,2.92-.32,4.86-.56Z"/>
        <path d="M1877.6,1435.8c2.48-.73,3.72-1.11,6.18-1.89,9.84,11.99,19.69,23.97,29.54,35.95-2.29,.8-3.44,1.19-5.74,1.95-6.34-8.14-9.51-12.2-15.85-20.34-3.19-4.05-6.29-8.06-9.36-12.35-.1,.03-.15,.05-.26,.08,.42,5.09,.75,9.92,.96,14.83,.43,9.84,.63,14.72,1.01,24.4-2.26,.53-3.39,.79-5.67,1.28-.22-14.63-.5-29.26-.82-43.89Zm2.31,25.75c7.87-2,11.77-3.13,19.47-5.67,.64,1.69,.96,2.53,1.6,4.21-7.71,2.52-11.61,3.65-19.48,5.63-.63-1.67-.95-2.5-1.58-4.17Z"/>
        <path d="M1917.49,1426.02c-5.33,2.41-8.02,3.55-13.46,5.69-.67-1.77-1.01-2.66-1.68-4.43,10.85-4.56,21.15-9.38,31.61-14.78,.68,1.8,1.03,2.71,1.71,4.51-5.16,2.79-7.77,4.11-13.05,6.63,4.67,12.3,9.33,24.59,14,36.89-2.06,.93-3.1,1.39-5.17,2.28-4.65-12.26-9.3-24.52-13.95-36.78Z"/>
        <path d="M1951.03,1402.45c2.2-1.4,3.29-2.11,5.45-3.55,9.48,11.29,18.96,22.58,28.42,33.89-1.99,1.41-2.99,2.11-5,3.48-6.12-7.75-9.18-11.62-15.32-19.37-3.08-3.85-6.09-7.66-9.08-11.81-.09,.06-.14,.09-.23,.15,.66,5.66,1.21,11.04,1.66,16.54,.91,11.02,1.35,16.49,2.2,27.36-2.02,1.14-3.04,1.69-5.08,2.79-.93-16.5-1.93-32.99-3.03-49.48Zm3.45,28.58c7.02-4.1,10.46-6.28,17.2-10.88,.67,1.76,1,2.64,1.67,4.39-6.74,4.58-10.19,6.75-17.22,10.84-.66-1.74-.99-2.61-1.65-4.35Z"/>
      </g>
    </g>
    <g>
      <circle class="cls-19" cx="752.02" cy="544.31" r="92.61"/>
      <g class="cls-27">
        <g class="cls-17">
          <path d="M782.72,633.4c-51.49,0-93.24-41.74-93.24-93.24s41.74-93.24,93.24-93.24l-111.66-90.89-125.34,131.12,43.06,173.72,119.66,50.58,74.27-78.05Z"/>
        </g>
      </g>
      <circle class="cls-5" cx="752.02" cy="544.31" r="92.61"/>
    </g>
    <g class="cls-31">
      <g>
        <path d="M695.59,510.93c3.15-.9,4.73-1.32,7.9-2.09,9.64-2.36,14.95,2.55,14.95,12.59s-5.32,16.61-14.76,18.69c-3.25,.72-4.87,1.11-8.09,1.95v-31.15Zm7.6,26.01c7.29-1.64,10.95-6.79,10.95-14.78s-3.67-11.73-10.95-9.95c-1.41,.34-2.11,.52-3.52,.89v24.67c1.4-.34,2.11-.51,3.52-.82Z"/>
        <path d="M733.27,503.74c1.91-.19,2.87-.27,4.78-.42,3.71,10.59,7.38,21.2,11.02,31.82-1.8,0-2.69,.02-4.49,.06-2.25-7.15-3.38-10.7-5.63-17.73-1.15-3.51-2.24-6.95-3.24-10.58-.08,0-.12,.01-.2,.02-1.05,3.81-2.09,7.41-3.23,11.08-2.29,7.36-3.43,11.03-5.71,18.39-1.71,.19-2.56,.29-4.26,.51,3.65-11.05,7.31-22.1,10.97-33.14Zm-5.17,19.49c5.98-.66,8.98-.88,14.98-1.12v3.34c-6,.22-9,.44-14.98,1.09v-3.31Z"/>
        <path d="M763.49,506.42c-4.33-.19-6.49-.24-10.82-.21v-3.51c10.34-.09,15.52,.18,25.8,1.35v3.58c-4.31-.5-6.47-.69-10.79-.97v29.25c-1.67-.14-2.51-.2-4.18-.31,0-9.72,0-19.44,0-29.17Z"/>
        <path d="M792.95,506.18c1.89,.35,2.83,.53,4.72,.92,3.66,12.07,7.26,24.16,10.79,36.27-1.75-.5-2.62-.74-4.38-1.2-2.2-8.09-3.31-12.1-5.52-20.07-1.13-3.98-2.21-7.88-3.19-11.95-.08-.02-.12-.02-.2-.04-1.03,3.67-2.06,7.14-3.2,10.63-2.26,7.02-3.4,10.53-5.67,17.55-1.7-.3-2.55-.43-4.25-.7,3.64-10.47,7.28-20.94,10.91-31.42Zm-5.13,18.85c5.94,1.02,8.9,1.64,14.78,3.08v3.48c-5.88-1.46-8.84-2.08-14.78-3.12v-3.45Z"/>
      </g>
    </g>
    <g class="cls-33">
      <g>
        <path class="cls-2" d="M1159.53,1991.53c2.16-1.28,4.3-2.58,6.41-3.89"/>
        <path class="cls-4" d="M1185.22,1974.61c82.73-60.66,117.99-153.02,65.97-255.97"/>
        <path class="cls-2" d="M1245.72,1708.36c-1.21-2.16-2.45-4.33-3.74-6.5"/>
      </g>
    </g>
    <path class="cls-10" d="M640.26,620.71c-76.98,37.42-72.25,197.79,129.72,268.07"/>
    <path class="cls-10" d="M1813.3,1553.52c-43.72,78.16-131.05,159.36-291.1,24.16"/>
  </g>
  <g id="Layer_3" data-name="Layer 3">
    <g>
      <circle class="cls-20" cx="1199.66" cy="1178.89" r="497.03"/>
      <g class="cls-26">
        <g class="cls-17">
          <path d="M785.23,1801.04c-45.99,0-80.5-7.53-108.61-23.69-60.1-34.57-86.29-106.78-106.12-171.76-36.13-118.38-72.7-255.94-48.98-390.39,17.42-98.75,65.62-188.13,112.23-274.57,44.46-82.45,90.43-167.71,149.28-242.75,31.87-40.64,82.06-96.21,149.67-109.46,7.97-1.56,15.99-2.35,23.85-2.35,24.6,0,45.6,7.86,59.15,22.13,4.89,5.15,8.91,11.2,12.8,17.05,2.32,3.49,4.72,7.11,7.29,10.51,19.42,25.69,51.76,41.65,84.38,41.65,3.37,0,6.75-.17,10.06-.51,.63-.06,1.47-.14,2.29-.14,2.24,0,3.65,.54,4.43,1.7,.91,1.36,.57,5.44,.13,6.89l-.04-.1-.39,.04c-37.65,3.45-79.64,26.58-118.25,65.14-40.44,40.38-75.17,94.91-100.45,157.67-29.76,73.91-60.06,193.62-35.35,344.23,11.19,68.19,32.83,136.11,64.32,201.88,34.44,71.93,81.1,142.14,138.69,208.67-8.19,63.61-82.05,96.42-125.39,110.33-52.5,16.85-107.07,26.15-162.19,27.66-4.4,.12-8.71,.18-12.83,.18Z"/>
          <path class="cls-22" d="M956.55,586.57c24.46,0,45.33,7.8,58.79,21.97,4.86,5.12,8.87,11.15,12.75,16.98,2.33,3.5,4.73,7.12,7.31,10.53,19.52,25.81,52,41.85,84.78,41.85,3.38,0,6.79-.17,10.12-.51,.62-.06,1.44-.14,2.24-.14,2.06,0,3.34,.47,4.01,1.47,.71,1.06,.57,4.43,.19,6.03h-.12c-18.98,1.75-38.89,8.31-59.16,19.51-20.12,11.12-40.1,26.52-59.4,45.79-40.48,40.43-75.26,95.01-100.56,157.84-20.14,50.01-33.63,103.54-40.07,159.1-7.07,60.94-5.49,123.32,4.69,185.4,11.19,68.23,32.85,136.2,64.36,202.02,34.43,71.91,81.07,142.09,138.62,208.61-8.3,63.19-81.84,95.84-125.01,109.69-52.46,16.83-106.98,26.13-162.05,27.64-4.39,.12-8.71,.18-12.82,.18-45.9,0-80.33-7.51-108.36-23.62-59.94-34.48-86.09-106.59-105.9-171.47-17.49-57.29-36.82-125.12-47.6-193.77-11.41-72.65-11.86-136.89-1.36-196.39,7.74-43.86,22.41-89.99,44.86-141.03,20.39-46.36,45.32-92.59,67.32-133.39,44.45-82.43,90.41-167.66,149.23-242.68,22.8-29.08,44.45-51.58,66.17-68.77,27.36-21.65,54.57-34.9,83.2-40.51,7.94-1.56,15.93-2.34,23.75-2.34m0-1c-8.07,0-16.16,.84-23.94,2.36-62.11,12.17-110.92,59.83-149.97,109.64-58.71,74.87-104.16,159.08-149.32,242.82-47.17,87.47-95.02,176.85-112.28,274.72-23.02,130.49,10.31,263.9,48.99,390.63,20.18,66.12,46.43,137.58,106.35,172.04,32.59,18.74,71.04,23.76,108.85,23.76,4.29,0,8.58-.06,12.85-.18,55.06-1.5,109.89-10.86,162.33-27.68,55.98-17.96,118.4-52.63,125.76-110.96-406.8-469.8-136.12-959.83,50.56-976.94,.12,.32,.24,.47,.36,.47,.8,0,1.56-6.19,.3-8.07-1.03-1.53-2.91-1.92-4.85-1.92-.79,0-1.59,.06-2.34,.14-3.33,.34-6.67,.51-10.01,.51-32.31,0-64.46-15.63-83.98-41.45-6.88-9.09-12.28-19.33-20.13-27.6-15.1-15.9-37.22-22.29-59.52-22.29h0Z"/>
        </g>
        <g class="cls-30">
          <path class="cls-7" d="M868.57,799.33l40.41,15.19c229.47,86.27,466.38,151.26,707.74,194.15l47.58,8.45"/>
        </g>
        <path class="cls-9" d="M726.32,1360.69l35.08,13.29c225.97,85.61,459.22,150.56,696.91,194.07l77.24,14.14"/>
        <path class="cls-9" d="M710.21,1048.36l181.28,64.84c191.7,68.57,388.35,122.4,588.25,161.02l189.2,36.56"/>
      </g>
    </g>
    <path d="M1199.66,685.86c66.56,0,131.13,13.03,191.91,38.74,58.71,24.83,111.44,60.38,156.72,105.66,45.28,45.28,80.83,98.01,105.66,156.72,25.71,60.78,38.74,125.35,38.74,191.91s-13.03,131.13-38.74,191.91c-24.83,58.71-60.38,111.44-105.66,156.72-45.28,45.28-98.01,80.83-156.72,105.66-60.78,25.71-125.35,38.74-191.91,38.74s-131.13-13.04-191.91-38.74c-58.71-24.83-111.44-60.38-156.72-105.66-45.28-45.28-80.83-98.01-105.66-156.72-25.71-60.78-38.74-125.35-38.74-191.91s13.03-131.13,38.74-191.91c24.83-58.71,60.38-111.44,105.66-156.72,45.28-45.28,98.01-80.83,156.72-105.66,60.78-25.71,125.35-38.74,191.91-38.74m0-4c-274.5,0-497.03,222.53-497.03,497.03s222.53,497.03,497.03,497.03,497.03-222.53,497.03-497.03-222.53-497.03-497.03-497.03h0Z"/>
  </g>
  <g id="Layer_7" data-name="Layer 7">
    <path class="cls-24" d="M1199.66,180.89c194.94,0,383.78,56.21,546.1,162.54,21.22,13.9,42.13,28.76,62.16,44.18,46.2,35.57,89.55,75.42,128.83,118.46,17.35,18.97,34.23,38.95,50.18,59.39,33.97,43.52,64.5,90.15,90.74,138.58,12.23,22.57,23.73,45.91,34.18,69.38,27.84,62.52,49.23,128.15,63.59,195.05,14.74,68.7,22.22,139.49,22.22,210.41s-6.82,135.38-20.28,201.13c-13.11,64.08-32.68,127.1-58.15,187.33-25.01,59.14-55.97,116.17-92.02,169.52-35.7,52.85-76.7,102.54-121.87,147.7-45.16,45.16-94.86,86.16-147.7,121.87-53.35,36.04-110.39,67-169.52,92.02-60.23,25.47-123.26,45.04-187.33,58.15-65.75,13.45-133.42,20.28-201.13,20.28s-135.38-6.82-201.13-20.28c-64.08-13.11-127.1-32.68-187.33-58.15-59.14-25.01-116.17-55.97-169.52-92.02-52.85-35.7-102.54-76.7-147.7-121.87-45.16-45.16-86.16-94.86-121.87-147.7-36.04-53.35-67-110.39-92.01-169.52-25.47-60.23-45.04-123.26-58.15-187.33-13.45-65.75-20.28-133.42-20.28-201.13s6.82-135.38,20.28-201.13c13.11-64.08,32.68-127.1,58.15-187.33,25.01-59.14,55.97-116.17,92.01-169.52,35.7-52.85,76.7-102.54,121.87-147.7,45.16-45.16,94.86-86.16,147.7-121.87,53.35-36.04,110.39-67,169.52-92.01,60.23-25.47,123.26-45.04,187.33-58.15,65.75-13.45,133.42-20.28,201.13-20.28m0-2c-552.28,0-1000,447.72-1000,1000s447.72,1000,1000,1000,1000-447.72,1000-1000c0-144.65-30.71-282.13-85.98-406.27-10.54-23.67-21.97-46.86-34.25-69.52-26.49-48.89-56.94-95.32-90.92-138.86-15.99-20.49-32.76-40.35-50.28-59.51-39.45-43.22-82.65-82.95-129.09-118.7-20.16-15.52-40.94-30.29-62.28-44.27-157.22-102.99-345.22-162.87-547.2-162.87h0Z"/>
  </g>
  <g id="Layer_6" data-name="Layer 6">
    <g class="cls-32">
      <path d="M1088.71,1303.07v-110.66c93.04,0,135.33-33.83,135.33-89.51,0-45.81-28.19-71.19-76.12-71.19s-83.17,22.55-93.04,71.19l-62.73-19.03c13.39-66.96,66.96-119.82,159.29-119.82,102.91,0,156.47,57.09,156.47,135.33,0,87.4-70.48,143.08-156.47,148.01l-2.11,55.68h-60.62Zm-19.74,93.04c0-26.78,21.85-47.93,48.63-47.93s48.63,21.14,48.63,47.93-21.15,48.63-48.63,48.63-48.63-21.14-48.63-48.63Z"/>
    </g>
  </g>
  <g id="Layer_10" data-name="Layer 10">
    <path class="cls-11" d="M2244.69,917.38c8.23-13.87,12.65-29.15,10-45.05-3.33-19.92-17.25-36.32-31.87-50.24-3.16-3.01-6.48-5.85-9.68-8.84-18.41-17.24-51.29-59.37-104.98-75.19-50.9-14.99-105.59,7.61-150.11,36.47-14.46,9.37-72.85,44.37-72.85,44.37l19.18,41.81-131.76-30.63,21.99-120.36c.89-.84,21.28,23.17,21.28,23.17,0,0,57.29-36.16,104.56-74.47,41.22-33.41,97.76-45.07,150.11-36.47,43.13,7.1,83.77,32.21,117.71,54.35l.03,.02c68.73,44.09,104.66,160.87,56.39,241.06Z"/>
    <g>
      <path d="M1870.32,735.82l7.32-4.78c4.54-2.97,9.12-3.66,12.32,1.23,3.08,4.71,.94,9.15-3.6,12.11l-3.4,2.22,5.58,8.55-3.92,2.56-14.3-21.9Zm13.6,5.71c3-1.96,3.81-4.28,2.19-6.75-1.64-2.51-3.84-2.33-6.84-.37l-3,1.96,4.65,7.12,3-1.96Zm2.31-1.88l14.62,7.46-4.37,2.86-11.55-6.14,1.3-4.18Z"/>
      <path d="M1890.46,722.41l13.73-9.63,2.25,3.2-9.92,6.96,3.84,5.48,8.4-5.89,2.25,3.2-8.4,5.9,4.44,6.33,10.25-7.19,2.25,3.2-14.06,9.86-15.02-21.41Z"/>
      <path d="M1915.57,720.54c-4.87-7.09-4.13-13.46,.87-16.9,5-3.43,11.22-1.83,16.09,5.25,4.96,7.22,4.26,13.66-.74,17.1-5,3.44-11.26,1.77-16.22-5.45Zm13.01-8.94c-3.4-4.94-7.1-6.51-9.85-4.63-2.74,1.88-2.61,5.91,.78,10.85,3.67,5.35,7.36,6.89,10.11,5.01,2.74-1.88,2.63-5.88-1.04-11.23Zm.99,15.25l3.69-3.07c2.03,1.64,4.43,1.22,6.49-.19,.66-.45,1.12-1.02,1.43-1.51l2.68,2.46c-.47,.82-1.24,1.71-2.4,2.51-4.12,2.83-8.46,2.27-11.89-.19Z"/>
      <path d="M1938.3,708.92l-8.45-13.79,3.99-2.44,8.63,14.08c2.21,3.62,4.66,4.26,7.03,2.81,2.39-1.47,2.97-3.96,.76-7.58l-8.63-14.08,3.83-2.34,8.45,13.79c3.73,6.08,2.6,10.67-2.29,13.67-4.91,3.01-9.58,1.98-13.31-4.11Z"/>
      <path d="M1953.14,681.31l15.06-7.39,1.72,3.51-10.88,5.34,2.95,6.01,9.21-4.52,1.72,3.51-9.22,4.52,3.41,6.94,11.24-5.52,1.72,3.51-15.42,7.56-11.52-23.48Z"/>
      <path d="M1982.97,692.35l1.44-3.94c2.48,.99,5.3,1.23,7.88,.29,2.86-1.04,3.91-2.86,3.28-4.57-.8-2.19-2.7-2.16-5.46-2.29l-3.91-.23c-2.95-.06-6.31-.99-7.62-4.6-1.43-3.91,.99-8.21,6-10.04,3.01-1.1,6.28-.97,9.01,.25l-1.22,3.59c-2.16-.72-4.14-.87-6.61,.04-2.33,.85-3.52,2.48-2.85,4.29,.7,1.91,2.92,1.89,5.46,1.93l3.73,.22c3.57,.06,6.46,1.12,7.76,4.66,1.46,3.99-.69,8.54-6.43,10.64-3.45,1.26-7.21,1.14-10.45-.25Z"/>
      <path d="M2007.74,664.32l-7.99,2.02-.96-3.79,20.48-5.19,.96,3.79-7.99,2.02,5.46,21.56-4.51,1.14-5.46-21.56Z"/>
    </g>
  </g>
  <g id="Layer_11" data-name="Layer 11">
    <g>
      <ellipse class="cls-22" cx="392.13" cy="1782.88" rx="378.37" ry="269.82"/>
      <path class="cls-24" d="M771,1782.88c.24,43-14.57,85.3-39.14,120.37-76.15,106.31-213.2,151.3-339.73,153.41-128.36,1.12-270.14-39.03-349.74-146.43-40.73-55.04-54.47-129.64-30.82-194.52,22.16-63.66,73.8-112.99,131.63-144.94,130.14-70.28,300.07-77.71,436.81-22.5,96.83,38.79,190.97,123.27,190.99,234.61h0Zm-1,0c.55-64.8-33.8-125.33-81.52-167.47-126.8-110.92-330.58-129.75-482.14-62.04-91.32,40.79-178.88,123.33-178.75,229.51,1.69,128.8,125.36,216.41,239.23,247.98,140.83,38.54,308.48,16.47,421.05-81.19,47.84-41.84,82.39-102.09,82.13-166.79h0Z"/>
    </g>
    <g>
      <ellipse class="cls-22" cx="1706.6" cy="270.63" rx="378.37" ry="269.82"/>
      <path class="cls-24" d="M2085.47,270.63c.82,88.11-60.13,163.79-132.23,208.34-91.93,57.73-204.45,76.52-311.51,65.31-107.73-11.43-220.02-55.42-285.39-145.94-40.45-55.46-53.83-129.81-30.24-194.86C1374.9,68.82,1533.17,7.17,1666.5,1.23c119.05-7.79,245.89,21,336.83,101.5,47.78,42.35,82.51,102.85,82.14,167.9h0Zm-1,0c.51-64.78-33.85-125.28-81.62-167.35C1908.02,19.47,1766.37-10.9,1642.87,6.38c-102.44,15.61-206.21,63.79-265.44,151.24-22.39,33.51-35.71,72.7-35.38,113.01,.12,40.08,14.06,79.21,36.73,112.06,78.96,111.18,227.35,157.12,359.43,150.12,94.45-4.74,190.86-33.68,263.42-96.17,48.2-41.3,83.07-101.37,82.83-166.02h0Z"/>
    </g>
    <g>
      <path d="M1564.01,193.28h8.88v48.84h-8.88v-17.91h-23.46v17.91h-8.88v-48.84h8.88v23.76h23.46v-23.76Z"/>
      <path d="M1579.84,226.14c0-10.44,6.51-16.73,16.58-16.73s16.21,6.22,16.21,16.5-6.36,17.02-16.5,17.02-16.28-6.51-16.28-16.8Zm24.27-.07c0-6.44-3.03-10.21-7.84-10.21s-7.92,3.77-7.92,10.21,3.03,10.51,7.84,10.51,7.92-4.07,7.92-10.51Z"/>
      <path d="M1658.66,210.3h8.14l-12.21,31.82h-6.07l-7.47-21.17-7.92,21.17h-5.99l-11.84-31.82h8.81l6.51,20.8,7.1-20.8h7.25l6.96,21.02,6.73-21.02Z"/>
      <path d="M1723.85,241.68c-1.18,.59-2.96,1.26-5.62,1.26-3.48,0-5.92-1.11-6.96-4.37-2.44,2.37-5.92,4.37-10.8,4.37-8.58,0-13.47-6.14-13.47-16.06,0-11.62,6.73-17.47,15.99-17.47,3.18,0,5.7,.67,7.77,1.7v-20.8h8.44v43.07c0,3.26,1.33,4.37,4.29,3.4l.37,4.88Zm-20.79-6.14c3.11,0,5.62-1.33,7.7-3.11v-14.65c-1.7-.67-3.85-1.26-6.22-1.26-6.14,0-9.03,3.7-9.03,9.77,0,5.25,2.22,9.25,7.55,9.25Z"/>
      <path d="M1727.84,226.14c0-10.44,6.51-16.73,16.58-16.73s16.21,6.22,16.21,16.5-6.36,17.02-16.5,17.02-16.28-6.51-16.28-16.8Zm24.27-.07c0-6.44-3.03-10.21-7.84-10.21s-7.92,3.77-7.92,10.21,3.03,10.51,7.84,10.51,7.92-4.07,7.92-10.51Z"/>
      <path d="M1795.26,227.62h-20.87c.67,6.14,4.29,9.03,10.21,9.03,3.92,0,6.73-1.18,9.03-2.52l1.55,5.25c-2.22,1.7-6.36,3.63-12.36,3.63-11.62,0-16.87-7.03-16.87-16.58,0-10.29,6.14-17.02,15.91-17.02,10.36,0,15.39,7.92,13.39,18.21Zm-20.72-5.48h13.99c.15-4.22-2.22-7.25-6.51-7.25-3.85,0-6.66,2.52-7.47,7.25Z"/>
      <path d="M1800.58,234.35l6.51-2.07c.67,2.07,2.74,4.88,7.77,4.88,3.48,0,5.85-1.41,5.85-3.33,0-5.4-18.5-3.18-18.5-14.5,0-6.88,6.66-9.99,13.4-9.99s12.14,3.33,12.73,9.03l-6.96,1.78c-.44-3.63-3.7-4.88-6.29-5.03-2.74-.07-5.11,1.18-5.11,3.26,0,5.4,18.72,3.63,18.72,14.58,0,6.07-5.4,9.99-14.13,9.99-8.21,0-12.51-3.55-13.99-8.58Z"/>
      <path d="M1850.61,197.87c0-2.96,2.15-5.11,5.03-5.11s5.03,2.15,5.03,5.11-2.15,5.11-5.03,5.11-5.03-2.22-5.03-5.11Zm.81,36.93v-24.5h8.44v23.09c0,2.89,.81,3.7,2.74,3.7,.44,0,1.04-.07,1.55-.3l.37,4.88c-1.11,.59-2.81,1.26-5.77,1.26-4.44,0-7.33-1.63-7.33-8.14Z"/>
      <path d="M1893.38,240.5c-2.66,1.85-6.81,2.44-9.55,2.44-7.03,0-11.32-3.63-11.32-11.91v-14.36h-4.96v-6.36h4.96v-8.36l8.44-.89v9.25h10.95v6.36h-10.95v12.21c0,4.29,1.33,7.25,5.92,7.25,1.92,0,4.22-.67,5.92-1.63l.59,5.99Z"/>
      <path d="M1465.37,298.58l-.15,8.66-.44,.15c-1.04-.67-3.11-1.04-4.66-1.04-2.44,0-5.18,1.18-7.4,3.48v21.09h-8.44v-31.82h8.07l.3,4c2.59-2.81,5.85-4.88,9.92-4.88,1.18,0,1.92,.15,2.81,.37Z"/>
      <path d="M1497.41,316.42h-20.87c.67,6.14,4.29,9.03,10.21,9.03,3.92,0,6.73-1.18,9.03-2.52l1.55,5.25c-2.22,1.7-6.36,3.63-12.36,3.63-11.62,0-16.87-7.03-16.87-16.58,0-10.29,6.14-17.02,15.91-17.02,10.36,0,15.39,7.92,13.39,18.21Zm-20.72-5.48h13.99c.15-4.22-2.22-7.25-6.51-7.25-3.85,0-6.66,2.52-7.47,7.25Z"/>
      <path d="M1502.74,323.15l6.51-2.07c.67,2.07,2.74,4.88,7.77,4.88,3.48,0,5.85-1.41,5.85-3.33,0-5.4-18.5-3.18-18.5-14.5,0-6.88,6.66-9.99,13.4-9.99s12.14,3.33,12.73,9.03l-6.96,1.78c-.44-3.63-3.7-4.88-6.29-5.03-2.74-.07-5.11,1.18-5.11,3.26,0,5.4,18.72,3.63,18.72,14.58,0,6.07-5.4,9.99-14.13,9.99-8.21,0-12.51-3.55-13.99-8.58Z"/>
      <path d="M1535.52,314.94c0-10.44,6.51-16.73,16.58-16.73s16.21,6.22,16.21,16.5-6.36,17.02-16.5,17.02-16.28-6.51-16.28-16.8Zm24.27-.07c0-6.44-3.03-10.21-7.84-10.21s-7.92,3.77-7.92,10.21,3.03,10.51,7.84,10.51,7.92-4.07,7.92-10.51Z"/>
      <path d="M1575.78,323.6v-44.48h8.44v43.07c0,2.89,.81,3.7,2.74,3.7,.52,0,1.04-.07,1.63-.3l.3,4.88c-1.11,.59-2.81,1.26-5.7,1.26-4.44,0-7.4-1.7-7.4-8.14Z"/>
      <path d="M1615,299.1h9.03l-13.62,31.9h-5.99l-13.69-31.9h8.88l7.99,21.24,7.4-21.24Z"/>
      <path d="M1655.7,316.42h-20.87c.67,6.14,4.29,9.03,10.21,9.03,3.92,0,6.73-1.18,9.03-2.52l1.55,5.25c-2.22,1.7-6.36,3.63-12.36,3.63-11.62,0-16.87-7.03-16.87-16.58,0-10.29,6.14-17.02,15.91-17.02,10.36,0,15.39,7.92,13.39,18.21Zm-20.72-5.48h13.99c.15-4.22-2.22-7.25-6.51-7.25-3.85,0-6.66,2.52-7.47,7.25Z"/>
      <path d="M1701.28,298.58l-.15,8.66-.44,.15c-1.04-.67-3.11-1.04-4.66-1.04-2.44,0-5.18,1.18-7.4,3.48v21.09h-8.44v-31.82h8.07l.3,4c2.59-2.81,5.85-4.88,9.92-4.88,1.18,0,1.92,.15,2.81,.37Z"/>
      <path d="M1733.32,316.42h-20.87c.67,6.14,4.29,9.03,10.21,9.03,3.92,0,6.73-1.18,9.03-2.52l1.55,5.25c-2.22,1.7-6.36,3.63-12.36,3.63-11.62,0-16.87-7.03-16.87-16.58,0-10.29,6.14-17.02,15.91-17.02,10.36,0,15.39,7.92,13.4,18.21Zm-20.72-5.48h13.99c.15-4.22-2.22-7.25-6.51-7.25-3.85,0-6.66,2.52-7.47,7.25Z"/>
      <path d="M1764.92,299.1h6.51v48.1h-8.36v-19.32c-2.44,2.15-5.77,3.85-10.29,3.85-8.58,0-13.47-6.14-13.47-16.06,0-11.62,6.73-17.47,15.99-17.47,3.77,0,6.66,.96,8.95,2.37l.67-1.48Zm-1.85,22.2v-14.73c-1.7-.74-3.85-1.26-6.22-1.26-6.14,0-9.03,3.7-9.03,9.77,0,5.25,2.22,9.25,7.55,9.25,3.11,0,5.62-1.26,7.7-3.03Z"/>
      <path d="M1814.65,330.48c-1.18,.59-2.96,1.26-5.7,1.26-3.26,0-5.7-.89-6.73-3.92-2.59,2.22-5.77,3.92-10.36,3.92-7.4,0-11.32-4.37-11.32-12.95v-19.69h8.36v17.69c0,5.18,1.85,7.47,5.85,7.47,2.89,0,5.18-1.26,6.88-2.59v-22.57h8.36v23.09c0,3.33,1.26,4.29,4.29,3.4l.37,4.88Z"/>
      <path d="M1847.94,316.42h-20.87c.67,6.14,4.29,9.03,10.21,9.03,3.92,0,6.73-1.18,9.03-2.52l1.55,5.25c-2.22,1.7-6.36,3.63-12.36,3.63-11.62,0-16.87-7.03-16.87-16.58,0-10.29,6.14-17.02,15.91-17.02,10.36,0,15.39,7.92,13.4,18.21Zm-20.72-5.48h13.99c.15-4.22-2.22-7.25-6.51-7.25-3.85,0-6.66,2.52-7.47,7.25Z"/>
      <path d="M1853.27,323.15l6.51-2.07c.67,2.07,2.74,4.88,7.77,4.88,3.48,0,5.85-1.41,5.85-3.33,0-5.4-18.5-3.18-18.5-14.5,0-6.88,6.66-9.99,13.4-9.99s12.14,3.33,12.73,9.03l-6.96,1.78c-.44-3.63-3.7-4.88-6.29-5.03-2.74-.07-5.11,1.18-5.11,3.26,0,5.4,18.72,3.63,18.72,14.58,0,6.07-5.4,9.99-14.13,9.99-8.21,0-12.51-3.55-13.99-8.58Z"/>
      <path d="M1910.84,329.3c-2.66,1.85-6.81,2.44-9.55,2.44-7.03,0-11.32-3.63-11.32-11.91v-14.36h-4.96v-6.36h4.96v-8.36l8.44-.89v9.25h10.95v6.36h-10.95v12.21c0,4.29,1.33,7.25,5.92,7.25,1.92,0,4.22-.67,5.92-1.63l.59,5.99Z"/>
      <path d="M1914.54,323.15l6.51-2.07c.67,2.07,2.74,4.88,7.77,4.88,3.48,0,5.85-1.41,5.85-3.33,0-5.4-18.5-3.18-18.5-14.5,0-6.88,6.66-9.99,13.4-9.99s12.14,3.33,12.73,9.03l-6.96,1.78c-.44-3.63-3.7-4.88-6.29-5.03-2.74-.07-5.11,1.18-5.11,3.26,0,5.4,18.72,3.63,18.72,14.58,0,6.07-5.4,9.99-14.13,9.99-8.21,0-12.51-3.55-13.99-8.58Z"/>
      <path d="M1956.2,316.86v-11.62c9.77,0,14.21-3.55,14.21-9.4,0-4.81-2.96-7.47-7.99-7.47s-8.73,2.37-9.77,7.47l-6.59-2c1.41-7.03,7.03-12.58,16.72-12.58,10.8,0,16.43,5.99,16.43,14.21,0,9.18-7.4,15.02-16.43,15.54l-.22,5.85h-6.36Zm-2.07,9.77c0-2.81,2.29-5.03,5.11-5.03s5.11,2.22,5.11,5.03-2.22,5.11-5.11,5.11-5.11-2.22-5.11-5.11Z"/>
    </g>
    <g>
      <path d="M246.05,1701.61h8.88v48.84h-8.88v-17.91h-23.46v17.91h-8.88v-48.84h8.88v23.76h23.46v-23.76Z"/>
      <path d="M261.88,1734.46c0-10.43,6.51-16.73,16.58-16.73s16.21,6.22,16.21,16.5-6.36,17.02-16.5,17.02-16.28-6.51-16.28-16.8Zm24.27-.07c0-6.44-3.03-10.21-7.84-10.21s-7.92,3.77-7.92,10.21,3.03,10.51,7.84,10.51,7.92-4.07,7.92-10.51Z"/>
      <path d="M340.7,1718.63h8.14l-12.21,31.82h-6.07l-7.47-21.17-7.92,21.17h-6l-11.84-31.82h8.81l6.51,20.79,7.1-20.79h7.25l6.96,21.02,6.73-21.02Z"/>
      <path d="M405.89,1750.01c-1.18,.59-2.96,1.26-5.62,1.26-3.48,0-5.92-1.11-6.96-4.37-2.44,2.37-5.92,4.37-10.8,4.37-8.58,0-13.47-6.14-13.47-16.06,0-11.62,6.73-17.46,15.99-17.46,3.18,0,5.7,.67,7.77,1.7v-20.8h8.44v43.07c0,3.26,1.33,4.37,4.29,3.4l.37,4.88Zm-20.79-6.14c3.11,0,5.62-1.33,7.7-3.11v-14.65c-1.7-.67-3.85-1.26-6.22-1.26-6.14,0-9.03,3.7-9.03,9.77,0,5.25,2.22,9.25,7.55,9.25Z"/>
      <path d="M409.88,1734.46c0-10.43,6.51-16.73,16.58-16.73s16.21,6.22,16.21,16.5-6.36,17.02-16.5,17.02-16.28-6.51-16.28-16.8Zm24.27-.07c0-6.44-3.03-10.21-7.84-10.21s-7.92,3.77-7.92,10.21,3.03,10.51,7.84,10.51,7.92-4.07,7.92-10.51Z"/>
      <path d="M477.3,1735.94h-20.87c.67,6.14,4.29,9.03,10.21,9.03,3.92,0,6.73-1.18,9.03-2.52l1.55,5.25c-2.22,1.7-6.36,3.63-12.36,3.63-11.62,0-16.87-7.03-16.87-16.58,0-10.29,6.14-17.02,15.91-17.02,10.36,0,15.39,7.92,13.4,18.21Zm-20.72-5.48h13.99c.15-4.22-2.22-7.25-6.51-7.25-3.85,0-6.66,2.52-7.47,7.25Z"/>
      <path d="M482.62,1742.68l6.51-2.07c.67,2.07,2.74,4.88,7.77,4.88,3.48,0,5.85-1.41,5.85-3.33,0-5.4-18.5-3.18-18.5-14.5,0-6.88,6.66-9.99,13.4-9.99s12.14,3.33,12.73,9.03l-6.96,1.78c-.44-3.63-3.7-4.88-6.29-5.03-2.74-.07-5.11,1.18-5.11,3.26,0,5.4,18.72,3.63,18.72,14.58,0,6.07-5.4,9.99-14.13,9.99-8.21,0-12.51-3.55-13.99-8.58Z"/>
      <path d="M532.65,1706.19c0-2.96,2.15-5.11,5.03-5.11s5.03,2.15,5.03,5.11-2.15,5.11-5.03,5.11-5.03-2.22-5.03-5.11Zm.81,36.93v-24.5h8.44v23.09c0,2.89,.81,3.7,2.74,3.7,.44,0,1.04-.07,1.55-.3l.37,4.88c-1.11,.59-2.81,1.26-5.77,1.26-4.44,0-7.33-1.63-7.33-8.14Z"/>
      <path d="M575.42,1748.82c-2.66,1.85-6.81,2.44-9.55,2.44-7.03,0-11.32-3.63-11.32-11.92v-14.36h-4.96v-6.36h4.96v-8.36l8.44-.89v9.25h10.95v6.36h-10.95v12.21c0,4.29,1.33,7.25,5.92,7.25,1.92,0,4.22-.67,5.92-1.63l.59,5.99Z"/>
      <path d="M227.25,1838.81c-1.55,.81-3.85,1.26-6,1.26-2.52,0-5.03-.67-6.29-3.48-2.52,1.85-5.99,3.48-10.66,3.48-6.96,0-11.1-3.55-11.1-9.18,0-7.03,6.22-9.84,14.36-9.84,2.52,0,4.66,.3,6.59,.81v-2.74c0-3.77-1.85-5.92-6.81-5.92-4.29,0-7.62,1.55-10.51,3.33l-.89-6.44c3.11-1.85,7.25-3.55,12.88-3.55,6.73,0,13.69,2.44,13.69,12.06v11.1c0,3.48,1.04,5.33,4.29,4.22l.44,4.88Zm-20.2-4.88c2.67,0,5.18-1.11,7.1-2.52v-4.14c-1.85-.44-3.55-.67-5.25-.67-4.29,0-6.96,1.48-6.96,3.92,0,2.15,2.22,3.4,5.11,3.4Z"/>
      <path d="M231.25,1823.34c0-10.8,6.73-16.8,16.06-16.8,7.33,0,11.77,3.55,12.65,10.36l-7.33,2.07c-.3-2.59-1.7-5.85-5.85-5.85-4.59,0-7.03,3.92-7.03,9.4,0,6.88,3.55,10.58,9.69,10.58,3.48,0,6.59-1.18,9.03-3.03l1.92,5.77c-2.07,2-7.1,4.22-12.8,4.22-11.17,0-16.36-7.18-16.36-16.72Z"/>
      <path d="M264.84,1823.34c0-10.8,6.73-16.8,16.06-16.8,7.33,0,11.77,3.55,12.65,10.36l-7.33,2.07c-.3-2.59-1.7-5.85-5.85-5.85-4.59,0-7.03,3.92-7.03,9.4,0,6.88,3.55,10.58,9.69,10.58,3.48,0,6.59-1.18,9.03-3.03l1.92,5.77c-2.07,2-7.1,4.22-12.8,4.22-11.17,0-16.36-7.18-16.36-16.72Z"/>
      <path d="M327.74,1824.75h-20.87c.67,6.14,4.29,9.03,10.21,9.03,3.92,0,6.73-1.18,9.03-2.52l1.55,5.25c-2.22,1.7-6.36,3.63-12.36,3.63-11.62,0-16.87-7.03-16.87-16.58,0-10.29,6.14-17.02,15.91-17.02,10.36,0,15.39,7.92,13.39,18.21Zm-20.72-5.48h13.99c.15-4.22-2.22-7.25-6.51-7.25-3.85,0-6.66,2.52-7.47,7.25Z"/>
      <path d="M333.07,1831.48l6.51-2.07c.67,2.07,2.74,4.88,7.77,4.88,3.48,0,5.85-1.41,5.85-3.33,0-5.4-18.5-3.18-18.5-14.5,0-6.88,6.66-9.99,13.4-9.99s12.14,3.33,12.73,9.03l-6.96,1.78c-.44-3.63-3.7-4.88-6.29-5.03-2.74-.07-5.11,1.18-5.11,3.26,0,5.4,18.72,3.63,18.72,14.58,0,6.07-5.4,9.99-14.13,9.99-8.21,0-12.51-3.55-13.99-8.58Z"/>
      <path d="M365.18,1831.48l6.51-2.07c.67,2.07,2.74,4.88,7.77,4.88,3.48,0,5.85-1.41,5.85-3.33,0-5.4-18.5-3.18-18.5-14.5,0-6.88,6.66-9.99,13.4-9.99s12.14,3.33,12.73,9.03l-6.96,1.78c-.44-3.63-3.7-4.88-6.29-5.03-2.74-.07-5.11,1.18-5.11,3.26,0,5.4,18.72,3.63,18.72,14.58,0,6.07-5.4,9.99-14.13,9.99-8.21,0-12.51-3.55-13.99-8.58Z"/>
      <path d="M451.17,1838.81c-1.18,.59-2.96,1.26-5.62,1.26-3.48,0-5.92-1.11-6.96-4.37-2.44,2.37-5.92,4.37-10.8,4.37-8.58,0-13.47-6.14-13.47-16.06,0-11.62,6.73-17.47,15.99-17.47,3.18,0,5.7,.67,7.77,1.7v-20.79h8.44v43.07c0,3.26,1.33,4.37,4.29,3.4l.37,4.88Zm-20.79-6.14c3.11,0,5.62-1.33,7.7-3.11v-14.65c-1.7-.67-3.85-1.26-6.22-1.26-6.14,0-9.03,3.7-9.03,9.77,0,5.25,2.22,9.25,7.55,9.25Z"/>
      <path d="M489.13,1838.81c-1.55,.81-3.85,1.26-6,1.26-2.52,0-5.03-.67-6.29-3.48-2.52,1.85-5.99,3.48-10.66,3.48-6.96,0-11.1-3.55-11.1-9.18,0-7.03,6.22-9.84,14.36-9.84,2.52,0,4.66,.3,6.59,.81v-2.74c0-3.77-1.85-5.92-6.81-5.92-4.29,0-7.62,1.55-10.51,3.33l-.89-6.44c3.11-1.85,7.25-3.55,12.88-3.55,6.73,0,13.69,2.44,13.69,12.06v11.1c0,3.48,1.04,5.33,4.29,4.22l.44,4.88Zm-20.2-4.88c2.67,0,5.18-1.11,7.1-2.52v-4.14c-1.85-.44-3.55-.67-5.25-.67-4.29,0-6.96,1.48-6.96,3.92,0,2.15,2.22,3.4,5.11,3.4Z"/>
      <path d="M517.92,1837.62c-2.66,1.85-6.81,2.44-9.55,2.44-7.03,0-11.32-3.63-11.32-11.91v-14.36h-4.96v-6.37h4.96v-8.36l8.44-.89v9.25h10.95v6.37h-10.95v12.21c0,4.29,1.33,7.25,5.92,7.25,1.92,0,4.22-.67,5.92-1.63l.59,6Z"/>
      <path d="M556.25,1838.81c-1.55,.81-3.85,1.26-6,1.26-2.52,0-5.03-.67-6.29-3.48-2.52,1.85-5.99,3.48-10.66,3.48-6.96,0-11.1-3.55-11.1-9.18,0-7.03,6.22-9.84,14.36-9.84,2.52,0,4.66,.3,6.59,.81v-2.74c0-3.77-1.85-5.92-6.81-5.92-4.29,0-7.62,1.55-10.51,3.33l-.89-6.44c3.11-1.85,7.25-3.55,12.88-3.55,6.73,0,13.69,2.44,13.69,12.06v11.1c0,3.48,1.04,5.33,4.29,4.22l.44,4.88Zm-20.2-4.88c2.67,0,5.18-1.11,7.1-2.52v-4.14c-1.85-.44-3.55-.67-5.25-.67-4.29,0-6.96,1.48-6.96,3.92,0,2.15,2.22,3.4,5.11,3.4Z"/>
      <path d="M569.12,1825.19v-11.62c9.77,0,14.21-3.55,14.21-9.4,0-4.81-2.96-7.47-7.99-7.47s-8.73,2.37-9.77,7.47l-6.59-2c1.41-7.03,7.03-12.58,16.72-12.58,10.8,0,16.43,5.99,16.43,14.21,0,9.18-7.4,15.02-16.43,15.54l-.22,5.85h-6.36Zm-2.07,9.77c0-2.81,2.29-5.03,5.11-5.03s5.11,2.22,5.11,5.03-2.22,5.11-5.11,5.11-5.11-2.22-5.11-5.11Z"/>
    </g>
  </g>
</svg>